SplineFontDB: 3.0
FontName: GilliusADFNo2-Regular
FullName: Gillius ADF No2 Regular
FamilyName: Gillius ADF No2
Weight: Normal
Copyright: Copyright (c) Arkandis Digital Foundry. Under GNU General Public License V2 an later, with font exception.
Version: 1.009
ItalicAngle: 0
UnderlinePosition: -100
UnderlineWidth: 50
Ascent: 750
Descent: 250
InvalidEm: 0
sfntRevision: 0x0001024d
LayerCount: 2
Layer: 0 0 "Back" 1
Layer: 1 0 "Fore" 0
XUID: [1021 545 1763654097 15589992]
BaseHoriz: 2 'ideo' 'romn'
BaseScript: 'DFLT' 1  -150 0
BaseScript: 'latn' 1  -150 0
StyleMap: 0x0040
FSType: 8
OS2Version: 4
OS2_WeightWidthSlopeOnly: 0
OS2_UseTypoMetrics: 1
CreationTime: 1211649798
ModificationTime: 1319469101
PfmFamily: 17
TTFWeight: 400
TTFWidth: 5
LineGap: 26
VLineGap: 0
Panose: 2 11 5 3 5 0 0 2 0 3
OS2TypoAscent: 750
OS2TypoAOffset: 0
OS2TypoDescent: -250
OS2TypoDOffset: 0
OS2TypoLinegap: 52
OS2WinAscent: 933
OS2WinAOffset: 0
OS2WinDescent: 298
OS2WinDOffset: 0
HheadAscent: 933
HheadAOffset: 0
HheadDescent: -298
HheadDOffset: 0
OS2SubXSize: 650
OS2SubYSize: 600
OS2SubXOff: 0
OS2SubYOff: 75
OS2SupXSize: 650
OS2SupYSize: 600
OS2SupXOff: 0
OS2SupYOff: 350
OS2StrikeYSize: 50
OS2StrikeYPos: 250
OS2CapHeight: 692
OS2XHeight: 451
OS2Vendor: 'ADFP'
OS2CodePages: 60000011.81d40000
OS2UnicodeRanges: 800000af.5000204b.00000000.00000000
Lookup: 3 0 0 "'aalt' Access All Alternates in Latin lookup 0" { "'aalt' Access All Alternates in Latin lookup 0 subtable"  } ['aalt' ('DFLT' <'dflt' > 'latn' <'dflt' > ) ]
Lookup: 1 0 0 "'numr' Numerators in Latin lookup 1" { "'numr' Numerators in Latin lookup 1 subtable"  } ['numr' ('DFLT' <'dflt' > 'latn' <'dflt' > ) ]
Lookup: 1 0 0 "'dnom' Denominators in Latin lookup 2" { "'dnom' Denominators in Latin lookup 2 subtable"  } ['dnom' ('DFLT' <'dflt' > 'latn' <'dflt' > ) ]

StartChar: exclam
Encoding: 33 33 2
Width: 217
GlyphClass: 2
Flags: MW
HStem: -8 94<96 120> 672 20G<65 150 150 150>
VStem: 64 88<27 51>
LayerCount: 2
Fore
SplineSet
108 86 m 0
 132 86 152 63 152 39 c 0
 152 15 132 -8 108 -8 c 0
 84 -8 64 15 64 39 c 0
 64 63 84 86 108 86 c 0
150 389 m 1
 141 225 l 1
 76 225 l 1
 65 389 l 1
 65 692 l 1
 150 692 l 1
 150 389 l 1
EndSplineSet
Position2: "'cpsp' Capital Spacing in Latin lookup 0 subtable" dx=5 dy=0 dh=10 dv=0
EndChar

StartChar: quotedbl
Encoding: 34 34 3
Width: 360
GlyphClass: 2
Flags: MW
HStem: 377 224<69 129 69 129 69 231 231 291>
VStem: 69 60<377 601> 231 60<377 601>
LayerCount: 2
Fore
SplineSet
129 377 m 1
 69 377 l 1
 69 601 l 1
 129 601 l 1
 129 377 l 1
291 377 m 1
 231 377 l 1
 231 601 l 1
 291 601 l 1
 291 377 l 1
EndSplineSet
EndChar

StartChar: numbersign
Encoding: 35 35 4
Width: 618
GlyphClass: 2
Flags: MW
HStem: 0 21G<103 160 103 103 300 357 300 300> 193 66<11 148 11 162 220 344 11 211 417 555> 421 65<60 201 60 211 271 398 60 259 470 606>
LayerCount: 2
Fore
SplineSet
398 421 m 1
 259 421 l 1
 220 259 l 1
 360 259 l 1
 398 421 l 1
606 421 m 1
 453 421 l 1
 417 259 l 1
 555 259 l 1
 555 193 l 1
 403 193 l 1
 357 0 l 1
 300 0 l 1
 344 193 l 1
 211 193 l 1
 160 0 l 1
 103 0 l 1
 148 193 l 1
 11 193 l 1
 11 259 l 1
 162 259 l 1
 201 421 l 1
 60 421 l 1
 60 486 l 1
 211 486 l 1
 260 680 l 1
 318 680 l 1
 271 486 l 1
 412 486 l 1
 458 680 l 1
 514 680 l 1
 470 486 l 1
 606 486 l 1
 606 421 l 1
EndSplineSet
EndChar

StartChar: dollar
Encoding: 36 36 5
Width: 444
GlyphClass: 2
Flags: MW
HStem: -14 67<194 195> 323 85 630 72<191 192>
VStem: 42 71<479.5 515 479.5 569> 191 62<702 750 702 750> 336 75<147 219.5>
LayerCount: 2
Fore
SplineSet
257 -100 m 1
 195 -100 l 1
 195 -14 l 1
 142 -10 90 10 41 29 c 1
 41 120 l 1
 88 82 136 55 194 53 c 1
 193 323 l 1
 100 348 42 388 42 508 c 0
 42 630 103 691 191 702 c 1
 191 750 l 1
 253 750 l 1
 253 702 l 1
 295 698 341 685 373 668 c 1
 373 586 l 1
 329 615 302 632 254 635 c 1
 255 392 l 1
 348 365 411 311 411 188 c 0
 411 59 345 3 257 -11 c 1
 257 -100 l 1
255 305 m 1
 256 62 l 1
 300 77 336 113 336 181 c 0
 336 258 303 286 255 305 c 1
193 407 m 1
 192 630 l 1
 147 618 115 585 113 515 c 0
 113 444 147 422 193 407 c 1
EndSplineSet
EndChar

StartChar: percent
Encoding: 37 37 6
Width: 788
GlyphClass: 3
Flags: MW
HStem: -14 51<583.5 652 583.5 669> 308 50<619 652.5> 333 47<169 204.5 169 219.5> 653 51<137 204>
VStem: 29 50<518 550 486.5 562.5> 260 50<518 552> 476 52<142 173 142 218> 708 51<173 203.5>
LayerCount: 2
Fore
SplineSet
260 518 m 0xbf
 260 586 239 653 169 653 c 0
 105 653 79 582 79 518 c 0
 79 455 102 383 169 380 c 0
 240 380 259 452 260 518 c 0xbf
708 173 m 0
 708 234 686 308 619 308 c 0xdf
 545 308 529 238 528 173 c 0
 528 111 548 37 619 37 c 0
 685 37 706 108 708 173 c 0
310 518 m 0
 310 425 270 333 169 333 c 0xbf
 65 333 31 423 29 518 c 0
 29 607 70 704 169 704 c 0
 267 704 310 607 310 518 c 0
624 704 m 1
 221 -14 l 1
 164 -14 l 1
 567 704 l 1
 624 704 l 1
759 173 m 0
 759 85 719 -14 619 -14 c 0
 519 -14 476 82 476 173 c 0
 476 263 522 356 619 358 c 0xdf
 717 358 759 259 759 173 c 0
EndSplineSet
Ligature2: "Ligature Substitution lookup 10 subtable" zero fraction zero
Ligature2: "Ligature Substitution lookup 10 subtable" zero slash zero
EndChar

StartChar: ampersand
Encoding: 38 38 7
Width: 638
GlyphClass: 2
Flags: MW
HStem: -14 67<222.5 300.5> 0 21G<532 631 532 532> 640 64<266 298 249 309.5>
VStem: 33 65<165.5 252 165.5 253.5> 107 63<536.5 558 536.5 566> 531 69<367 367>
LayerCount: 2
Fore
SplineSet
428 117 m 1xbc
 185 377 l 1
 133 332 98 287 98 217 c 0
 98 114 174 53 271 53 c 0
 335 53 379 75 428 117 c 1xbc
631 0 m 1x7c
 532 0 l 1x7c
 466 69 l 1
 408 20 338 -14 263 -14 c 0xbc
 131 -14 33 75 33 211 c 0
 33 296 80 364 150 424 c 1
 134 446 125 465 117 484 c 0
 111 503 107 524 107 546 c 0
 107 586 120 628 152 658 c 0
 183 689 224 704 274 704 c 0
 322 704 379 689 415 671 c 1
 382 610 l 1
 343 638 336 640 283 640 c 0
 249 640 223 631 203 612 c 0
 179 593 170 570 170 546 c 0
 170 527 176 508 185 490 c 0
 194 475 212 451 240 422 c 2
 470 177 l 1
 516 241 528 287 531 367 c 1
 600 367 l 1
 592 283 554 202 508 130 c 1
 631 0 l 1x7c
EndSplineSet
Position2: "'cpsp' Capital Spacing in Latin lookup 0 subtable" dx=5 dy=0 dh=10 dv=0
EndChar

StartChar: quotesingle
Encoding: 39 39 8
Width: 184
GlyphClass: 2
Flags: MW
HStem: 468 224<74 125>
VStem: 73 66<572 582.5>
LayerCount: 2
Fore
SplineSet
125 692 m 1
 135 654 139 621 139 592 c 0
 139 552 131 518 117 486 c 1
 74 468 l 1
 73 564 l 2
 73 601 56 637 45 674 c 1
 125 692 l 1
EndSplineSet
EndChar

StartChar: parenleft
Encoding: 40 40 9
Width: 248
GlyphClass: 2
Flags: MW
VStem: 40 71<223 298 216.5 373>
LayerCount: 2
Fore
SplineSet
233 -125 m 1
 175 -125 l 1
 96 4 40 148 40 298 c 0
 40 448 98 592 175 720 c 1
 233 720 l 1
 153 575 113 465 111 298 c 0
 111 135 154 17 233 -125 c 1
EndSplineSet
EndChar

StartChar: parenright
Encoding: 41 41 10
Width: 249
GlyphClass: 2
Flags: MW
VStem: 137 71<227 370.5 227 378.5>
LayerCount: 2
Fore
SplineSet
208 298 m 0
 208 156 147 -6 73 -125 c 1
 15 -125 l 1
 95 17 137 136 137 298 c 0
 137 459 94 580 14 720 c 1
 73 720 l 1
 148 597 208 443 208 298 c 0
EndSplineSet
EndChar

StartChar: asterisk
Encoding: 42 42 11
Width: 446
GlyphClass: 2
Flags: MW
HStem: 684 20G<203 243 243 243>
VStem: 203 40<271 448 271 448 526 704>
LayerCount: 2
Fore
SplineSet
414 396 m 1
 396 355 l 1
 243 448 l 1
 243 271 l 1
 203 271 l 1
 203 448 l 1
 51 355 l 1
 32 396 l 1
 189 489 l 1
 32 580 l 1
 51 623 l 1
 203 526 l 1
 203 704 l 1
 243 704 l 1
 243 526 l 1
 396 623 l 1
 414 580 l 1
 254 488 l 1
 414 396 l 1
EndSplineSet
EndChar

StartChar: plus
Encoding: 43 43 12
Width: 541
GlyphClass: 2
Flags: MW
HStem: 0 21G<242 300 242 242> 228 62<11 242 11 242 300 529 11 300>
VStem: 242 58<0 228 0 228 290 517>
LayerCount: 2
Fore
SplineSet
529 228 m 1
 300 228 l 1
 300 0 l 1
 242 0 l 1
 242 228 l 1
 11 228 l 1
 11 290 l 1
 242 290 l 1
 242 517 l 1
 300 517 l 1
 300 290 l 1
 529 290 l 1
 529 228 l 1
EndSplineSet
EndChar

StartChar: comma
Encoding: 44 44 13
Width: 233
GlyphClass: 2
Flags: MW
HStem: -13 116<97.5 114>
LayerCount: 2
Fore
SplineSet
55 45 m 0
 55 77 81 103 114 103 c 0
 147 103 173 77 173 45 c 0
 173 -38 87 -100 55 -100 c 1
 65 -98 114 -44 114 -13 c 1
 81 -13 55 13 55 45 c 0
EndSplineSet
EndChar

StartChar: hyphen
Encoding: 45 45 14
Width: 366
GlyphClass: 2
Flags: MW
HStem: 193 66<69 297 69 297>
VStem: 69 228<193 259 193 259>
LayerCount: 2
Fore
SplineSet
297 193 m 1
 69 193 l 1
 69 259 l 1
 297 259 l 1
 297 193 l 1
EndSplineSet
AlternateSubs2: "'aalt' Access All Alternates in Latin lookup 0 subtable" endash emdash minus figuredash
EndChar

StartChar: period
Encoding: 46 46 15
Width: 233
GlyphClass: 2
Flags: MW
HStem: -13 116<97.5 130.5>
VStem: 55 118<29 61>
LayerCount: 2
Fore
SplineSet
55 45 m 0
 55 77 81 103 114 103 c 0
 147 103 173 77 173 45 c 0
 173 13 147 -13 114 -13 c 0
 81 -13 55 13 55 45 c 0
EndSplineSet
AlternateSubs2: "'aalt' Access All Alternates in Latin lookup 0 subtable" ellipsis onedotenleader twodotenleader
EndChar

StartChar: slash
Encoding: 47 47 16
Width: 314
GlyphClass: 2
Flags: MW
HStem: 672 20G<241 304 304 304>
VStem: 11 293
LayerCount: 2
Fore
SplineSet
304 692 m 1
 73 -88 l 1
 11 -88 l 1
 241 692 l 1
 304 692 l 1
EndSplineSet
Substitution2: "'dnom' Denominators in Latin lookup 2 subtable" fraction
Substitution2: "'numr' Numerators in Latin lookup 1 subtable" fraction
EndChar

StartChar: zero
Encoding: 48 48 17
Width: 550
GlyphClass: 2
Flags: MW
HStem: -14 66<203 344 203 366.5> 639 65<202.5 344.5>
VStem: 55 72<297 391 297 416> 423 71<296 344 271 389.5>
LayerCount: 2
Fore
SplineSet
423 344 m 0
 423 435 415 639 274 639 c 0
 131 639 127 438 127 344 c 0
 127 250 132 52 274 52 c 0
 414 52 423 248 423 344 c 0
494 344 m 0
 494 198 459 -14 274 -14 c 0
 89 -14 55 198 55 344 c 0
 55 488 87 704 274 704 c 0
 460 704 493 490 494 344 c 0
EndSplineSet
Position2: "'cpsp' Capital Spacing in Latin lookup 0 subtable" dx=5 dy=0 dh=10 dv=0
EndChar

StartChar: one
Encoding: 49 49 18
Width: 286
GlyphClass: 2
Flags: MW
HStem: 0 21G<131 208 131 131> 672 20G<125 208 208 208>
VStem: 131 77<0 617 617 617>
LayerCount: 2
Fore
SplineSet
208 0 m 1
 131 0 l 1
 131 617 l 1
 71 563 l 1
 27 611 l 1
 125 692 l 1
 208 692 l 1
 208 0 l 1
EndSplineSet
Position2: "'cpsp' Capital Spacing in Latin lookup 0 subtable" dx=5 dy=0 dh=10 dv=0
EndChar

StartChar: two
Encoding: 50 50 19
Width: 481
GlyphClass: 2
Flags: MW
HStem: 0 72<176 439 176 439> 634 70<187.5 261>
VStem: 362 77
LayerCount: 2
Fore
SplineSet
36 0 m 1
 53 18 270 327 282 343 c 0
 314 386 362 448 362 503 c 0
 362 585 300 634 222 634 c 0
 153 634 96 607 40 571 c 1
 40 650 l 1
 84 674 153 704 220 704 c 0
 340 704 433 636 433 508 c 0
 433 436 400 392 365 338 c 2
 176 72 l 1
 439 72 l 1
 439 0 l 1
 36 0 l 1
EndSplineSet
Position2: "'cpsp' Capital Spacing in Latin lookup 0 subtable" dx=5 dy=0 dh=10 dv=0
EndChar

StartChar: three
Encoding: 51 51 20
Width: 480
GlyphClass: 2
Flags: MW
HStem: -14 71<148.5 227.5 140 247.5> 335 68<162 194 162 197> 634 70<174 235>
VStem: 341 71<516 559.5> 356 71<143.5 239 124.5 248>
LayerCount: 2
Fore
SplineSet
427 200 m 0xe8
 427 49 317 -14 178 -14 c 0
 119 -14 86 -8 43 19 c 1
 43 104 l 1
 88 76 104 57 176 57 c 0
 279 57 356 87 356 200 c 0xe8
 356 296 284 335 194 335 c 2
 162 335 l 1
 162 403 l 1
 197 403 l 2
 276 403 339 435 341 516 c 0
 341 603 276 634 194 634 c 0
 129 634 117 618 63 599 c 1
 63 675 l 1
 113 691 146 704 202 704 c 0
 312 704 412 649 412 528 c 0xf0
 412 456 368 401 292 373 c 1
 381 348 427 278 427 200 c 0xe8
EndSplineSet
Position2: "'cpsp' Capital Spacing in Latin lookup 0 subtable" dx=5 dy=0 dh=10 dv=0
EndChar

StartChar: four
Encoding: 52 52 21
Width: 508
GlyphClass: 2
Flags: MW
HStem: 0 21G<318 393 318 318> 165 71<120 318 120 318 393 487> 672 20G<355 393 393 393>
VStem: 318 75<0 165 0 165 236 535 535 535>
LayerCount: 2
Fore
SplineSet
318 236 m 1
 318 535 l 1
 120 236 l 1
 318 236 l 1
487 165 m 1
 393 165 l 1
 393 0 l 1
 318 0 l 1
 318 165 l 1
 25 165 l 1
 25 195 l 1
 355 692 l 1
 393 692 l 1
 393 236 l 1
 487 236 l 1
 487 165 l 1
EndSplineSet
Position2: "'cpsp' Capital Spacing in Latin lookup 0 subtable" dx=5 dy=0 dh=10 dv=0
EndChar

StartChar: five
Encoding: 53 53 22
Width: 487
GlyphClass: 2
Flags: MW
HStem: -14 71<174 250.5 165 275> 381 72<129 199 62 215> 619 73<129 398 129 129>
VStem: 62 67<453 619 453 692> 373 72<165 220 143.5 273>
LayerCount: 2
Fore
SplineSet
445 220 m 0
 445 67 349 -14 201 -14 c 0
 147 -14 80 -1 34 15 c 1
 34 102 l 1
 84 71 131 57 199 57 c 0
 302 57 373 110 373 220 c 0
 373 326 301 381 199 381 c 2
 62 381 l 1
 62 692 l 1
 398 692 l 1
 398 619 l 1
 129 619 l 1
 129 453 l 1
 215 453 l 2
 356 453 443 361 445 220 c 0
EndSplineSet
Position2: "'cpsp' Capital Spacing in Latin lookup 0 subtable" dx=5 dy=0 dh=10 dv=0
EndChar

StartChar: six
Encoding: 54 54 23
Width: 525
GlyphClass: 2
Flags: MW
HStem: -14 66<229 276> 375 65<281 323.5> 678 20G<318 318>
VStem: 48 79<188.5 207 159 388.5> 415 72<161 253>
LayerCount: 2
Fore
SplineSet
127 207 m 0
 127 111 182 52 276 52 c 0
 371 52 415 115 415 207 c 0
 415 299 371 375 276 375 c 0
 179 375 129 302 127 207 c 0
48 261 m 0
 48 516 201 654 318 698 c 1
 363 654 l 1
 268 622 142 495 140 375 c 1
 172 418 217 437 281 440 c 0
 419 440 487 339 487 207 c 0
 487 75 394 -12 276 -14 c 0
 102 -14 48 116 48 261 c 0
EndSplineSet
Position2: "'cpsp' Capital Spacing in Latin lookup 0 subtable" dx=5 dy=0 dh=10 dv=0
EndChar

StartChar: seven
Encoding: 55 55 24
Width: 447
GlyphClass: 2
Flags: MW
HStem: -14 21G<176 176> 618 74<16 331 16 423>
LayerCount: 2
Fore
SplineSet
423 657 m 1
 176 -14 l 1
 108 8 l 1
 331 618 l 1
 16 618 l 1
 16 692 l 1
 423 692 l 1
 423 657 l 1
EndSplineSet
Position2: "'cpsp' Capital Spacing in Latin lookup 0 subtable" dx=5 dy=0 dh=10 dv=0
EndChar

StartChar: eight
Encoding: 56 56 25
Width: 536
GlyphClass: 2
Flags: MW
HStem: -14 66<222 310.5 222 334> 333 66<265 267 267 302.5 265 311.5> 639 65<228.5 301>
VStem: 49 72<146 234.5> 64 70<518 518> 398 72<482 518> 413 70<147 193 123.5 237.5>
LayerCount: 2
Fore
SplineSet
413 193 m 0xf2
 413 282 356 333 267 333 c 0
 178 333 121 286 121 193 c 0
 121 99 177 52 267 52 c 0
 354 52 413 101 413 193 c 0xf2
398 518 m 0xec
 394 610 335 639 267 639 c 0
 190 639 140 608 134 518 c 1
 136 453 195 399 265 399 c 2
 267 399 l 2
 338 399 398 446 398 518 c 0xec
483 193 m 0xe2
 483 54 401 -14 267 -14 c 0
 133 -14 49 54 49 193 c 0xf2
 49 276 97 340 187 368 c 1
 106 397 64 435 64 518 c 0
 64 638 157 704 267 704 c 0
 377 704 468 638 470 518 c 0xec
 470 441 422 397 358 368 c 1
 443 338 481 274 483 193 c 0xe2
EndSplineSet
Position2: "'cpsp' Capital Spacing in Latin lookup 0 subtable" dx=5 dy=0 dh=10 dv=0
EndChar

StartChar: nine
Encoding: 57 57 26
Width: 526
GlyphClass: 2
Flags: MW
HStem: 238 65<200.5 243> 626 66<248 295>
VStem: 37 72<425 517 425 537> 397 79<471 489.5 298.5 519>
LayerCount: 2
Fore
SplineSet
397 471 m 0
 397 567 342 626 248 626 c 0
 153 626 109 563 109 471 c 0
 109 379 153 303 248 303 c 0
 345 303 395 376 397 471 c 0
476 417 m 0
 476 180 321 26 204 -18 c 1
 159 24 l 1
 252 68 378 188 382 288 c 1
 342 250 307 241 243 238 c 0
 105 238 37 339 37 471 c 0
 37 603 130 690 248 692 c 0
 422 692 476 562 476 417 c 0
EndSplineSet
Position2: "'cpsp' Capital Spacing in Latin lookup 0 subtable" dx=5 dy=0 dh=10 dv=0
EndChar

StartChar: colon
Encoding: 58 58 27
Width: 233
GlyphClass: 2
Flags: MW
HStem: -11 116<97.5 130.5> 287 116<97.5 130.5>
VStem: 55 118<31 63 329 361>
LayerCount: 2
Fore
SplineSet
55 47 m 0
 55 79 81 105 114 105 c 0
 147 105 173 79 173 47 c 0
 173 15 147 -11 114 -11 c 0
 81 -11 55 15 55 47 c 0
55 345 m 0
 55 377 81 403 114 403 c 0
 147 403 173 377 173 345 c 0
 173 313 147 287 114 287 c 0
 81 287 55 313 55 345 c 0
EndSplineSet
EndChar

StartChar: semicolon
Encoding: 59 59 28
Width: 233
GlyphClass: 2
Flags: MW
HStem: -13 116<97.5 114> 287 116<97.5 130.5>
VStem: 55 118<29 61 329 361>
LayerCount: 2
Fore
SplineSet
55 345 m 0
 55 377 81 403 114 403 c 0
 147 403 173 377 173 345 c 0
 173 313 147 287 114 287 c 0
 81 287 55 313 55 345 c 0
55 45 m 0
 55 77 81 103 114 103 c 0
 147 103 173 77 173 45 c 0
 173 -38 87 -100 55 -100 c 1
 65 -98 114 -44 114 -13 c 1
 81 -13 55 13 55 45 c 0
EndSplineSet
EndChar

StartChar: less
Encoding: 60 60 29
Width: 575
GlyphClass: 2
Flags: W
LayerCount: 2
Fore
SplineSet
537 38 m 1
 19 227 l 1
 19 289 l 1
 537 479 l 1
 537 411 l 1
 106 258 l 1
 537 106 l 1
 537 38 l 1
EndSplineSet
EndChar

StartChar: equal
Encoding: 61 61 30
Width: 657
GlyphClass: 2
Flags: MW
HStem: 142 63<69 588 69 588> 312 62<69 588 69 588>
LayerCount: 2
Fore
SplineSet
588 142 m 1
 69 142 l 1
 69 205 l 1
 588 205 l 1
 588 142 l 1
588 312 m 1
 69 312 l 1
 69 374 l 1
 588 374 l 1
 588 312 l 1
EndSplineSet
EndChar

StartChar: greater
Encoding: 62 62 31
Width: 576
GlyphClass: 2
Flags: W
LayerCount: 2
Fore
SplineSet
557 227 m 1
 38 38 l 1
 38 106 l 1
 469 258 l 1
 38 411 l 1
 38 479 l 1
 557 289 l 1
 557 227 l 1
EndSplineSet
EndChar

StartChar: question
Encoding: 63 63 32
Width: 383
GlyphClass: 2
Flags: MW
HStem: -8 94<178 202> 636 68<150 199>
VStem: 118 80<183 312> 146 88<27 51> 284 71<538 543 512.5 571.5>
LayerCount: 2
Fore
SplineSet
190 86 m 0xd8
 214 86 234 63 234 39 c 0
 234 15 214 -8 190 -8 c 0
 166 -8 146 15 146 39 c 0
 146 63 166 86 190 86 c 0xd8
355 543 m 0
 355 482 326 450 287 409 c 2
 247 368 l 2
 203 318 198 314 198 242 c 2
 198 183 l 1
 174 184 l 1
 129 256 l 2
 121 269 118 281 118 292 c 0xe8
 118 332 159 365 193 402 c 2
 232 443 l 2
 250 460 281 499 284 538 c 0
 284 605 230 636 168 636 c 0
 106 636 86 608 56 590 c 1
 26 652 l 1
 80 684 116 704 184 704 c 0
 285 704 353 647 355 543 c 0
EndSplineSet
Position2: "'cpsp' Capital Spacing in Latin lookup 0 subtable" dx=5 dy=0 dh=10 dv=0
EndChar

StartChar: at
Encoding: 64 64 33
Width: 878
GlyphClass: 2
Flags: MW
HStem: -165 67<352 451> 42 65<400.5 457.5> 389 68<428 456.5 428 463.5> 620 47<339.5 450 450 458>
VStem: 34 52<142.5 349.5 142.5 356> 250 63<210 248 210 300> 576 63<40 449 102 449 396 449 108 449> 793 55<303 381>
LayerCount: 2
Fore
SplineSet
575 248 m 0
 575 293 563 326 540 352 c 0
 515 376 484 389 443 389 c 0
 354 389 315 325 313 248 c 0
 313 172 357 107 444 107 c 0
 533 107 573 172 575 248 c 0
848 305 m 0
 848 143 746 42 576 40 c 1
 576 102 l 1
 546 67 487 42 428 42 c 0
 307 42 250 146 250 248 c 0
 250 352 305 455 428 457 c 0
 485 457 549 446 576 396 c 1
 576 449 l 1
 639 449 l 1
 639 108 l 1
 750 124 791 206 793 303 c 0
 793 459 659 620 458 620 c 2
 450 620 l 2
 229 620 86 448 86 251 c 0
 86 34 255 -98 449 -98 c 0
 537 -98 608 -69 674 -19 c 1
 715 -73 l 1
 631 -131 560 -163 451 -165 c 0
 222 -165 34 0 34 251 c 0
 34 461 174 667 457 667 c 0
 701 667 848 493 848 305 c 0
EndSplineSet
EndChar

StartChar: A
Encoding: 65 65 34
Width: 655
GlyphClass: 2
Flags: MW
HStem: 0 21G<8 95 8 8 559 647 559 559> 180 72<187 468 187 495 160 468> 672 20G<277 376 376 376>
LayerCount: 2
Fore
SplineSet
468 252 m 1
 329 608 l 1
 187 252 l 1
 468 252 l 1
647 0 m 1
 559 0 l 1
 495 180 l 1
 160 180 l 1
 95 0 l 1
 8 0 l 1
 277 692 l 1
 376 692 l 1
 647 0 l 1
EndSplineSet
Position2: "'cpsp' Capital Spacing in Latin lookup 0 subtable" dx=5 dy=0 dh=10 dv=0
EndChar

StartChar: B
Encoding: 66 66 35
Width: 590
GlyphClass: 2
Flags: MW
HStem: 0 69<145 309 309 315> 333 68<145 298 298 309 145 298> 623 69<145 298 145 145>
VStem: 69 76<69 333 69 401 401 623> 453 69<513 523 489 555> 474 75<153 233.5 124 252>
LayerCount: 2
Fore
SplineSet
474 202 m 0xf4
 474 302 412 333 309 333 c 2
 145 333 l 1
 145 69 l 1
 309 69 l 2
 412 69 474 104 474 202 c 0xf4
453 513 m 0xf8
 453 597 383 621 298 623 c 2
 145 623 l 1
 145 401 l 1
 298 401 l 2
 386 401 451 435 453 513 c 0xf8
549 193 m 0xf4
 549 55 453 0 315 0 c 2
 69 0 l 1
 69 692 l 1
 306 692 l 2
 426 692 517 649 522 523 c 0xf8
 522 455 495 394 430 378 c 1
 430 368 l 1
 506 345 549 274 549 193 c 0xf4
EndSplineSet
Position2: "'cpsp' Capital Spacing in Latin lookup 0 subtable" dx=5 dy=0 dh=10 dv=0
EndChar

StartChar: C
Encoding: 67 67 36
Width: 628
GlyphClass: 2
Flags: MW
HStem: -14 68<285 416> 636 68<283 418.5 263 427.5>
VStem: 42 74<262.5 344 262.5 444>
LayerCount: 2
Fore
SplineSet
596 51 m 1
 538 10 454 -14 378 -14 c 0
 150 -14 42 144 42 344 c 0
 42 544 148 704 378 704 c 0
 459 704 533 681 596 640 c 1
 596 546 l 1
 538 607 475 636 380 636 c 0
 186 636 119 506 116 344 c 0
 116 181 190 54 380 54 c 0
 474 54 535 81 596 142 c 1
 596 51 l 1
EndSplineSet
Position2: "'cpsp' Capital Spacing in Latin lookup 0 subtable" dx=5 dy=0 dh=10 dv=0
EndChar

StartChar: D
Encoding: 68 68 37
Width: 683
GlyphClass: 2
Flags: MW
HStem: 0 69<144 256> 623 69<144 256 256 269 144 144>
VStem: 69 75<69 623 69 692 69 692> 566 73<253 443.5>
LayerCount: 2
Fore
SplineSet
566 347 m 0
 566 540 473 621 269 623 c 2
 144 623 l 1
 144 69 l 1
 269 69 l 2
 473 69 566 159 566 347 c 0
639 347 m 0
 639 100 513 0 256 0 c 2
 69 0 l 1
 69 692 l 1
 256 692 l 2
 513 692 639 594 639 347 c 0
EndSplineSet
Position2: "'cpsp' Capital Spacing in Latin lookup 0 subtable" dx=5 dy=0 dh=10 dv=0
EndChar

StartChar: E
Encoding: 69 69 38
Width: 536
GlyphClass: 2
Flags: MW
HStem: 0 72<144 511 144 511> 332 72<144 486 144 486> 619 73<144 502 144 144>
VStem: 69 75<72 332 404 619>
LayerCount: 2
Fore
SplineSet
511 0 m 1
 69 0 l 1
 69 692 l 1
 502 692 l 1
 502 619 l 1
 144 619 l 1
 144 404 l 1
 486 404 l 1
 486 332 l 1
 144 332 l 1
 144 72 l 1
 511 72 l 1
 511 0 l 1
EndSplineSet
Position2: "'cpsp' Capital Spacing in Latin lookup 0 subtable" dx=5 dy=0 dh=10 dv=0
EndChar

StartChar: F
Encoding: 70 70 39
Width: 479
GlyphClass: 2
Flags: MW
HStem: 0 21G<69 145 69 69> 333 73<145 432 145 432> 619 73<145 463 145 145>
VStem: 69 76<0 333 406 619>
LayerCount: 2
Fore
SplineSet
463 619 m 1
 145 619 l 1
 145 406 l 1
 432 406 l 1
 432 333 l 1
 145 333 l 1
 145 0 l 1
 69 0 l 1
 69 692 l 1
 463 692 l 1
 463 619 l 1
EndSplineSet
Position2: "'cpsp' Capital Spacing in Latin lookup 0 subtable" dx=5 dy=0 dh=10 dv=0
EndChar

StartChar: G
Encoding: 71 71 40
Width: 684
GlyphClass: 2
Flags: MW
HStem: -14 68<293 422 293 428> 287 70<402 564 402 637> 636 68<288.5 425 265.5 439>
VStem: 42 74<258.5 344 258.5 448> 564 73<89 287 287 287>
LayerCount: 2
Fore
SplineSet
637 62 m 1
 565 11 474 -14 382 -14 c 0
 150 -14 42 136 42 344 c 0
 42 552 148 704 383 704 c 0
 467 704 553 681 620 640 c 1
 620 547 l 1
 549 609 490 636 388 636 c 0
 189 636 120 515 116 344 c 0
 116 173 195 54 391 54 c 0
 453 54 514 68 564 89 c 1
 564 287 l 1
 402 287 l 1
 402 357 l 1
 637 357 l 1
 637 62 l 1
EndSplineSet
Position2: "'cpsp' Capital Spacing in Latin lookup 0 subtable" dx=5 dy=0 dh=10 dv=0
EndChar

StartChar: H
Encoding: 72 72 41
Width: 654
GlyphClass: 2
Flags: MW
HStem: 0 21G<69 144 69 69 509 585 509 509> 332 72<144 509 144 509> 672 20G<69 144 144 144 509 585 585 585>
VStem: 69 75<0 332 0 404 404 692> 509 76<0 332 332 332 404 692>
LayerCount: 2
Fore
SplineSet
585 0 m 1
 509 0 l 1
 509 332 l 1
 144 332 l 1
 144 0 l 1
 69 0 l 1
 69 692 l 1
 144 692 l 1
 144 404 l 1
 509 404 l 1
 509 692 l 1
 585 692 l 1
 585 0 l 1
EndSplineSet
Position2: "'cpsp' Capital Spacing in Latin lookup 0 subtable" dx=5 dy=0 dh=10 dv=0
EndChar

StartChar: I
Encoding: 73 73 42
Width: 213
GlyphClass: 2
Flags: MW
HStem: 0 21G<69 144 69 69> 672 20G<69 144 144 144>
VStem: 69 75<0 692>
LayerCount: 2
Fore
SplineSet
144 0 m 1
 69 0 l 1
 69 692 l 1
 144 692 l 1
 144 0 l 1
EndSplineSet
Position2: "'cpsp' Capital Spacing in Latin lookup 0 subtable" dx=5 dy=0 dh=10 dv=0
EndChar

StartChar: J
Encoding: 74 74 43
Width: 223
GlyphClass: 2
Flags: MW
HStem: -189 70<-76 -53 -53 -46 -76 -53> 672 20G<80 154 154 154>
VStem: 80 74<46 692>
LayerCount: 2
Fore
SplineSet
154 46 m 2
 154 -37 135 -98 105 -135 c 0
 74 -172 24 -189 -46 -189 c 2
 -76 -189 l 1
 -76 -119 l 1
 -53 -119 l 2
 -5 -119 34 -107 53 -84 c 0
 71 -60 80 -16 80 46 c 2
 80 692 l 1
 154 692 l 1
 154 46 l 2
EndSplineSet
Position2: "'cpsp' Capital Spacing in Latin lookup 0 subtable" dx=5 dy=0 dh=10 dv=0
EndChar

StartChar: K
Encoding: 75 75 44
Width: 615
GlyphClass: 2
Flags: MW
HStem: 0 21G<69 145 69 69 502 616 502 502> 672 20G<69 145 145 145 476 592 592 592>
VStem: 69 76<0 338 0 395 395 692>
LayerCount: 2
Fore
SplineSet
616 0 m 1
 502 0 l 1
 145 338 l 1
 145 0 l 1
 69 0 l 1
 69 692 l 1
 145 692 l 1
 145 395 l 1
 476 692 l 1
 592 692 l 1
 234 371 l 1
 616 0 l 1
EndSplineSet
Position2: "'cpsp' Capital Spacing in Latin lookup 0 subtable" dx=5 dy=0 dh=10 dv=0
EndChar

StartChar: L
Encoding: 76 76 45
Width: 502
GlyphClass: 2
Flags: MW
HStem: 0 72<145 497 145 497> 672 20G<69 145 145 145>
VStem: 69 76<72 692 72 692 72 692>
LayerCount: 2
Fore
SplineSet
497 0 m 1
 69 0 l 1
 69 692 l 1
 145 692 l 1
 145 72 l 1
 497 72 l 1
 497 0 l 1
EndSplineSet
Position2: "'cpsp' Capital Spacing in Latin lookup 0 subtable" dx=5 dy=0 dh=10 dv=0
EndChar

StartChar: M
Encoding: 77 77 46
Width: 761
GlyphClass: 2
Flags: MW
HStem: 0 21G<69 144 69 69 617 692 617 617> 672 20G<69 150 150 150 611 692 692 692>
VStem: 69 75<0 554 0 692> 617 75<0 554 554 554>
LayerCount: 2
Fore
SplineSet
692 0 m 1
 617 0 l 1
 617 554 l 1
 383 135 l 1
 144 554 l 1
 144 0 l 1
 69 0 l 1
 69 692 l 1
 150 692 l 1
 383 282 l 1
 611 692 l 1
 692 692 l 1
 692 0 l 1
EndSplineSet
Position2: "'cpsp' Capital Spacing in Latin lookup 0 subtable" dx=5 dy=0 dh=10 dv=0
EndChar

StartChar: N
Encoding: 78 78 47
Width: 651
GlyphClass: 2
Flags: MW
HStem: 0 21G<69 143 69 69 501 582 501 501> 672 20G<69 140 140 140 507 582 582 582>
VStem: 69 74<0 557 0 692> 507 75<134 692>
LayerCount: 2
Fore
SplineSet
582 0 m 1
 501 0 l 1
 143 557 l 1
 143 0 l 1
 69 0 l 1
 69 692 l 1
 140 692 l 1
 507 134 l 1
 507 692 l 1
 582 692 l 1
 582 0 l 1
EndSplineSet
Position2: "'cpsp' Capital Spacing in Latin lookup 0 subtable" dx=5 dy=0 dh=10 dv=0
EndChar

StartChar: O
Encoding: 79 79 48
Width: 715
GlyphClass: 2
Flags: MW
HStem: -14 67<268 442.5 268 465> 636 68<267 444>
VStem: 41 74<275 415 275 436> 597 74<273.5 416>
LayerCount: 2
Fore
SplineSet
597 344 m 0
 597 488 533 636 355 636 c 0
 179 636 115 486 115 344 c 0
 115 206 181 53 355 53 c 0
 530 53 597 203 597 344 c 0
671 344 m 0
 671 154 575 -14 355 -14 c 0
 138 -14 41 158 41 344 c 0
 41 528 137 704 355 704 c 0
 576 704 671 533 671 344 c 0
EndSplineSet
Position2: "'cpsp' Capital Spacing in Latin lookup 0 subtable" dx=5 dy=0 dh=10 dv=0
EndChar

StartChar: P
Encoding: 80 80 49
Width: 534
GlyphClass: 2
Flags: MW
HStem: 0 21G<69 144 69 69> 280 71<144 273 144 276> 623 69<144 276 144 144>
VStem: 69 75<0 280 351 623> 429 75<486 532>
LayerCount: 2
Fore
SplineSet
429 486 m 0
 429 578 370 621 276 623 c 2
 144 623 l 1
 144 351 l 1
 276 351 l 2
 374 351 427 400 429 486 c 0
504 485 m 0
 504 344 419 280 273 280 c 2
 144 280 l 1
 144 0 l 1
 69 0 l 1
 69 692 l 1
 276 692 l 2
 421 692 504 624 504 485 c 0
EndSplineSet
Position2: "'cpsp' Capital Spacing in Latin lookup 0 subtable" dx=5 dy=0 dh=10 dv=0
EndChar

StartChar: Q
Encoding: 81 81 50
Width: 715
GlyphClass: 2
Flags: MW
HStem: -11 66<269 364.5> 636 68<267 444>
VStem: 41 74<277 415.5 277 436.5> 597 74<276 416.5>
LayerCount: 2
Fore
SplineSet
597 345 m 0
 597 488 533 636 355 636 c 0
 179 636 115 486 115 345 c 0
 115 209 183 55 355 55 c 0
 528 55 597 205 597 345 c 0
632 -200 m 1
 564 -200 413 -62 400 -10 c 1
 367 -10 373 -11 356 -11 c 0
 138 -11 41 158 41 345 c 0
 41 528 137 704 355 704 c 0
 576 704 671 533 671 345 c 0
 671 207 631 75 487 10 c 1
 487 10 l 1
 487 -27 643 -124 677 -124 c 1
 632 -200 l 1
EndSplineSet
Position2: "'cpsp' Capital Spacing in Latin lookup 0 subtable" dx=5 dy=0 dh=10 dv=0
EndChar

StartChar: R
Encoding: 82 82 51
Width: 567
GlyphClass: 2
Flags: MW
HStem: 0 21G<69 144 69 69 482 557 482 482> 295 70<144 234> 623 69<144 234 144 144>
VStem: 69 75<0 295 365 623> 386 74<455 541.5> 482 75<0 0>
LayerCount: 2
Fore
SplineSet
386 496 m 0
 386 587 325 621 234 623 c 2
 144 623 l 1
 144 365 l 1
 234 365 l 2
 328 365 386 408 386 496 c 0
557 0 m 1
 482 0 l 1
 464 72 284 294 198 294 c 2
 144 295 l 1
 144 0 l 1
 69 0 l 1
 69 692 l 1
 235 692 l 2
 375 692 460 634 460 496 c 0
 460 414 424 345 309 315 c 1
 404 267 508 118 557 0 c 1
EndSplineSet
Position2: "'cpsp' Capital Spacing in Latin lookup 0 subtable" dx=5 dy=0 dh=10 dv=0
EndChar

StartChar: S
Encoding: 83 83 52
Width: 444
GlyphClass: 2
Flags: MW
HStem: -14 67<180 234.5 171 265> 636 68<204.5 245.5 170 267>
VStem: 42 71<475 515 475 576> 336 75<134 224.5>
LayerCount: 2
Fore
SplineSet
411 188 m 0
 411 37 321 -14 209 -14 c 0
 151 -14 94 8 41 29 c 1
 41 120 l 1
 90 80 140 53 202 53 c 0
 267 53 336 87 336 181 c 0
 336 268 294 292 236 312 c 1
 196 322 l 2
 101 347 42 387 42 508 c 0
 42 644 118 704 222 704 c 0
 269 704 333 690 373 668 c 1
 373 586 l 1
 324 618 297 636 237 636 c 0
 172 636 115 607 113 515 c 0
 113 435 157 417 211 402 c 2
 253 392 l 2
 347 366 411 312 411 188 c 0
EndSplineSet
Position2: "'cpsp' Capital Spacing in Latin lookup 0 subtable" dx=5 dy=0 dh=10 dv=0
EndChar

StartChar: T
Encoding: 84 84 53
Width: 604
GlyphClass: 2
Flags: MW
HStem: 0 21G<265 340 265 265> 619 73<10 265 10 594 340 594 340 340>
VStem: 265 75<0 619 0 619>
LayerCount: 2
Fore
SplineSet
594 619 m 1
 340 619 l 1
 340 0 l 1
 265 0 l 1
 265 619 l 1
 10 619 l 1
 10 692 l 1
 594 692 l 1
 594 619 l 1
EndSplineSet
Position2: "'cpsp' Capital Spacing in Latin lookup 0 subtable" dx=5 dy=0 dh=10 dv=0
EndChar

StartChar: U
Encoding: 85 85 54
Width: 646
GlyphClass: 2
Flags: MW
HStem: -14 67<248.5 400.5 248.5 417> 672 20G<63 138 138 138 509 583 583 583>
VStem: 63 75<258 270 270 692> 509 74<270 692>
LayerCount: 2
Fore
SplineSet
583 258 m 2
 583 94 509 -14 325 -14 c 0
 142 -14 63 91 63 258 c 2
 63 692 l 1
 138 692 l 1
 138 270 l 2
 138 139 172 53 325 53 c 0
 476 53 509 142 509 270 c 2
 509 692 l 1
 583 692 l 1
 583 258 l 2
EndSplineSet
Position2: "'cpsp' Capital Spacing in Latin lookup 0 subtable" dx=5 dy=0 dh=10 dv=0
EndChar

StartChar: V
Encoding: 86 86 55
Width: 657
GlyphClass: 2
Flags: MW
HStem: -14 21G<330 330> 672 20G<10 95 95 95 560 647 647 647>
LayerCount: 2
Fore
SplineSet
647 692 m 1
 330 -14 l 1
 10 692 l 1
 95 692 l 1
 330 180 l 1
 560 692 l 1
 647 692 l 1
EndSplineSet
Position2: "'cpsp' Capital Spacing in Latin lookup 0 subtable" dx=5 dy=0 dh=10 dv=0
EndChar

StartChar: W
Encoding: 87 87 56
Width: 923
GlyphClass: 2
Flags: MW
HStem: -14 21G<254 254 664 664> 672 20G<21 97 97 97 820 903 903 903>
LayerCount: 2
Fore
SplineSet
903 692 m 1
 664 -14 l 1
 460 510 l 1
 254 -14 l 1
 21 692 l 1
 97 692 l 1
 253 220 l 1
 460 708 l 1
 661 220 l 1
 820 692 l 1
 903 692 l 1
EndSplineSet
Position2: "'cpsp' Capital Spacing in Latin lookup 0 subtable" dx=5 dy=0 dh=10 dv=0
EndChar

StartChar: X
Encoding: 88 88 57
Width: 611
GlyphClass: 2
Flags: MW
HStem: 0 21G<5 95 5 5 511 601 511 511> 672 20G<38 128 128 128 497 587 587 587>
LayerCount: 2
Fore
SplineSet
601 0 m 1
 511 0 l 1
 306 300 l 1
 95 0 l 1
 5 0 l 1
 263 371 l 1
 38 692 l 1
 128 692 l 1
 312 430 l 1
 497 692 l 1
 587 692 l 1
 357 360 l 1
 601 0 l 1
EndSplineSet
Position2: "'cpsp' Capital Spacing in Latin lookup 0 subtable" dx=5 dy=0 dh=10 dv=0
EndChar

StartChar: Y
Encoding: 89 89 58
Width: 579
GlyphClass: 2
Flags: MW
HStem: 0 21G<252 327 252 252> 672 20G<0 90 90 90 490 580 580 580>
VStem: 252 75<0 330 0 330>
LayerCount: 2
Fore
SplineSet
580 692 m 1
 327 330 l 1
 327 0 l 1
 252 0 l 1
 252 330 l 1
 0 692 l 1
 90 692 l 1
 290 401 l 1
 490 692 l 1
 580 692 l 1
EndSplineSet
Position2: "'cpsp' Capital Spacing in Latin lookup 0 subtable" dx=5 dy=0 dh=10 dv=0
EndChar

StartChar: Z
Encoding: 90 90 59
Width: 616
GlyphClass: 2
Flags: MW
HStem: 0 72<128 595 128 595> 618 74<35 478 35 583>
LayerCount: 2
Fore
SplineSet
595 0 m 1
 25 0 l 1
 25 67 l 1
 478 618 l 1
 35 618 l 1
 35 692 l 1
 583 692 l 1
 582 626 l 1
 128 72 l 1
 595 72 l 1
 595 0 l 1
EndSplineSet
Position2: "'cpsp' Capital Spacing in Latin lookup 0 subtable" dx=5 dy=0 dh=10 dv=0
EndChar

StartChar: bracketleft
Encoding: 91 91 60
Width: 265
GlyphClass: 2
Flags: MW
HStem: -125 58<140 248 140 248> 661 60<140 248 140 140>
VStem: 69 71<-67 661 -67 721 -67 721> 69 179<-125 -67 661 721>
LayerCount: 2
Fore
SplineSet
248 -125 m 1xd0
 69 -125 l 1
 69 721 l 1
 248 721 l 1
 248 661 l 1xd0
 140 661 l 1
 140 -67 l 1xe0
 248 -67 l 1
 248 -125 l 1xd0
EndSplineSet
EndChar

StartChar: backslash
Encoding: 92 92 61
Width: 316
GlyphClass: 2
Flags: MW
HStem: 672 20G<11 73 73 73>
VStem: 11 293
LayerCount: 2
Fore
SplineSet
304 -88 m 1
 241 -88 l 1
 11 692 l 1
 73 692 l 1
 304 -88 l 1
EndSplineSet
EndChar

StartChar: bracketright
Encoding: 93 93 62
Width: 265
GlyphClass: 2
Flags: MW
HStem: -125 58<17 125 17 196 17 125> 661 60<17 125 17 196>
VStem: 17 179<-125 -67 -67 -67 661 721> 125 71<-67 661 661 661>
LayerCount: 2
Fore
SplineSet
196 -125 m 1xe0
 17 -125 l 1
 17 -67 l 1xe0
 125 -67 l 1
 125 661 l 1xd0
 17 661 l 1
 17 721 l 1
 196 721 l 1
 196 -125 l 1xe0
EndSplineSet
EndChar

StartChar: asciicircum
Encoding: 94 94 63
Width: 603
GlyphClass: 2
Flags: MW
HStem: 433 259<18 343 259 585>
LayerCount: 2
Fore
SplineSet
585 433 m 1
 496 434 l 1
 301 615 l 1
 106 434 l 1
 18 433 l 1
 259 692 l 1
 343 692 l 1
 585 433 l 1
EndSplineSet
EndChar

StartChar: underscore
Encoding: 95 95 64
Width: 450
GlyphClass: 2
Flags: MW
HStem: -224 67<-10 452 -10 452>
LayerCount: 2
Fore
SplineSet
452 -224 m 1
 -10 -224 l 1
 -10 -157 l 1
 452 -157 l 1
 452 -224 l 1
EndSplineSet
EndChar

StartChar: grave
Encoding: 96 96 65
Width: 280
GlyphClass: 2
Flags: MW
HStem: 508 152<35 249 35 183>
VStem: 35 214<508 660>
LayerCount: 2
Fore
SplineSet
249 508 m 1
 183 508 l 1
 35 660 l 1
 122 660 l 1
 249 508 l 1
EndSplineSet
EndChar

StartChar: a
Encoding: 97 97 66
Width: 500
GlyphClass: 2
Flags: MW
HStem: -12 63<182.5 210 182.5 221> 230 55<225 257 189 273> 400 62<200.5 256.5>
VStem: 42 68<132 137 107 190.5> 346 69<37.5 83.5 178 186 186 186 255 284 284 284>
LayerCount: 2
Fore
SplineSet
346 178 m 2
 346 186 l 1
 336 208 294 230 252 230 c 0
 198 230 112 218 110 137 c 0
 110 77 155 51 210 51 c 0
 286 52 346 86 346 178 c 2
472 68 m 1
 470 28 444 -8 400 -12 c 1
 368 -10 346 16 346 59 c 1
 311 14 253 -12 189 -12 c 0
 97 -12 44 40 42 132 c 0
 42 249 136 285 242 285 c 0
 272 285 316 274 346 255 c 1
 346 284 l 2
 344 372 295 400 218 400 c 0
 156 400 114 382 73 342 c 1
 73 416 l 1
 112 444 176 462 225 462 c 0
 360 462 415 396 415 285 c 2
 415 86 l 2
 415 85 415 84 415 83 c 0
 415 65 425 54 438 51 c 2
 441 51 l 2
 452 51 461 55 472 68 c 1
EndSplineSet
Substitution2: "Single Substitution lookup 6 subtable" ordfeminine
Substitution2: "Single Substitution lookup 4 subtable" ordfeminine
EndChar

StartChar: b
Encoding: 98 98 67
Width: 519
GlyphClass: 2
Flags: MW
HStem: -12 64<213 234 213 315.5> 398 64<234 287.5> 672 20G<69 144 144 144>
VStem: 69 75<69 380 69 449 449 692> 396 75<225 277.5>
LayerCount: 2
Fore
SplineSet
144 380 m 1
 144 69 l 1
 169 58 192 52 234 52 c 0
 343 54 396 117 396 225 c 0
 396 330 341 398 234 398 c 0
 193 396 170 391 144 380 c 1
69 692 m 1
 144 692 l 1
 144 449 l 1
 173 457 204 462 238 462 c 0
 385 462 471 369 471 225 c 0
 469 84 388 -12 243 -12 c 0
 183 -12 130 -4 69 25 c 1
 69 692 l 1
EndSplineSet
EndChar

StartChar: c
Encoding: 99 99 68
Width: 442
GlyphClass: 2
Flags: MW
HStem: -12 64<283 299.5> 398 64<229.5 283>
VStem: 46 75<225 277.5 171 297>
LayerCount: 2
Fore
SplineSet
406 16 m 1
 367 2 325 -12 274 -12 c 0
 129 -12 48 84 46 225 c 0
 46 369 132 462 279 462 c 0
 331 462 365 449 406 435 c 1
 406 360 l 1
 355 385 344 395 283 398 c 0
 176 398 121 330 121 225 c 0
 121 117 174 54 283 52 c 0
 346 52 357 65 406 90 c 1
 406 16 l 1
EndSplineSet
EndChar

StartChar: d
Encoding: 100 100 69
Width: 516
GlyphClass: 2
Flags: MW
HStem: -12 64<283 304 283 304> 398 64<229.5 283> 672 20G<373 448 448 448>
VStem: 46 75<225 277.5 171 297> 373 75<69 380 380 380 449 692 25 692>
LayerCount: 2
Fore
SplineSet
373 380 m 1
 347 391 324 396 283 398 c 0
 176 398 121 330 121 225 c 0
 121 117 174 54 283 52 c 0
 325 52 348 58 373 69 c 1
 373 380 l 1
448 692 m 1
 448 25 l 1
 387 -4 334 -12 274 -12 c 0
 129 -12 48 84 46 225 c 0
 46 369 132 462 279 462 c 0
 313 462 344 457 373 449 c 1
 373 692 l 1
 448 692 l 1
EndSplineSet
EndChar

StartChar: e
Encoding: 101 101 70
Width: 496
GlyphClass: 2
Flags: MW
HStem: -12 67<225.5 298> 226 61<126 383 126 456 123 383> 398 64<216 254 187 293>
VStem: 46 77<164.5 218 218 226 164.5 283.5> 383 73
LayerCount: 2
Fore
SplineSet
383 287 m 1
 383 349 332 398 254 398 c 0
 178 398 135 347 126 287 c 1
 383 287 l 1
456 226 m 1
 123 226 l 1
 123 218 l 2
 123 111 179 55 272 55 c 0
 358 55 406 79 456 123 c 1
 456 48 l 1
 415 8 329 -12 267 -12 c 0
 129 -12 46 85 46 221 c 0
 46 346 120 462 254 462 c 0
 403 459 456 364 456 233 c 2
 456 226 l 1
EndSplineSet
EndChar

StartChar: f
Encoding: 102 102 71
Width: 274
GlyphClass: 2
Flags: MW
HStem: 0 21G<100 175 100 100> 391 60<27 100 27 100 175 254> 628 64<210 274 225 274 225 274>
VStem: 100 75<0 391 0 391 451 513 513 513>
LayerCount: 2
Fore
SplineSet
274 628 m 1
 224 628 l 2
 196 628 175 608 175 521 c 2
 175 451 l 1
 254 451 l 1
 254 391 l 1
 175 391 l 1
 175 0 l 1
 100 0 l 1
 100 391 l 1
 27 391 l 1
 27 451 l 1
 100 451 l 1
 100 513 l 2
 103 644 154 691 225 692 c 2
 274 692 l 1
 274 628 l 1
EndSplineSet
EndChar

StartChar: g
Encoding: 103 103 72
Width: 453
GlyphClass: 2
Flags: MW
HStem: -240 62<169.5 254.5 169.5 275.5> 11 64<209 254.5> 132 68<218.5 252 198 268> 396 54<198 421> 396 64<230 238 230 252>
VStem: 6 74<-111.5 -57> 44 69<111.5 132 111.5 140> 69 59<274.5 296> 322 59<271 314 250.5 325> 355 85<-111.5 -56.5>
LayerCount: 2
Fore
SplineSet
225 396 m 0xe980
 171 396 128 352 128 298 c 0
 128 244 171 200 225 200 c 0
 279 200 322 244 322 298 c 0
 322 352 279 396 225 396 c 0xe980
213 75 m 0
 318 75 440 20 440 -84 c 0
 440 -165 338 -240 213 -240 c 0
 88 -240 6 -164 6 -83 c 0xf440
 6 -31 40 18 98 47 c 1
 66 65 44 88 44 119 c 0xf2
 44 161 85 184 112 185 c 1
 84 213 69 253 69 296 c 0
 72 386 144 459 230 460 c 0xe9
 246 460 274 456 294 450 c 1
 421 450 l 1
 421 394 l 1
 348 394 l 1
 368 366 381 332 381 296 c 0
 381 205 311 132 225 132 c 0
 212 132 164 136 148 150 c 1
 129 150 113 144 113 120 c 0xf280
 113 103 140 74 188 74 c 0
 197 75 205 75 213 75 c 0
212 11 m 0
 127 11 80 -29 80 -84 c 0
 80 -139 127 -178 212 -178 c 0
 297 -178 355 -139 355 -84 c 0
 355 -29 297 11 212 11 c 0
EndSplineSet
EndChar

StartChar: h
Encoding: 104 104 73
Width: 521
GlyphClass: 2
Flags: MW
HStem: 0 21G<69 143 69 69 385 458 385 385> 397 65 672 20G<69 143 143 143>
VStem: 69 74<0 255 389 692> 385 73<0 270 270 274>
LayerCount: 2
Fore
SplineSet
458 0 m 1
 385 0 l 1
 385 270 l 2
 385 350 359 395 279 397 c 0
 203 396 145 342 143 255 c 2
 143 0 l 1
 69 0 l 1
 69 692 l 1
 143 692 l 1
 143 389 l 1
 177 444 235 462 297 462 c 0
 410 462 458 379 458 274 c 2
 458 0 l 1
EndSplineSet
EndChar

StartChar: i
Encoding: 105 105 74
Width: 213
GlyphClass: 2
Flags: MW
HStem: 0 21G<69 144 69 69> 431 20G<69 144 144 144> 598 94<95 119>
VStem: 63 88<633 657> 69 75<0 451>
LayerCount: 2
Fore
SplineSet
107 692 m 0xf0
 131 692 151 669 151 645 c 0
 151 621 131 598 107 598 c 0
 83 598 63 621 63 645 c 0
 63 669 83 692 107 692 c 0xf0
144 0 m 1xe8
 69 0 l 1
 69 451 l 1
 144 451 l 1
 144 0 l 1xe8
EndSplineSet
EndChar

StartChar: j
Encoding: 106 106 75
Width: 215
GlyphClass: 2
Flags: MW
HStem: -240 21G<59 59> 431 20G<69 146 146 146> 598 94<95 119>
VStem: 69 77<-84 451>
LayerCount: 2
Fore
SplineSet
107 692 m 0
 131 692 151 669 151 645 c 0
 151 621 131 598 107 598 c 0
 83 598 63 621 63 645 c 0
 63 669 83 692 107 692 c 0
146 -84 m 2
 146 -142 133 -183 109 -208 c 0
 96 -222 81 -233 59 -240 c 1
 28 -184 l 1
 36 -181 50 -170 55 -164 c 0
 64 -152 69 -125 69 -84 c 2
 69 451 l 1
 146 451 l 1
 146 -84 l 2
EndSplineSet
EndChar

StartChar: k
Encoding: 107 107 76
Width: 500
GlyphClass: 2
Flags: MW
HStem: 0 21G<69 145 69 69 385 489 385 385> 431 20G<377 479 479 479> 672 20G<69 145 145 145>
VStem: 69 76<0 237 0 247 247 692>
LayerCount: 2
Fore
SplineSet
489 0 m 1
 385 0 l 1
 145 237 l 1
 145 0 l 1
 69 0 l 1
 69 692 l 1
 145 692 l 1
 145 247 l 1
 377 451 l 1
 479 451 l 1
 249 242 l 1
 489 0 l 1
EndSplineSet
EndChar

StartChar: l
Encoding: 108 108 77
Width: 200
GlyphClass: 2
Flags: MW
HStem: 0 21G<58 132 58 58> 672 20G<58 132 132 132>
VStem: 58 74<0 692 0 692>
LayerCount: 2
Fore
SplineSet
132 692 m 1
 132 0 l 1
 58 0 l 1
 58 692 l 1
 132 692 l 1
EndSplineSet
EndChar

StartChar: m
Encoding: 109 109 78
Width: 804
GlyphClass: 2
Flags: MW
HStem: 0 21G<69 143 69 69 369 440 369 369 670 740 670 670> 396 66<263.5 267 267 271 558.5 610> 432 20G<69 143 143 143>
VStem: 69 74<0 255 391 452> 369 71<0 255 0 270 0 309.5> 670 70<0 270 270 272>
LayerCount: 2
Fore
SplineSet
740 0 m 1xdc
 670 0 l 1
 670 270 l 2
 670 345 648 396 572 396 c 0
 484 396 442 340 440 255 c 2
 440 0 l 1
 369 0 l 1
 369 270 l 2
 369 349 347 396 271 396 c 2
 267 396 l 2xdc
 195 396 145 336 143 255 c 2
 143 0 l 1
 69 0 l 1
 69 452 l 1
 143 452 l 1xbc
 143 391 l 1
 176 431 234 462 293 462 c 0
 358 462 407 424 431 371 c 1
 467 426 524 462 593 462 c 0
 703 462 740 370 740 272 c 2
 740 0 l 1xdc
EndSplineSet
EndChar

StartChar: n
Encoding: 110 110 79
Width: 521
GlyphClass: 2
Flags: MW
HStem: 0 21G<69 143 69 69 385 458 385 385> 396 66<267.5 318.5> 432 20G<69 143 143 143>
VStem: 69 74<0 255 390 452> 385 73<0 270 270 272>
LayerCount: 2
Fore
SplineSet
458 0 m 1xd8
 385 0 l 1
 385 270 l 2
 385 350 358 396 279 396 c 0xd8
 199 396 145 341 143 255 c 2
 143 0 l 1
 69 0 l 1
 69 452 l 1
 143 452 l 1xb8
 143 390 l 1
 179 440 238 462 297 462 c 0
 412 462 458 379 458 272 c 2
 458 0 l 1xd8
EndSplineSet
EndChar

StartChar: o
Encoding: 111 111 80
Width: 519
GlyphClass: 2
Flags: MW
HStem: -12 68<258 258> 395 67<258 258>
VStem: 45 76 397 74<225 225>
LayerCount: 2
Fore
SplineSet
397 225 m 0
 396 312 346 394 258 395 c 0
 165 394 121 318 121 228 c 0
 121 159 146 58 258 56 c 0
 342 56 396 136 397 225 c 0
471 225 m 0
 470 98 394 -10 258 -12 c 0
 126 -10 46 102 45 225 c 0
 46 358 122 462 258 462 c 0
 409 462 471 340 471 225 c 0
EndSplineSet
Substitution2: "Single Substitution lookup 7 subtable" ordmasculine
Substitution2: "Single Substitution lookup 5 subtable" ordmasculine
EndChar

StartChar: p
Encoding: 112 112 81
Width: 516
GlyphClass: 2
Flags: MW
HStem: -241 21G<66 66 66 141> -11 64<231 284.5 231 308.5> 399 64<210 231>
VStem: 66 75<-241 2 -241 71 71 382> 393 75<173.5 226 154 280>
LayerCount: 2
Fore
SplineSet
141 71 m 1
 167 60 190 55 231 53 c 0
 338 53 393 121 393 226 c 0
 393 334 340 397 231 399 c 0
 189 399 166 393 141 382 c 1
 141 71 l 1
66 -241 m 1
 66 426 l 1
 127 455 180 463 240 463 c 0
 385 463 466 367 468 226 c 0
 468 82 382 -11 235 -11 c 0
 201 -11 170 -6 141 2 c 1
 141 -241 l 1
 66 -241 l 1
EndSplineSet
EndChar

StartChar: q
Encoding: 113 113 82
Width: 515
GlyphClass: 2
Flags: MW
HStem: -241 21G<372 447 372 372> -11 64<228.5 282 228.5 295> 399 64<282 303>
VStem: 45 75<173.5 226> 372 75<-241 2 2 2 71 382 382 382>
LayerCount: 2
Fore
SplineSet
372 71 m 1
 372 382 l 1
 347 393 324 399 282 399 c 0
 173 397 120 334 120 226 c 0
 120 121 175 53 282 53 c 0
 323 55 346 60 372 71 c 1
447 -241 m 1
 372 -241 l 1
 372 2 l 1
 343 -6 312 -11 278 -11 c 0
 131 -11 45 82 45 226 c 0
 47 367 128 463 273 463 c 0
 333 463 386 455 447 426 c 1
 447 -241 l 1
EndSplineSet
EndChar

StartChar: r
Encoding: 114 114 83
Width: 370
GlyphClass: 2
Flags: MW
HStem: 0 21G<69 144 69 69> 394 64<226 266.5 226 266.5>
VStem: 69 75<0 275 391 452>
LayerCount: 2
Fore
SplineSet
324 342 m 1
 322 343 l 1
 305 364 252 394 228 394 c 2
 226 394 l 1
 154 388 144 302 144 275 c 2
 144 0 l 1
 69 0 l 1
 69 452 l 1
 144 452 l 1
 144 391 l 1
 165 432 203 456 250 458 c 0
 283 458 328 440 356 410 c 1
 324 342 l 1
EndSplineSet
EndChar

StartChar: s
Encoding: 115 115 84
Width: 388
GlyphClass: 2
Flags: MW
HStem: -12 63<186 204.5 186 222.5> 399 63<186 207>
VStem: 49 67<328 333 308.5 378> 275 72<117 146>
LayerCount: 2
Fore
SplineSet
347 124 m 0
 347 19 261 -12 184 -12 c 0
 141 -12 79 4 43 16 c 1
 43 96 l 1
 100 66 118 54 186 51 c 0
 223 51 273 64 275 117 c 0
 275 175 226 182 186 194 c 2
 165 200 l 2
 95 217 51 244 49 328 c 0
 49 428 123 462 199 462 c 0
 246 462 285 453 325 437 c 1
 325 363 l 1
 274 390 269 396 207 399 c 0
 165 399 118 387 116 333 c 0
 116 284 165 273 198 265 c 2
 217 259 l 1
 290 241 347 215 347 124 c 0
EndSplineSet
Substitution2: "'hist' Historical Forms in Latin lookup 17 subtable" longs
EndChar

StartChar: t
Encoding: 116 116 85
Width: 345
GlyphClass: 2
Flags: MW
HStem: -14 64<207.5 243> 392 59<160 293 160 293>
VStem: 86 74<148 392>
LayerCount: 2
Fore
SplineSet
128 580 m 1
 160 580 l 1
 160 451 l 1
 293 451 l 1
 293 392 l 1
 160 392 l 1
 160 148 l 2
 160 81 172 50 243 50 c 0
 263 50 294 56 322 69 c 1
 322 5 l 1
 298 -6 265 -13 243 -14 c 0
 131 -14 86 35 86 148 c 2
 86 392 l 1
 33 392 l 1
 33 405 l 1
 128 580 l 1
EndSplineSet
EndChar

StartChar: u
Encoding: 117 117 86
Width: 524
GlyphClass: 2
Flags: MW
HStem: -12 66<204 256.5> 0 21G<378 455 378 378> 431 20G<64 137 137 137 378 455 455 455>
VStem: 64 73<178 180 180 451> 378 77<0 59 59 59 196 451>
LayerCount: 2
Fore
SplineSet
455 0 m 1x78
 378 0 l 1x78
 378 59 l 1
 345 20 286 -12 227 -12 c 0
 114 -12 64 72 64 178 c 2
 64 451 l 1
 137 451 l 1
 137 180 l 2
 137 103 164 54 244 54 c 0xb8
 335 54 378 111 378 196 c 2
 378 451 l 1
 455 451 l 1
 455 0 l 1x78
EndSplineSet
EndChar

StartChar: v
Encoding: 118 118 87
Width: 481
GlyphClass: 2
Flags: MW
HStem: -14 21G<241 241> 431 20G<21 90 90 90 392 461 461 461>
LayerCount: 2
Fore
SplineSet
461 451 m 1
 241 -14 l 1
 21 451 l 1
 90 451 l 1
 241 135 l 1
 392 451 l 1
 461 451 l 1
EndSplineSet
EndChar

StartChar: w
Encoding: 119 119 88
Width: 666
GlyphClass: 2
Flags: MW
HStem: -14 21G<188 188 476 476> 431 20G<30 94 94 94 573 637 637 637>
LayerCount: 2
Fore
SplineSet
637 451 m 1
 476 -14 l 1
 334 322 l 1
 188 -14 l 1
 30 451 l 1
 94 451 l 1
 200 145 l 1
 334 462 l 1
 468 145 l 1
 573 451 l 1
 637 451 l 1
EndSplineSet
EndChar

StartChar: x
Encoding: 120 120 89
Width: 473
GlyphClass: 2
Flags: MW
HStem: 0 21G<16 94 16 16 376 454 376 376> 431 20G<31 112 112 112 366 446 446 446>
LayerCount: 2
Fore
SplineSet
454 0 m 1
 376 0 l 1
 235 182 l 1
 94 0 l 1
 16 0 l 1
 200 237 l 1
 31 451 l 1
 112 451 l 1
 240 286 l 1
 366 451 l 1
 446 451 l 1
 275 233 l 1
 454 0 l 1
EndSplineSet
EndChar

StartChar: y
Encoding: 121 121 90
Width: 474
GlyphClass: 2
Flags: MW
HStem: -241 51<60 85> 431 20G<15 86 86 86 388 457 457 457>
LayerCount: 2
Fore
SplineSet
457 451 m 1
 186 -173 l 1
 162 -212 123 -239 85 -241 c 1
 60 -190 l 1
 80 -190 122 -166 135 -135 c 2
 212 47 l 1
 15 451 l 1
 86 451 l 1
 249 121 l 1
 388 451 l 1
 457 451 l 1
EndSplineSet
EndChar

StartChar: z
Encoding: 122 122 91
Width: 450
GlyphClass: 2
Flags: MW
HStem: 0 66<147 410 147 410> 385 66<46 296 46 410>
LayerCount: 2
Fore
SplineSet
410 0 m 1
 36 0 l 1
 36 29 l 1
 296 385 l 1
 46 385 l 1
 46 451 l 1
 410 451 l 1
 410 425 l 1
 147 66 l 1
 410 66 l 1
 410 0 l 1
EndSplineSet
EndChar

StartChar: braceleft
Encoding: 123 123 92
Width: 357
GlyphClass: 2
Flags: MW
HStem: -155 59<319 322 322 343> 254 59<6 27 6 27> 663 58<296 343 322 343 322 343>
VStem: 147 63<13 15 15 125 125 132 440 551>
LayerCount: 2
Fore
SplineSet
343 -155 m 1
 322 -155 l 2
 251 -155 205 -143 179 -120 c 0
 157 -98 147 -53 147 13 c 2
 147 125 l 2
 147 174 138 206 120 226 c 0
 103 245 71 254 27 254 c 2
 6 254 l 1
 6 313 l 1
 27 313 l 2
 71 313 103 323 120 342 c 0
 137 360 147 394 147 440 c 2
 147 553 l 2
 147 620 158 666 180 687 c 0
 205 709 251 720 322 721 c 2
 343 721 l 1
 343 663 l 1
 319 663 l 2
 273 663 244 657 231 641 c 0
 218 627 211 598 210 551 c 2
 210 435 l 2
 210 387 205 353 191 334 c 0
 180 314 162 298 122 283 c 1
 162 270 181 255 191 236 c 0
 205 214 210 179 210 132 c 2
 210 15 l 2
 210 -30 217 -59 231 -74 c 0
 244 -89 273 -95 319 -96 c 2
 343 -96 l 1
 343 -155 l 1
EndSplineSet
EndChar

StartChar: bar
Encoding: 124 124 93
Width: 210
GlyphClass: 2
Flags: MW
VStem: 69 72<-224 724>
LayerCount: 2
Fore
SplineSet
141 -224 m 1
 69 -224 l 1
 69 724 l 1
 141 724 l 1
 141 -224 l 1
EndSplineSet
EndChar

StartChar: braceright
Encoding: 125 125 94
Width: 355
GlyphClass: 2
Flags: MW
HStem: -155 59<14 35 14 38> 254 59<306.5 349 329 349> 663 58<14 35 35 38 14 35>
VStem: 146 63<15 125 435 440 440 551 551 553>
LayerCount: 2
Fore
SplineSet
349 254 m 1
 329 254 l 2
 284 254 253 246 235 226 c 0
 218 207 209 174 209 125 c 2
 209 13 l 2
 209 -53 197 -98 175 -120 c 0
 151 -143 105 -155 35 -155 c 2
 14 -155 l 1
 14 -96 l 1
 38 -96 l 2
 83 -96 112 -89 124 -75 c 0
 139 -60 146 -30 146 15 c 2
 146 132 l 2
 146 179 151 214 164 235 c 0
 175 255 194 270 236 283 c 1
 194 297 174 311 164 334 c 1
 150 353 146 387 146 435 c 2
 146 551 l 2
 146 597 139 627 124 640 c 0
 111 656 83 662 38 663 c 2
 14 663 l 1
 14 721 l 1
 35 721 l 2
 105 721 151 709 175 687 c 0
 198 666 209 620 209 553 c 2
 209 440 l 2
 209 395 218 360 235 341 c 0
 253 323 284 313 329 313 c 2
 349 313 l 1
 349 254 l 1
EndSplineSet
EndChar

StartChar: asciitilde
Encoding: 126 126 95
Width: 624
GlyphClass: 2
Flags: MW
HStem: 200 61<414.5 419> 257 61<190.5 194 194 197>
LayerCount: 2
Fore
SplineSet
570 262 m 1x80
 542 239 515 224 492 214 c 0
 467 206 444 201 419 200 c 0x80
 389 200 354 208 315 226 c 0
 314 226 260 257 197 257 c 2
 194 257 l 2
 169 257 144 253 120 241 c 0
 100 233 78 215 52 188 c 1
 52 257 l 1
 79 280 105 293 129 304 c 0
 153 313 177 318 204 318 c 0x40
 227 318 294 302 321 288 c 0
 364 271 401 261 428 261 c 0
 453 261 477 268 502 277 c 1
 519 289 541 303 570 329 c 1
 570 262 l 1x80
EndSplineSet
EndChar

StartChar: exclamdown
Encoding: 161 161 97
Width: 217
GlyphClass: 2
Flags: MW
HStem: 0 21G<65 150 65 65> 598 94<97 121>
VStem: 65 88<633 657>
LayerCount: 2
Fore
SplineSet
109 692 m 0
 133 692 153 669 153 645 c 0
 153 621 133 598 109 598 c 0
 85 598 65 621 65 645 c 0
 65 669 85 692 109 692 c 0
150 0 m 1
 65 0 l 1
 65 304 l 1
 75 466 l 1
 141 466 l 1
 150 304 l 1
 150 0 l 1
EndSplineSet
Position2: "'cpsp' Capital Spacing in Latin lookup 0 subtable" dx=5 dy=0 dh=10 dv=0
EndChar

StartChar: cent
Encoding: 162 162 98
Width: 433
GlyphClass: 2
Flags: MW
HStem: -11 64<251 251> 464 65<251 251>
VStem: 30 68<205.5 259 205.5 331.5> 251 32<-145 -13 -145 -11 -145 -11 53 464 464 464 529 663>
LayerCount: 2
Fore
SplineSet
251 53 m 1
 251 464 l 1
 136 444 100 366 98 259 c 0
 98 152 137 71 251 53 c 1
408 20 m 1
 378 6 325 -10 283 -13 c 1
 283 -145 l 1
 251 -145 l 1
 251 -11 l 1
 96 2 30 114 30 259 c 0
 30 404 97 512 251 529 c 1
 251 663 l 1
 283 663 l 1
 283 529 l 1
 330 525 375 514 408 498 c 1
 408 424 l 1
 363 454 348 458 283 468 c 1
 283 52 l 1
 331 54 373 70 408 92 c 1
 408 20 l 1
EndSplineSet
EndChar

StartChar: sterling
Encoding: 163 163 99
Width: 461
GlyphClass: 2
Flags: MW
HStem: 0 70<122 122 122 442> 298 59<36 105 36 122 202 204 204 229 229 369> 639 65<333 357.5 316 366>
LayerCount: 2
Fore
SplineSet
185 298 m 1
 122 70 l 1
 442 72 l 1
 442 0 l 1
 20 0 l 1
 105 298 l 1
 36 298 l 1
 36 357 l 1
 122 357 l 1
 200 632 l 1
 230 670 283 704 349 704 c 0
 366 704 385 701 406 696 c 0
 426 692 447 687 469 678 c 1
 469 601 l 1
 447 613 430 624 415 630 c 0
 395 636 375 639 357 639 c 0
 309 639 290 627 270 604 c 1
 202 357 l 1
 229 357 l 1
 369 357 l 1
 369 298 l 1
 204 298 l 1
 185 298 l 1
EndSplineSet
EndChar

StartChar: currency
Encoding: 164 164 100
Width: 599
GlyphClass: 2
Flags: MW
HStem: 99 50<282 320.5> 440 52<277 319.5 277 337.5>
VStem: 100 51<276 296 258 317.5> 448 50<271.5 319 271.5 334>
LayerCount: 2
Fore
SplineSet
448 296 m 0
 448 372 378 440 297 440 c 0
 216 440 153 371 151 296 c 0
 151 220 216 149 300 149 c 0
 383 149 448 222 448 296 c 0
566 86 m 1
 518 39 l 1
 419 138 l 1
 387 119 341 99 300 99 c 0
 264 99 203 120 177 137 c 1
 81 37 l 1
 34 86 l 1
 134 184 l 1
 117 217 100 256 100 296 c 0
 100 339 116 373 136 407 c 1
 35 506 l 1
 83 555 l 1
 180 456 l 1
 213 475 254 492 300 492 c 0
 339 492 389 473 420 457 c 1
 519 557 l 1
 566 507 l 1
 466 409 l 1
 485 369 498 342 498 296 c 0
 498 247 483 225 463 186 c 1
 566 86 l 1
EndSplineSet
EndChar

StartChar: yen
Encoding: 165 165 101
Width: 519
GlyphClass: 2
Flags: MW
HStem: 0 21G<222 299 222 222> 213 49<40 222 40 222 299 480 299 299> 367 50<40 158 40 183 40 158 361 480> 672 20G<18 88 88 88 430 501 501 501>
VStem: 222 77<0 213 0 213 0 262>
LayerCount: 2
Fore
SplineSet
501 692 m 1
 361 417 l 1
 480 417 l 1
 480 367 l 1
 334 367 l 1
 295 292 l 1
 295 262 l 1
 480 262 l 1
 480 213 l 1
 299 213 l 1
 299 0 l 1
 222 0 l 1
 222 213 l 1
 40 213 l 1
 40 262 l 1
 222 262 l 1
 221 292 l 1
 183 367 l 1
 40 367 l 1
 40 417 l 1
 158 417 l 1
 18 692 l 1
 88 692 l 1
 261 363 l 1
 430 692 l 1
 501 692 l 1
EndSplineSet
EndChar

StartChar: brokenbar
Encoding: 166 166 102
Width: 210
GlyphClass: 2
Flags: MW
VStem: 69 72<-162 185 317 663>
LayerCount: 2
Fore
SplineSet
141 -162 m 1
 69 -162 l 1
 69 185 l 1
 141 185 l 1
 141 -162 l 1
141 317 m 1
 69 317 l 1
 69 663 l 1
 141 663 l 1
 141 317 l 1
EndSplineSet
EndChar

StartChar: section
Encoding: 167 167 103
Width: 419
GlyphClass: 2
Flags: MW
HStem: -90 58<188 213 188 243> 646 58<200 225>
VStem: 32 53<310.5 349 310.5 366.5> 60 64<572 598 555.5 616.5> 294 66<18 50 2.5 67.5> 334 53<256.5 311>
LayerCount: 2
Fore
SplineSet
334 274 m 0xe4
 334 348 205 410 150 440 c 1
 119 417 88 393 85 349 c 0
 85 272 211 214 271 183 c 1
 297 206 334 231 334 274 c 0xe4
387 288 m 0
 387 225 357 190 305 155 c 1
 341 123 355 98 360 50 c 1
 360 -45 287 -90 199 -90 c 0
 156 -90 97 -77 63 -66 c 1
 63 4 l 1
 106 -18 133 -29 188 -32 c 0
 238 -32 294 -11 294 47 c 0
 294 88 223 142 178 163 c 1
 99 213 32 246 32 335 c 0xe8
 32 398 63 438 116 469 c 1
 79 497 63 521 60 572 c 0
 60 661 136 704 217 704 c 0
 261 704 309 693 345 679 c 1
 345 610 l 1
 306 628 276 643 225 646 c 0
 175 646 124 626 124 570 c 0xd0
 124 541 157 508 223 470 c 0
 229 466 233 463 238 460 c 0
 315 413 387 376 387 288 c 0
EndSplineSet
EndChar

StartChar: dieresis
Encoding: 168 168 104
Width: 371
GlyphClass: 2
Flags: MW
HStem: 536 96<87.5 112.5 252.5 277.5>
VStem: 55 90<570.5 597.5> 220 90<570.5 597.5>
LayerCount: 2
Fore
SplineSet
265 632 m 0
 290 632 310 611 310 584 c 0
 310 557 290 536 265 536 c 0
 240 536 220 557 220 584 c 0
 220 611 240 632 265 632 c 0
100 632 m 0
 125 632 145 611 145 584 c 0
 145 557 125 536 100 536 c 0
 75 536 55 557 55 584 c 0
 55 611 75 632 100 632 c 0
EndSplineSet
EndChar

StartChar: copyright
Encoding: 169 169 105
Width: 688
GlyphClass: 2
Flags: MW
HStem: 0 43<265.5 414.5 265 437.5> 116 49<319.5 373.5> 431 49<315.5 371 297 384> 556 42<277.5 343>
VStem: 38 41<233 376> 162 62<299 340.5 255.5 357.5> 607 41<225 367.5>
LayerCount: 2
Fore
SplineSet
466 139 m 1
 434 125 394 116 353 116 c 0
 238 116 164 183 162 299 c 0
 162 416 241 480 353 480 c 0
 389 480 438 471 466 459 c 1
 466 399 l 1
 430 423 410 431 358 431 c 0
 273 431 224 382 224 299 c 0
 224 212 276 165 363 165 c 0
 408 165 433 176 466 196 c 1
 466 139 l 1
607 299 m 0
 607 436 509 552 343 556 c 0
 212 556 79 455 79 300 c 0
 79 166 187 43 343 43 c 0
 486 43 607 151 607 299 c 0
648 299 m 0
 648 142 532 0 343 0 c 0
 188 0 38 112 38 299 c 0
 38 453 154 598 343 598 c 0
 531 598 648 454 648 299 c 0
EndSplineSet
EndChar

StartChar: ordfeminine
Encoding: 170 170 106
Width: 410
GlyphClass: 2
Flags: MW
HStem: 189 53<57 347 57 347> 281 50<164.5 184.5> 443 49<207 220 220 230 230 285> 534 57<72 72> 565 47<183.5 212.5>
VStem: 49 55<381 413.5 365.5 425> 285 60<288 327 327 327 433 443 443 443>
LayerCount: 2
Fore
SplineSet
285 433 m 2xe6
 285 443 l 1
 230 443 l 1
 220 443 l 2
 170 443 104 441 104 386 c 0
 104 345 145 331 184 331 c 0
 247 331 285 372 285 433 c 2xe6
347 189 m 1
 57 189 l 1
 57 242 l 1
 347 242 l 1
 347 189 l 1
345 288 m 1
 285 288 l 1
 285 327 l 1
 261 301 205 281 164 281 c 0
 101 281 51 314 49 381 c 0
 49 469 123 492 207 492 c 2
 285 492 l 1
 285 493 l 2
 285 550 241 565 184 565 c 0xee
 165 565 148 563 126 558 c 0
 111 553 94 546 72 534 c 1
 72 591 l 1xf6
 94 598 114 602 134 606 c 0
 154 610 174 612 193 612 c 0xee
 290 612 345 567 345 469 c 2
 345 288 l 1
EndSplineSet
EndChar

StartChar: guillemotleft
Encoding: 171 171 107
Width: 455
GlyphClass: 2
Flags: W
LayerCount: 2
Fore
SplineSet
219 57 m 1
 26 225 l 1
 26 257 l 1
 219 426 l 1
 219 346 l 1
 93 242 l 1
 219 137 l 1
 219 57 l 1
401 57 m 1
 208 225 l 1
 208 257 l 1
 401 426 l 1
 401 346 l 1
 275 242 l 1
 401 137 l 1
 401 57 l 1
EndSplineSet
EndChar

StartChar: logicalnot
Encoding: 172 172 108
Width: 630
GlyphClass: 2
Flags: MW
HStem: 276 71<32 493 32 561>
VStem: 493 68<115 276 276 276>
LayerCount: 2
Fore
SplineSet
561 115 m 1
 493 115 l 1
 493 276 l 1
 32 276 l 1
 32 347 l 1
 561 347 l 1
 561 115 l 1
EndSplineSet
EndChar

StartChar: uni00AD
Encoding: 173 173 109
Width: 366
GlyphClass: 2
Flags: MW
HStem: 193 66<69 297 69 297>
VStem: 69 228<193 259 193 259>
LayerCount: 2
Fore
SplineSet
297 193 m 1
 69 193 l 1
 69 259 l 1
 297 259 l 1
 297 193 l 1
EndSplineSet
EndChar

StartChar: registered
Encoding: 174 174 110
Width: 687
GlyphClass: 2
Flags: MW
HStem: 0 43<266 410.5 266 425.5> 278 43<279 309 279 332> 430 42<279 332 279 279> 556 42<277 343>
VStem: 38 47<232.5 377 232.5 389.5> 218 61<134 278 321 430> 418 58<351 399.5> 605 43<216 368.5>
LayerCount: 2
Fore
SplineSet
418 375 m 0
 418 424 378 429 332 430 c 2
 279 430 l 1
 279 321 l 1
 332 321 l 2
 376 321 418 326 418 375 c 0
513 134 m 1
 440 134 l 1
 389 220 l 2
 363 261 355 275 309 278 c 2
 279 278 l 1
 279 134 l 1
 218 134 l 1
 218 472 l 1
 335 472 l 2
 413 472 476 455 476 375 c 0
 476 327 444 300 403 287 c 1
 416 277 443 237 451 227 c 2
 513 134 l 1
605 300 m 0
 605 437 509 552 343 556 c 0
 211 556 85 454 85 300 c 0
 85 165 189 43 343 43 c 0
 478 43 605 131 605 300 c 0
648 299 m 0
 648 133 508 0 343 0 c 0
 153 0 38 144 38 299 c 0
 38 480 189 598 343 598 c 0
 496 598 648 481 648 299 c 0
EndSplineSet
EndChar

StartChar: macron
Encoding: 175 175 111
Width: 390
GlyphClass: 2
Flags: MW
HStem: 555 59<69 321 69 321>
VStem: 69 252<555 614 555 614>
LayerCount: 2
Fore
SplineSet
321 555 m 1
 69 555 l 1
 69 614 l 1
 321 614 l 1
 321 555 l 1
EndSplineSet
EndChar

StartChar: degree
Encoding: 176 176 112
Width: 328
GlyphClass: 2
Flags: MW
HStem: 388 49<145 179 145 193> 561 51<145 179>
VStem: 50 51<482 516 482 531> 223 51<482 516>
LayerCount: 2
Fore
SplineSet
162 561 m 0
 128 561 101 533 101 499 c 0
 101 465 128 437 162 437 c 0
 196 437 223 465 223 499 c 0
 223 533 196 561 162 561 c 0
162 612 m 0
 224 612 274 562 274 500 c 0
 274 438 224 388 162 388 c 0
 100 388 50 438 50 500 c 0
 50 562 100 612 162 612 c 0
EndSplineSet
EndChar

StartChar: plusminus
Encoding: 177 177 113
Width: 595
GlyphClass: 2
Flags: MW
HStem: 0 72<33 562 33 562> 291 72<33 264 33 264 331 562 33 331>
VStem: 264 67<136 291 136 291 363 517>
LayerCount: 2
Fore
SplineSet
562 0 m 1
 33 0 l 1
 33 72 l 1
 562 72 l 1
 562 0 l 1
562 291 m 1
 331 291 l 1
 331 136 l 1
 264 136 l 1
 264 291 l 1
 33 291 l 1
 33 363 l 1
 264 363 l 1
 264 517 l 1
 331 517 l 1
 331 363 l 1
 562 363 l 1
 562 291 l 1
EndSplineSet
EndChar

StartChar: two.superior
Encoding: 178 178 114
Width: 264
GlyphClass: 2
Flags: MW
HStem: 350 58<118 243 118 243> 650 56<101.5 130.5>
VStem: 181 62
LayerCount: 2
Fore
SplineSet
18 350 m 1
 26 359 135 504 141 512 c 0
 157 532 181 562 181 588 c 0
 181 627 150 650 111 650 c 0
 77 650 48 639 20 623 c 1
 20 663 l 1
 44 682 83 706 120 706 c 0
 187 706 238 674 238 614 c 0
 238 580 232 556 216 533 c 2
 118 408 l 1
 243 408 l 1
 243 350 l 1
 18 350 l 1
EndSplineSet
EndChar

StartChar: three.superior
Encoding: 179 179 115
Width: 262
GlyphClass: 2
Flags: MW
HStem: 339 57<80.5 114 70 135.5> 505 56<79 96 79 96> 650 56<92.5 115>
VStem: 166 58<605 622> 178 58<430 468 409.5 471>
LayerCount: 2
Fore
SplineSet
236 448 m 0xe8
 236 371 174 339 97 339 c 0
 64 339 46 343 22 365 c 1
 22 414 l 1
 45 403 52 396 88 396 c 0
 140 396 178 408 178 452 c 0xe8
 178 490 142 505 96 505 c 2
 79 505 l 1
 79 561 l 1
 96 561 l 2
 134 561 165 574 166 605 c 0
 166 639 135 650 95 650 c 0
 63 650 57 644 31 637 c 1
 31 683 l 1
 59 696 77 706 108 706 c 0
 169 706 224 678 224 616 c 0xf0
 224 579 194 550 143 536 c 1
 204 523 236 488 236 448 c 0xe8
EndSplineSet
EndChar

StartChar: acute
Encoding: 180 180 116
Width: 278
GlyphClass: 2
Flags: MW
HStem: 508 152<31 244 31 244>
VStem: 31 213<508 660>
LayerCount: 2
Fore
SplineSet
244 660 m 1
 97 508 l 1
 31 508 l 1
 156 660 l 1
 244 660 l 1
EndSplineSet
EndChar

StartChar: uni00B5
Encoding: 181 181 117
Width: 538
GlyphClass: 2
Flags: MW
HStem: -12 65<239 291> 431 20G<69 143 143 143 384 455 455 455>
VStem: 69 74<-172 43 133.5 171 171 451> 384 71<187 451>
LayerCount: 2
Fore
SplineSet
516 6 m 1
 503 -3 477 -12 455 -12 c 0
 419 -12 395 15 385 47 c 1
 360 16 318 -12 264 -12 c 0
 214 -12 166 13 143 43 c 1
 143 -172 l 1
 69 -172 l 1
 69 451 l 1
 143 451 l 1
 143 171 l 2
 143 96 180 53 258 53 c 0
 346 53 384 104 384 187 c 2
 384 451 l 1
 455 451 l 1
 455 104 l 2
 455 78 462 58 488 58 c 0
 506 58 500 58 516 74 c 1
 516 6 l 1
EndSplineSet
EndChar

StartChar: paragraph
Encoding: 182 182 118
Width: 478
GlyphClass: 2
Flags: MW
HStem: 549 52<269 351 269 269>
VStem: 25 244<406.5 456> 212 57<-80 260 260 260> 351 58<-80 549 549 549>
LayerCount: 2
Fore
SplineSet
409 -80 m 1xd0
 351 -80 l 1
 351 549 l 1
 269 549 l 1
 269 -80 l 1
 212 -80 l 1
 212 260 l 1xb0
 151 265 105 283 73 311 c 0
 41 342 25 382 25 431 c 0
 25 481 43 523 79 554 c 0
 114 585 162 601 222 601 c 2
 409 601 l 1
 409 -80 l 1xd0
EndSplineSet
EndChar

StartChar: periodcentered
Encoding: 183 183 119
Width: 210
GlyphClass: 2
Flags: MW
HStem: 240 94<90 114>
VStem: 58 88<275 299>
LayerCount: 2
Fore
SplineSet
102 334 m 0
 126 334 146 311 146 287 c 0
 146 263 126 240 102 240 c 0
 78 240 58 263 58 287 c 0
 58 311 78 334 102 334 c 0
EndSplineSet
EndChar

StartChar: cedilla
Encoding: 184 184 120
Width: 276
GlyphClass: 2
Flags: MW
HStem: -185 48
VStem: 120 53 164 56
LayerCount: 2
Fore
SplineSet
221 -104 m 0xa0
 221 -160 172 -183 118 -185 c 0
 72 -185 59 -176 32 -151 c 1
 59 -114 l 1
 79 -132 94 -138 114 -138 c 0
 142 -138 164 -127 164 -98 c 0xa0
 164 -72 120 -51 120 -26 c 2
 120 18 l 1
 172 18 l 1
 172 -26 l 2xc0
 173 -48 221 -75 221 -104 c 0xa0
EndSplineSet
EndChar

StartChar: one.superior
Encoding: 185 185 121
Width: 166
GlyphClass: 2
Flags: MW
HStem: 676 20G<62 128 128 128>
VStem: 66 62<350 650 650 650>
LayerCount: 2
Fore
SplineSet
128 350 m 1
 66 350 l 1
 66 650 l 1
 39 618 l 1
 14 647 l 1
 62 696 l 1
 128 696 l 1
 128 350 l 1
EndSplineSet
EndChar

StartChar: ordmasculine
Encoding: 186 186 122
Width: 422
GlyphClass: 2
Flags: MW
HStem: 189 53<64 356 64 356> 281 49<178 242.5 178 263> 565 47<177.5 245>
VStem: 49 58<414 479.5 414 498.5> 313 57<414 447 397 480.5>
LayerCount: 2
Fore
SplineSet
313 447 m 0
 313 514 279 565 211 565 c 0
 144 565 107 512 107 447 c 0
 107 381 145 330 211 330 c 0
 274 330 313 381 313 447 c 0
356 189 m 1
 64 189 l 1
 64 242 l 1
 356 242 l 1
 356 189 l 1
370 447 m 0
 370 347 315 281 211 281 c 0
 107 281 49 346 49 447 c 0
 49 550 107 612 211 612 c 0
 316 612 368 546 370 447 c 0
EndSplineSet
EndChar

StartChar: guillemotright
Encoding: 187 187 123
Width: 453
GlyphClass: 2
Flags: W
LayerCount: 2
Fore
SplineSet
245 225 m 1
 52 57 l 1
 52 137 l 1
 178 242 l 1
 52 346 l 1
 52 426 l 1
 245 257 l 1
 245 225 l 1
427 225 m 1
 233 57 l 1
 233 137 l 1
 360 242 l 1
 233 346 l 1
 233 426 l 1
 427 257 l 1
 427 225 l 1
EndSplineSet
EndChar

StartChar: onequarter
Encoding: 188 188 124
Width: 751
GlyphClass: 3
Flags: MW
HStem: -14 21G<106 172 106 106> 76 57<512 602 512 602 662 708> 676 21G
VStem: 66 62<350 650 650 650> 602 60<0 76 0 76 133 255 255 255>
LayerCount: 2
Fore
SplineSet
128 350 m 1
 66 350 l 1
 66 650 l 1
 39 618 l 1
 14 647 l 1
 62 696 l 1
 128 696 l 1
 128 350 l 1
602 133 m 1
 602 255 l 1
 512 133 l 1
 602 133 l 1
708 76 m 1
 662 76 l 1
 662 0 l 1
 602 0 l 1
 602 76 l 1
 454 76 l 1
 454 100 l 1
 631 346 l 1
 662 346 l 1
 662 133 l 1
 708 133 l 1
 708 76 l 1
577 704 m 1
 172 -14 l 1
 106 -14 l 1
 510 704 l 1
 577 704 l 1
EndSplineSet
Ligature2: "Ligature Substitution lookup 11 subtable" one fraction four
Ligature2: "Ligature Substitution lookup 11 subtable" one slash four
EndChar

StartChar: onehalf
Encoding: 189 189 125
Width: 716
GlyphClass: 3
Flags: MW
HStem: -14 21G<66 132 66 66> 0 58<541 666 541 666> 300 56<524.5 553.5> 676 21G
VStem: 66 62<350 650 650 650> 604 62
LayerCount: 2
Fore
SplineSet
128 350 m 1x3c
 66 350 l 1
 66 650 l 1
 39 618 l 1
 14 647 l 1
 62 696 l 1
 128 696 l 1
 128 350 l 1x3c
441 0 m 1x7c
 449 9 558 154 564 162 c 0
 580 182 604 212 604 238 c 0
 604 277 573 300 534 300 c 0
 500 300 471 289 443 273 c 1
 443 313 l 1
 467 332 506 356 543 356 c 0
 610 356 661 324 661 264 c 0
 661 230 655 206 639 183 c 2
 541 58 l 1
 666 58 l 1
 666 0 l 1
 441 0 l 1x7c
537 704 m 1
 132 -14 l 1
 66 -14 l 1xbc
 470 704 l 1
 537 704 l 1
EndSplineSet
Ligature2: "Ligature Substitution lookup 12 subtable" one fraction two
Ligature2: "Ligature Substitution lookup 12 subtable" one slash two
EndChar

StartChar: threequarters
Encoding: 190 190 126
Width: 773
GlyphClass: 3
Flags: MW
HStem: -14 21G<167 234 167 167> 76 57<527 617 527 617 677 723> 339 57<108.5 142 98 163.5> 505 56<107 124 107 124> 650 56<120.5 143>
VStem: 194 58<605 622> 206 58<430 468 409.5 471> 617 60<0 76 0 76 133 255 255 255>
LayerCount: 2
Fore
SplineSet
264 448 m 0xfb
 264 371 202 339 125 339 c 0
 92 339 74 343 50 365 c 1
 50 414 l 1
 73 403 80 396 116 396 c 0
 168 396 206 408 206 452 c 0xfb
 206 490 170 505 124 505 c 2
 107 505 l 1
 107 561 l 1
 124 561 l 2
 162 561 193 574 194 605 c 0
 194 639 163 650 123 650 c 0
 91 650 85 644 59 637 c 1
 59 683 l 1
 87 696 105 706 136 706 c 0
 197 706 252 678 252 616 c 0xfd
 252 579 222 550 171 536 c 1
 232 523 264 488 264 448 c 0xfb
617 133 m 1
 617 255 l 1
 527 133 l 1
 617 133 l 1
723 76 m 1
 677 76 l 1
 677 0 l 1
 617 0 l 1
 617 76 l 1
 469 76 l 1
 469 100 l 1
 646 346 l 1
 677 346 l 1
 677 133 l 1
 723 133 l 1
 723 76 l 1
636 704 m 1
 234 -14 l 1
 167 -14 l 1
 571 704 l 1
 636 704 l 1
EndSplineSet
Ligature2: "Ligature Substitution lookup 13 subtable" three fraction four
Ligature2: "Ligature Substitution lookup 13 subtable" three slash four
EndChar

StartChar: questiondown
Encoding: 191 191 127
Width: 382
GlyphClass: 2
Flags: MW
HStem: -14 67<197.5 229> 600 94<208 232>
VStem: 28 71<137.5 160 137.5 178> 176 88<635 659> 184 69<449 503>
LayerCount: 2
Fore
SplineSet
220 694 m 0xf0
 244 694 264 671 264 647 c 0
 264 623 244 600 220 600 c 0
 196 600 176 623 176 647 c 0
 176 671 196 694 220 694 c 0xf0
365 37 m 1
 321 9 258 -14 200 -14 c 0
 98 -14 28 42 28 147 c 0
 28 209 58 242 97 283 c 2
 135 323 l 2
 165 351 175 367 185 409 c 0
 184 419 184 433 184 449 c 2
 184 503 l 1
 253 503 l 1
 253 434 l 2xe8
 253 366 234 334 190 290 c 2
 111 201 l 1
 104 186 99 169 99 151 c 0
 99 124 109 97 132 80 c 0
 153 62 180 53 215 53 c 0
 276 53 324 83 365 119 c 1
 365 37 l 1
EndSplineSet
Position2: "'cpsp' Capital Spacing in Latin lookup 0 subtable" dx=5 dy=0 dh=10 dv=0
EndChar

StartChar: Agrave
Encoding: 192 192 128
Width: 655
GlyphClass: 2
Flags: MW
HStem: 0 21<8 95 8 8 559 647 559 559> 180 72<187 468 187 495 160 468> 672 20<277 376 376 376> 764 152<220 434 220 368>
VStem: 220 214<764 916>
LayerCount: 2
Fore
SplineSet
434 764 m 1
 368 764 l 1
 220 916 l 1
 308 916 l 1
 434 764 l 1
468 252 m 1
 329 608 l 1
 187 252 l 1
 468 252 l 1
647 0 m 1
 559 0 l 1
 495 180 l 1
 160 180 l 1
 95 0 l 1
 8 0 l 1
 277 692 l 1
 376 692 l 1
 647 0 l 1
EndSplineSet
Position2: "'cpsp' Capital Spacing in Latin lookup 0 subtable" dx=5 dy=0 dh=10 dv=0
EndChar

StartChar: Aacute
Encoding: 193 193 129
Width: 655
GlyphClass: 2
Flags: MW
HStem: 0 21<8 95 8 8 559 647 559 559> 180 72<187 468 187 495 160 468> 672 20<277 376 376 376> 764 152<221 434 221 434>
VStem: 221 213<764 916>
LayerCount: 2
Fore
SplineSet
434 916 m 1
 287 764 l 1
 221 764 l 1
 346 916 l 1
 434 916 l 1
468 252 m 1
 329 608 l 1
 187 252 l 1
 468 252 l 1
647 0 m 1
 559 0 l 1
 495 180 l 1
 160 180 l 1
 95 0 l 1
 8 0 l 1
 277 692 l 1
 376 692 l 1
 647 0 l 1
EndSplineSet
Position2: "'cpsp' Capital Spacing in Latin lookup 0 subtable" dx=5 dy=0 dh=10 dv=0
EndChar

StartChar: Acircumflex
Encoding: 194 194 130
Width: 655
GlyphClass: 2
Flags: MW
HStem: 0 21<8 95 8 8 559 647 559 559> 180 72<187 468 187 495 160 468> 672 20<277 376 376 376> 764 152<190 358 190 358 298 466 298 408>
VStem: 190 276<764 764>
LayerCount: 2
Fore
SplineSet
466 764 m 1
 408 764 l 1
 328 860 l 1
 248 764 l 1
 190 764 l 1
 298 916 l 1
 358 916 l 1
 466 764 l 1
468 252 m 1
 329 608 l 1
 187 252 l 1
 468 252 l 1
647 0 m 1
 559 0 l 1
 495 180 l 1
 160 180 l 1
 95 0 l 1
 8 0 l 1
 277 692 l 1
 376 692 l 1
 647 0 l 1
EndSplineSet
Position2: "'cpsp' Capital Spacing in Latin lookup 0 subtable" dx=5 dy=0 dh=10 dv=0
EndChar

StartChar: Atilde
Encoding: 195 195 131
Width: 655
GlyphClass: 2
Flags: MW
HStem: 0 21<8 95 8 8 559 647 559 559> 180 72<187 468 187 495 160 468> 672 20<277 376 376 376> 764 52<380 384> 826 52<256 274>
VStem: 192 49 414 49
LayerCount: 2
Fore
SplineSet
464 878 m 1
 464 824 440 766 384 764 c 0
 366 764 338 781 328 788 c 2
 274 826 l 1
 238 826 242 797 240 764 c 1
 192 764 l 1
 192 817 214 878 270 878 c 0
 294 878 312 867 326 854 c 2
 380 816 l 1
 412 816 414 848 414 878 c 1
 464 878 l 1
468 252 m 1
 329 608 l 1
 187 252 l 1
 468 252 l 1
647 0 m 1
 559 0 l 1
 495 180 l 1
 160 180 l 1
 95 0 l 1
 8 0 l 1
 277 692 l 1
 376 692 l 1
 647 0 l 1
EndSplineSet
Position2: "'cpsp' Capital Spacing in Latin lookup 0 subtable" dx=5 dy=0 dh=10 dv=0
EndChar

StartChar: Adieresis
Encoding: 196 196 132
Width: 655
GlyphClass: 2
Flags: MW
HStem: 0 21<8 95 8 8 559 647 559 559> 180 72<187 468 187 495 160 468> 672 20<277 376 376 376> 764 96<232.5 257.5 397.5 422.5>
VStem: 200 90<798.5 825.5> 365 90<798.5 825.5>
LayerCount: 2
Fore
SplineSet
410 860 m 0
 435 860 455 839 455 812 c 0
 455 785 435 764 410 764 c 0
 385 764 365 785 365 812 c 0
 365 839 385 860 410 860 c 0
245 860 m 0
 270 860 290 839 290 812 c 0
 290 785 270 764 245 764 c 0
 220 764 200 785 200 812 c 0
 200 839 220 860 245 860 c 0
468 252 m 1
 329 608 l 1
 187 252 l 1
 468 252 l 1
647 0 m 1
 559 0 l 1
 495 180 l 1
 160 180 l 1
 95 0 l 1
 8 0 l 1
 277 692 l 1
 376 692 l 1
 647 0 l 1
EndSplineSet
Position2: "'cpsp' Capital Spacing in Latin lookup 0 subtable" dx=5 dy=0 dh=10 dv=0
EndChar

StartChar: Aring
Encoding: 197 197 133
Width: 655
GlyphClass: 2
Flags: MW
HStem: 0 21<8 95 8 8 559 647 559 559> 180 72<187 468 187 495 160 468> 672 20<277 376 376 376> 709 49<313 347 313 361> 882 51<313 347>
VStem: 218 51 390 51
LayerCount: 2
Fore
SplineSet
330 882 m 0
 296 882 268 854 268 820 c 0
 268 786 296 758 330 758 c 0
 364 758 390 786 390 820 c 0
 390 854 364 882 330 882 c 0
330 933 m 0
 392 933 442 883 442 821 c 0
 442 759 392 709 330 709 c 0
 268 709 218 759 218 821 c 0
 218 883 268 933 330 933 c 0
468 252 m 1
 329 608 l 1
 187 252 l 1
 468 252 l 1
647 0 m 1
 559 0 l 1
 495 180 l 1
 160 180 l 1
 95 0 l 1
 8 0 l 1
 277 692 l 1
 376 692 l 1
 647 0 l 1
EndSplineSet
Position2: "'cpsp' Capital Spacing in Latin lookup 0 subtable" dx=5 dy=0 dh=10 dv=0
EndChar

StartChar: AE
Encoding: 198 198 134
Width: 893
GlyphClass: 3
Flags: MW
HStem: 0 72<506 867 506 867> 180 71<198 431 198 431 166 431> 332 72<506 845 506 845> 619 73<506 859 506 506>
VStem: 431 75<72 180 180 180 251 332 404 619>
LayerCount: 2
Fore
SplineSet
431 251 m 1
 431 625 l 1
 357 625 l 1
 198 251 l 1
 431 251 l 1
867 0 m 1
 431 0 l 1
 431 180 l 1
 166 180 l 1
 90 0 l 1
 6 0 l 1
 301 692 l 1
 859 692 l 1
 859 619 l 1
 506 619 l 1
 506 404 l 1
 845 404 l 1
 845 332 l 1
 506 332 l 1
 506 72 l 1
 867 72 l 1
 867 0 l 1
EndSplineSet
LCarets2: 1 0
Ligature2: "'rlig' Required Ligatures in Latin lookup 19 subtable" A e
Ligature2: "'rlig' Required Ligatures in Latin lookup 19 subtable" A E
Position2: "'cpsp' Capital Spacing in Latin lookup 0 subtable" dx=5 dy=0 dh=10 dv=0
EndChar

StartChar: Ccedilla
Encoding: 199 199 135
Width: 628
GlyphClass: 2
Flags: MW
HStem: -202 47<331.5 345> -13 67<347 347 400 400> 636 68<283 418.5 263 427.5>
VStem: 42 74<262.5 344 262.5 444> 347 53<-43 -13 -54 -13> 392 56<-129.5 -106.5 -149 -102>
LayerCount: 2
Fore
SplineSet
448 -121 m 0xf4
 448 -177 400 -200 345 -202 c 0
 299 -202 286 -193 259 -168 c 1
 286 -132 l 1
 306 -149 321 -155 342 -155 c 0
 369 -155 392 -144 392 -115 c 0xf4
 392 -89 347 -68 347 -43 c 2
 347 -13 l 1
 140 1 42 153 42 344 c 0
 42 544 148 704 378 704 c 0
 459 704 533 681 596 640 c 1
 596 546 l 1
 538 607 475 636 380 636 c 0
 186 636 119 506 116 344 c 0
 116 181 190 54 380 54 c 0
 474 54 535 81 596 142 c 1
 596 51 l 1
 543 14 470 -9 400 -13 c 1
 400 -43 l 2xf8
 400 -65 448 -92 448 -121 c 0xf4
EndSplineSet
Position2: "'cpsp' Capital Spacing in Latin lookup 0 subtable" dx=5 dy=0 dh=10 dv=0
EndChar

StartChar: Egrave
Encoding: 200 200 136
Width: 536
GlyphClass: 2
Flags: MW
HStem: 0 72<144 511 144 511> 332 72<144 486 144 486> 619 73<144 502 144 144> 764 152<183 397 183 331>
VStem: 69 75<72 332 404 619> 183 214<764 916>
LayerCount: 2
Fore
SplineSet
397 764 m 1
 331 764 l 1
 183 916 l 1
 270 916 l 1
 397 764 l 1
511 0 m 1
 69 0 l 1
 69 692 l 1
 502 692 l 1
 502 619 l 1
 144 619 l 1
 144 404 l 1
 486 404 l 1
 486 332 l 1
 144 332 l 1
 144 72 l 1
 511 72 l 1
 511 0 l 1
EndSplineSet
Position2: "'cpsp' Capital Spacing in Latin lookup 0 subtable" dx=5 dy=0 dh=10 dv=0
EndChar

StartChar: Eacute
Encoding: 201 201 137
Width: 536
GlyphClass: 2
Flags: MW
HStem: 0 72<144 511 144 511> 332 72<144 486 144 486> 619 73<144 502 144 144> 764 152<184 396 184 396>
VStem: 69 75<72 332 404 619> 184 213
LayerCount: 2
Fore
SplineSet
396 916 m 1
 250 764 l 1
 184 764 l 1
 308 916 l 1
 396 916 l 1
511 0 m 1
 69 0 l 1
 69 692 l 1
 502 692 l 1
 502 619 l 1
 144 619 l 1
 144 404 l 1
 486 404 l 1
 486 332 l 1
 144 332 l 1
 144 72 l 1
 511 72 l 1
 511 0 l 1
EndSplineSet
Position2: "'cpsp' Capital Spacing in Latin lookup 0 subtable" dx=5 dy=0 dh=10 dv=0
EndChar

StartChar: Ecircumflex
Encoding: 202 202 138
Width: 536
GlyphClass: 2
Flags: MW
HStem: 0 72<144 511 144 511> 332 72<144 486 144 486> 619 73<144 502 144 144> 764 152<152 320 152 320 260 428 260 370>
VStem: 69 75<72 332 404 619> 152 276<764 764>
LayerCount: 2
Fore
SplineSet
428 764 m 1
 370 764 l 1
 290 860 l 1
 210 764 l 1
 152 764 l 1
 260 916 l 1
 320 916 l 1
 428 764 l 1
511 0 m 1
 69 0 l 1
 69 692 l 1
 502 692 l 1
 502 619 l 1
 144 619 l 1
 144 404 l 1
 486 404 l 1
 486 332 l 1
 144 332 l 1
 144 72 l 1
 511 72 l 1
 511 0 l 1
EndSplineSet
Position2: "'cpsp' Capital Spacing in Latin lookup 0 subtable" dx=5 dy=0 dh=10 dv=0
EndChar

StartChar: Edieresis
Encoding: 203 203 139
Width: 536
GlyphClass: 2
Flags: MW
HStem: 0 72<144 511 144 511> 332 72<144 486 144 486> 619 73<144 502 144 144> 764 96<195 220 360 385>
VStem: 69 75<72 332 404 619> 162 90<798.5 825.5> 328 90<798.5 825.5>
LayerCount: 2
Fore
SplineSet
372 860 m 0
 398 860 418 839 418 812 c 0
 418 785 398 764 372 764 c 0
 348 764 328 785 328 812 c 0
 328 839 348 860 372 860 c 0
208 860 m 0
 232 860 252 839 252 812 c 0
 252 785 232 764 208 764 c 0
 182 764 162 785 162 812 c 0
 162 839 182 860 208 860 c 0
511 0 m 1
 69 0 l 1
 69 692 l 1
 502 692 l 1
 502 619 l 1
 144 619 l 1
 144 404 l 1
 486 404 l 1
 486 332 l 1
 144 332 l 1
 144 72 l 1
 511 72 l 1
 511 0 l 1
EndSplineSet
Position2: "'cpsp' Capital Spacing in Latin lookup 0 subtable" dx=5 dy=0 dh=10 dv=0
EndChar

StartChar: Igrave
Encoding: 204 204 140
Width: 213
GlyphClass: 2
Flags: MW
HStem: 0 21<69 144 69 69> 672 20<69 144 144 144> 764 152<0 214 0 148>
VStem: 0 214<764 916> 69 75<0 692>
LayerCount: 2
Fore
SplineSet
214 764 m 1x30
 148 764 l 1
 0 916 l 1
 86 916 l 1
 214 764 l 1x30
144 0 m 1xc8
 69 0 l 1
 69 692 l 1
 144 692 l 1
 144 0 l 1xc8
EndSplineSet
Position2: "'cpsp' Capital Spacing in Latin lookup 0 subtable" dx=5 dy=0 dh=10 dv=0
EndChar

StartChar: Iacute
Encoding: 205 205 141
Width: 213
GlyphClass: 2
Flags: MW
HStem: 0 21<69 144 69 69> 672 20<69 144 144 144> 764 152<0 213 0 213>
VStem: 0 213<764 916> 69 75<0 692>
LayerCount: 2
Fore
SplineSet
213 916 m 1x30
 66 764 l 1
 0 764 l 1
 125 916 l 1
 213 916 l 1x30
144 0 m 1xc8
 69 0 l 1
 69 692 l 1
 144 692 l 1
 144 0 l 1xc8
EndSplineSet
Position2: "'cpsp' Capital Spacing in Latin lookup 0 subtable" dx=5 dy=0 dh=10 dv=0
EndChar

StartChar: Icircumflex
Encoding: 206 206 142
Width: 213
GlyphClass: 2
Flags: MW
HStem: 0 21<69 144 69 69> 672 20<69 144 144 144> 764 152<-32 136 -32 136 76 244 76 186>
VStem: -32 276<764 764> 69 75<0 692>
LayerCount: 2
Fore
SplineSet
244 764 m 1x30
 186 764 l 1
 106 860 l 1
 26 764 l 1
 -32 764 l 1
 76 916 l 1
 136 916 l 1
 244 764 l 1x30
144 0 m 1xc8
 69 0 l 1
 69 692 l 1
 144 692 l 1
 144 0 l 1xc8
EndSplineSet
Position2: "'cpsp' Capital Spacing in Latin lookup 0 subtable" dx=5 dy=0 dh=10 dv=0
EndChar

StartChar: Idieresis
Encoding: 207 207 143
Width: 213
GlyphClass: 2
Flags: MW
HStem: 0 21<69 144 69 69> 672 20<69 144 144 144> 764 96<11.5 36.5 176.5 201.5>
VStem: -21 90<798.5 825.5> 69 75<0 692 798.5 825.5> 144 90<798.5 825.5>
CounterMasks: 1 1c
LayerCount: 2
Fore
SplineSet
189 860 m 0x34
 214 860 234 839 234 812 c 0
 234 785 214 764 189 764 c 0
 164 764 144 785 144 812 c 0
 144 839 164 860 189 860 c 0x34
24 860 m 0
 49 860 69 839 69 812 c 0
 69 785 49 764 24 764 c 0
 -1 764 -21 785 -21 812 c 0
 -21 839 -1 860 24 860 c 0
144 0 m 1xc8
 69 0 l 1
 69 692 l 1
 144 692 l 1
 144 0 l 1xc8
EndSplineSet
Position2: "'cpsp' Capital Spacing in Latin lookup 0 subtable" dx=5 dy=0 dh=10 dv=0
EndChar

StartChar: Eth
Encoding: 208 208 144
Width: 726
GlyphClass: 2
Flags: MW
HStem: 0 69<188 300> 327 61<17 114 17 114 188 350> 623 69<188 300 300 312 188 188>
VStem: 114 74<69 327 69 327 69 327 388 623> 608 75<252.5 346 223.5 444>
LayerCount: 2
Fore
SplineSet
608 347 m 0
 608 541 519 621 312 623 c 2
 188 623 l 1
 188 388 l 1
 350 388 l 1
 350 327 l 1
 188 327 l 1
 188 69 l 1
 312 69 l 2
 520 69 608 158 608 347 c 0
683 346 m 0
 683 101 554 0 300 0 c 2
 114 0 l 1
 114 327 l 1
 17 327 l 1
 17 388 l 1
 114 388 l 1
 114 692 l 1
 300 692 l 2
 556 692 681 591 683 346 c 0
EndSplineSet
Position2: "'cpsp' Capital Spacing in Latin lookup 0 subtable" dx=5 dy=0 dh=10 dv=0
EndChar

StartChar: Ntilde
Encoding: 209 209 145
Width: 651
GlyphClass: 2
Flags: MW
HStem: 0 21<69 143 69 69 501 582 501 501> 672 20<69 140 140 140 507 582 582 582> 764 52<378 382> 826 52<254 272>
VStem: 69 74<0 557 0 692> 190 49 412 49 507 75<134 692>
LayerCount: 2
Fore
SplineSet
462 878 m 1
 462 824 438 766 382 764 c 0
 364 764 336 781 326 788 c 2
 272 826 l 1
 236 826 240 797 238 764 c 1
 190 764 l 1
 190 817 212 878 268 878 c 0
 292 878 310 867 324 854 c 2
 378 816 l 1
 410 816 412 848 412 878 c 1
 462 878 l 1
582 0 m 1
 501 0 l 1
 143 557 l 1
 143 0 l 1
 69 0 l 1
 69 692 l 1
 140 692 l 1
 507 134 l 1
 507 692 l 1
 582 692 l 1
 582 0 l 1
EndSplineSet
Position2: "'cpsp' Capital Spacing in Latin lookup 0 subtable" dx=5 dy=0 dh=10 dv=0
EndChar

StartChar: Ograve
Encoding: 210 210 146
Width: 715
GlyphClass: 2
Flags: MW
HStem: -14 67<268 442.5 268 465> 636 68<267 444> 764 152<249 463 249 397>
VStem: 41 74<275 415 275 436> 249 214<764 916> 597 74<273.5 416>
CounterMasks: 1 1c
LayerCount: 2
Fore
SplineSet
463 764 m 1
 397 764 l 1
 249 916 l 1
 336 916 l 1
 463 764 l 1
597 344 m 0
 597 488 533 636 355 636 c 0
 179 636 115 486 115 344 c 0
 115 206 181 53 355 53 c 0
 530 53 597 203 597 344 c 0
671 344 m 0
 671 154 575 -14 355 -14 c 0
 138 -14 41 158 41 344 c 0
 41 528 137 704 355 704 c 0
 576 704 671 533 671 344 c 0
EndSplineSet
Position2: "'cpsp' Capital Spacing in Latin lookup 0 subtable" dx=5 dy=0 dh=10 dv=0
EndChar

StartChar: Oacute
Encoding: 211 211 147
Width: 715
GlyphClass: 2
Flags: MW
HStem: -14 67<268 442.5 268 465> 636 68<267 444> 764 152<250 462 250 462>
VStem: 41 74<275 415 275 436> 250 213 597 74<273.5 416>
CounterMasks: 1 1c
LayerCount: 2
Fore
SplineSet
462 916 m 1
 316 764 l 1
 250 764 l 1
 374 916 l 1
 462 916 l 1
597 344 m 0
 597 488 533 636 355 636 c 0
 179 636 115 486 115 344 c 0
 115 206 181 53 355 53 c 0
 530 53 597 203 597 344 c 0
671 344 m 0
 671 154 575 -14 355 -14 c 0
 138 -14 41 158 41 344 c 0
 41 528 137 704 355 704 c 0
 576 704 671 533 671 344 c 0
EndSplineSet
Position2: "'cpsp' Capital Spacing in Latin lookup 0 subtable" dx=5 dy=0 dh=10 dv=0
EndChar

StartChar: Ocircumflex
Encoding: 212 212 148
Width: 715
GlyphClass: 2
Flags: MW
HStem: -14 67<268 442.5 268 465> 636 68<267 444> 764 152<218 386 218 386 326 494 326 436>
VStem: 41 74<275 415 275 436> 218 276<764 764> 597 74<273.5 416>
CounterMasks: 1 1c
LayerCount: 2
Fore
SplineSet
494 764 m 1
 436 764 l 1
 356 860 l 1
 276 764 l 1
 218 764 l 1
 326 916 l 1
 386 916 l 1
 494 764 l 1
597 344 m 0
 597 488 533 636 355 636 c 0
 179 636 115 486 115 344 c 0
 115 206 181 53 355 53 c 0
 530 53 597 203 597 344 c 0
671 344 m 0
 671 154 575 -14 355 -14 c 0
 138 -14 41 158 41 344 c 0
 41 528 137 704 355 704 c 0
 576 704 671 533 671 344 c 0
EndSplineSet
Position2: "'cpsp' Capital Spacing in Latin lookup 0 subtable" dx=5 dy=0 dh=10 dv=0
EndChar

StartChar: Otilde
Encoding: 213 213 149
Width: 715
GlyphClass: 2
Flags: MW
HStem: -14 67<268 442.5 268 465> 636 68<267 444> 764 52<409 412> 826 52<285 303>
VStem: 41 74<275 415 275 436> 220 49<764 790.5> 443 49<851 878> 597 74<273.5 416>
LayerCount: 2
Fore
SplineSet
492 878 m 1
 492 824 468 766 412 764 c 0
 394 764 366 781 357 788 c 2
 303 826 l 1
 267 826 270 797 269 764 c 1
 220 764 l 1
 220 817 243 878 299 878 c 0
 322 878 341 867 354 854 c 2
 409 816 l 1
 441 816 442 848 443 878 c 1
 492 878 l 1
597 344 m 0
 597 488 533 636 355 636 c 0
 179 636 115 486 115 344 c 0
 115 206 181 53 355 53 c 0
 530 53 597 203 597 344 c 0
671 344 m 0
 671 154 575 -14 355 -14 c 0
 138 -14 41 158 41 344 c 0
 41 528 137 704 355 704 c 0
 576 704 671 533 671 344 c 0
EndSplineSet
Position2: "'cpsp' Capital Spacing in Latin lookup 0 subtable" dx=5 dy=0 dh=10 dv=0
EndChar

StartChar: Odieresis
Encoding: 214 214 150
Width: 715
GlyphClass: 2
Flags: MW
HStem: -14 67<268 442.5 268 465> 636 68<267 444> 764 96<261 286 426 451>
VStem: 41 74<275 415 275 436> 228 90<798.5 825.5> 394 90<798.5 825.5> 597 74<273.5 416>
LayerCount: 2
Fore
SplineSet
438 860 m 0
 464 860 484 839 484 812 c 0
 484 785 464 764 438 764 c 0
 414 764 394 785 394 812 c 0
 394 839 414 860 438 860 c 0
274 860 m 0
 298 860 318 839 318 812 c 0
 318 785 298 764 274 764 c 0
 248 764 228 785 228 812 c 0
 228 839 248 860 274 860 c 0
597 344 m 0
 597 488 533 636 355 636 c 0
 179 636 115 486 115 344 c 0
 115 206 181 53 355 53 c 0
 530 53 597 203 597 344 c 0
671 344 m 0
 671 154 575 -14 355 -14 c 0
 138 -14 41 158 41 344 c 0
 41 528 137 704 355 704 c 0
 576 704 671 533 671 344 c 0
EndSplineSet
Position2: "'cpsp' Capital Spacing in Latin lookup 0 subtable" dx=5 dy=0 dh=10 dv=0
EndChar

StartChar: multiply
Encoding: 215 215 151
Width: 527
GlyphClass: 2
Flags: W
LayerCount: 2
Fore
SplineSet
497 446 m 1
 306 258 l 1
 496 71 l 1
 456 25 l 1
 262 214 l 1
 70 25 l 1
 30 71 l 1
 222 258 l 1
 30 446 l 1
 70 492 l 1
 262 303 l 1
 456 492 l 1
 497 446 l 1
EndSplineSet
EndChar

StartChar: Oslash
Encoding: 216 216 152
Width: 728
GlyphClass: 2
Flags: MW
HStem: -13 67<327 452.5 327 470> 636 66<275.5 399>
VStem: 48 75<307 416 307 439> 603 75<272.5 344 249 377.5>
LayerCount: 2
Fore
SplineSet
603 344 m 0
 603 411 593 464 559 523 c 1
 201 120 l 1
 251 75 290 54 364 54 c 0
 541 54 603 201 603 344 c 0
528 572 m 1
 483 612 434 636 364 636 c 0
 187 636 123 488 123 344 c 0
 123 270 132 220 169 167 c 1
 528 572 l 1
684 686 m 1
 610 592 l 1
 658 524 676 429 678 344 c 0
 678 154 579 -13 361 -13 c 0
 276 -13 213 10 151 59 c 1
 78 -32 l 1
 42 4 l 1
 119 100 l 1
 65 163 48 259 48 344 c 0
 48 534 146 702 367 702 c 0
 445 702 519 681 575 631 c 1
 649 722 l 1
 684 686 l 1
EndSplineSet
Position2: "'cpsp' Capital Spacing in Latin lookup 0 subtable" dx=5 dy=0 dh=10 dv=0
EndChar

StartChar: Ugrave
Encoding: 217 217 153
Width: 646
GlyphClass: 2
Flags: MW
HStem: -14 67<248.5 400.5 248.5 417> 672 20<63 138 138 138 509 583 583 583> 764 152<216 430 216 364>
VStem: 63 75<258 270 270 692> 216 214<764 916> 509 74<270 692>
LayerCount: 2
Fore
SplineSet
430 764 m 1
 364 764 l 1
 216 916 l 1
 303 916 l 1
 430 764 l 1
583 258 m 2
 583 94 509 -14 325 -14 c 0
 142 -14 63 91 63 258 c 2
 63 692 l 1
 138 692 l 1
 138 270 l 2
 138 139 172 53 325 53 c 0
 476 53 509 142 509 270 c 2
 509 692 l 1
 583 692 l 1
 583 258 l 2
EndSplineSet
Position2: "'cpsp' Capital Spacing in Latin lookup 0 subtable" dx=5 dy=0 dh=10 dv=0
EndChar

StartChar: Uacute
Encoding: 218 218 154
Width: 646
GlyphClass: 2
Flags: MW
HStem: -14 67<248.5 400.5 248.5 417> 672 20<63 138 138 138 509 583 583 583> 764 152<216 430 216 430>
VStem: 63 75<258 270 270 692> 216 213 509 74<270 692>
LayerCount: 2
Fore
SplineSet
430 916 m 1
 282 764 l 1
 216 764 l 1
 342 916 l 1
 430 916 l 1
583 258 m 2
 583 94 509 -14 325 -14 c 0
 142 -14 63 91 63 258 c 2
 63 692 l 1
 138 692 l 1
 138 270 l 2
 138 139 172 53 325 53 c 0
 476 53 509 142 509 270 c 2
 509 692 l 1
 583 692 l 1
 583 258 l 2
EndSplineSet
Position2: "'cpsp' Capital Spacing in Latin lookup 0 subtable" dx=5 dy=0 dh=10 dv=0
EndChar

StartChar: Ucircumflex
Encoding: 219 219 155
Width: 646
GlyphClass: 2
Flags: MW
HStem: -14 67<248.5 400.5 248.5 417> 672 20<63 138 138 138 509 583 583 583> 764 152<185 353 185 353 293 461 293 403>
VStem: 63 75<258 270 270 692> 185 276<764 764> 509 74<270 692>
LayerCount: 2
Fore
SplineSet
461 764 m 1
 403 764 l 1
 323 860 l 1
 243 764 l 1
 185 764 l 1
 293 916 l 1
 353 916 l 1
 461 764 l 1
583 258 m 2
 583 94 509 -14 325 -14 c 0
 142 -14 63 91 63 258 c 2
 63 692 l 1
 138 692 l 1
 138 270 l 2
 138 139 172 53 325 53 c 0
 476 53 509 142 509 270 c 2
 509 692 l 1
 583 692 l 1
 583 258 l 2
EndSplineSet
Position2: "'cpsp' Capital Spacing in Latin lookup 0 subtable" dx=5 dy=0 dh=10 dv=0
EndChar

StartChar: Udieresis
Encoding: 220 220 156
Width: 646
GlyphClass: 2
Flags: MW
HStem: -14 67<248.5 400.5 248.5 417> 672 20<63 138 138 138 509 583 583 583> 764 96<228 253 393 418>
VStem: 63 75<258 270 270 692> 196 90<798.5 825.5> 360 90<798.5 825.5> 509 74<270 692>
LayerCount: 2
Fore
SplineSet
406 860 m 0
 430 860 450 839 450 812 c 0
 450 785 430 764 406 764 c 0
 380 764 360 785 360 812 c 0
 360 839 380 860 406 860 c 0
240 860 m 0
 266 860 286 839 286 812 c 0
 286 785 266 764 240 764 c 0
 216 764 196 785 196 812 c 0
 196 839 216 860 240 860 c 0
583 258 m 2
 583 94 509 -14 325 -14 c 0
 142 -14 63 91 63 258 c 2
 63 692 l 1
 138 692 l 1
 138 270 l 2
 138 139 172 53 325 53 c 0
 476 53 509 142 509 270 c 2
 509 692 l 1
 583 692 l 1
 583 258 l 2
EndSplineSet
Position2: "'cpsp' Capital Spacing in Latin lookup 0 subtable" dx=5 dy=0 dh=10 dv=0
EndChar

StartChar: Yacute
Encoding: 221 221 157
Width: 579
GlyphClass: 2
Flags: MW
HStem: 0 21<252 327 252 252> 672 20<0 90 90 90 490 580 580 580> 764 152<184 396 184 396>
VStem: 184 213 252 75<0 330 0 330>
LayerCount: 2
Fore
SplineSet
396 916 m 1x30
 250 764 l 1
 184 764 l 1
 308 916 l 1
 396 916 l 1x30
580 692 m 1xc8
 327 330 l 1
 327 0 l 1
 252 0 l 1
 252 330 l 1
 0 692 l 1
 90 692 l 1
 290 401 l 1
 490 692 l 1
 580 692 l 1xc8
EndSplineSet
Position2: "'cpsp' Capital Spacing in Latin lookup 0 subtable" dx=5 dy=0 dh=10 dv=0
EndChar

StartChar: Thorn
Encoding: 222 222 158
Width: 534
GlyphClass: 2
Flags: MW
HStem: 0 21G<69 144 69 69> 157 71<144 276 144 276> 497 69<144 273 273 276 144 273> 672 20G<69 144 144 144>
VStem: 69 75<0 157 228 497 566 692> 429 75<363 384.5>
LayerCount: 2
Fore
SplineSet
429 363 m 0
 429 406 415 439 387 462 c 0
 361 485 326 497 276 497 c 2
 144 497 l 1
 144 228 l 1
 276 228 l 2
 326 228 359 237 387 262 c 0
 416 285 428 318 429 363 c 0
504 364 m 0
 504 297 486 244 448 210 c 0
 410 176 351 158 276 157 c 2
 144 157 l 1
 144 0 l 1
 69 0 l 1
 69 692 l 1
 144 692 l 1
 144 566 l 1
 273 566 l 2
 348 566 408 549 447 515 c 0
 486 482 504 431 504 364 c 0
EndSplineSet
Position2: "'cpsp' Capital Spacing in Latin lookup 0 subtable" dx=5 dy=0 dh=10 dv=0
EndChar

StartChar: germandbls
Encoding: 223 223 159
Width: 546
GlyphClass: 3
Flags: MW
HStem: -14 72<326 354 326 374.5> -1 21G<69 145 69 69> 649 72<268 298>
VStem: 69 76<-1 525 -1 526 -1 589> 242 71<391.5 444 391.5 444.5> 433 75<112 171.5>
LayerCount: 2
Fore
SplineSet
508 151 m 0x7c
 508 32 430 -14 319 -14 c 0
 277 -14 237 -3 200 9 c 1
 200 89 l 1
 262 63 255 61 326 58 c 0xbc
 382 58 433 79 433 145 c 0
 433 198 397 217 359 242 c 2
 320 266 l 2
 270 299 242 332 242 398 c 0
 242 491 294 531 380 551 c 1
 373 618 330 649 266 649 c 0
 183 649 147 605 145 525 c 2
 145 -1 l 1
 69 -1 l 1
 69 526 l 2
 69 652 145 719 268 721 c 0
 399 721 454 632 457 508 c 1
 390 504 313 481 313 407 c 0
 313 376 345 343 369 329 c 2
 395 311 l 2
 467 263 508 231 508 151 c 0x7c
EndSplineSet
EndChar

StartChar: agrave
Encoding: 224 224 160
Width: 500
GlyphClass: 2
Flags: MW
HStem: -12 63<182.5 210 182.5 221> 230 55<225 257 189 273> 400 62<200.5 256.5> 522 152<110 324 110 258>
VStem: 42 68<132 137 107 190.5> 110 214<522 674> 346 69<37.5 83.5 178 186 186 186 255 284 284 284>
LayerCount: 2
Fore
SplineSet
324 522 m 1x14
 258 522 l 1
 110 674 l 1
 197 674 l 1
 324 522 l 1x14
346 178 m 2xea
 346 186 l 1
 336 208 294 230 252 230 c 0
 198 230 112 218 110 137 c 0
 110 77 155 51 210 51 c 0
 286 52 346 86 346 178 c 2xea
472 68 m 1
 470 28 444 -8 400 -12 c 1
 368 -10 346 16 346 59 c 1
 311 14 253 -12 189 -12 c 0
 97 -12 44 40 42 132 c 0
 42 249 136 285 242 285 c 0
 272 285 316 274 346 255 c 1
 346 284 l 2
 344 372 295 400 218 400 c 0
 156 400 114 382 73 342 c 1
 73 416 l 1
 112 444 176 462 225 462 c 0
 360 462 415 396 415 285 c 2
 415 86 l 2
 415 85 415 84 415 83 c 0
 415 65 425 54 438 51 c 2
 441 51 l 2
 452 51 461 55 472 68 c 1
EndSplineSet
EndChar

StartChar: aacute
Encoding: 225 225 161
Width: 500
GlyphClass: 2
Flags: MW
HStem: -12 63<182.5 210 182.5 221> 230 55<225 257 189 273> 400 62<200.5 256.5> 522 152<166 378 166 378>
VStem: 42 68<132 137 107 190.5> 166 213 346 69<37.5 83.5 178 186 186 186 255 284 284 284>
LayerCount: 2
Fore
SplineSet
378 674 m 1x14
 232 522 l 1
 166 522 l 1
 290 674 l 1
 378 674 l 1x14
346 178 m 2xea
 346 186 l 1
 336 208 294 230 252 230 c 0
 198 230 112 218 110 137 c 0
 110 77 155 51 210 51 c 0
 286 52 346 86 346 178 c 2xea
472 68 m 1
 470 28 444 -8 400 -12 c 1
 368 -10 346 16 346 59 c 1
 311 14 253 -12 189 -12 c 0
 97 -12 44 40 42 132 c 0
 42 249 136 285 242 285 c 0
 272 285 316 274 346 255 c 1
 346 284 l 2
 344 372 295 400 218 400 c 0
 156 400 114 382 73 342 c 1
 73 416 l 1
 112 444 176 462 225 462 c 0
 360 462 415 396 415 285 c 2
 415 86 l 2
 415 85 415 84 415 83 c 0
 415 65 425 54 438 51 c 2
 441 51 l 2
 452 51 461 55 472 68 c 1
EndSplineSet
EndChar

StartChar: acircumflex
Encoding: 226 226 162
Width: 500
GlyphClass: 2
Flags: MW
HStem: -12 63<182.5 210 182.5 221> 230 55<225 257 189 273> 400 62<200.5 256.5> 522 152<119 287 119 287 227 395 227 337>
VStem: 42 68<132 137 107 190.5> 119 276<522 522> 346 69<37.5 83.5 178 186 186 186 255 284 284 284>
LayerCount: 2
Fore
SplineSet
395 522 m 1x14
 337 522 l 1
 257 618 l 1
 177 522 l 1
 119 522 l 1
 227 674 l 1
 287 674 l 1
 395 522 l 1x14
346 178 m 2xea
 346 186 l 1
 336 208 294 230 252 230 c 0
 198 230 112 218 110 137 c 0
 110 77 155 51 210 51 c 0
 286 52 346 86 346 178 c 2xea
472 68 m 1
 470 28 444 -8 400 -12 c 1
 368 -10 346 16 346 59 c 1
 311 14 253 -12 189 -12 c 0
 97 -12 44 40 42 132 c 0
 42 249 136 285 242 285 c 0
 272 285 316 274 346 255 c 1
 346 284 l 2
 344 372 295 400 218 400 c 0
 156 400 114 382 73 342 c 1
 73 416 l 1
 112 444 176 462 225 462 c 0
 360 462 415 396 415 285 c 2
 415 86 l 2
 415 85 415 84 415 83 c 0
 415 65 425 54 438 51 c 2
 441 51 l 2
 452 51 461 55 472 68 c 1
EndSplineSet
EndChar

StartChar: atilde
Encoding: 227 227 163
Width: 500
GlyphClass: 2
Flags: MW
HStem: -12 63<182.5 210 182.5 221> 230 55<225 257 189 273> 400 62<200.5 256.5> 522 52<310 313> 584 52<186 204>
VStem: 42 68<132 137 107 190.5> 121 49<522 548.5> 344 49<609 636> 346 69<37.5 83.5 178 186 186 186 255 284 284 284>
LayerCount: 2
Fore
SplineSet
393 636 m 1x1b
 393 582 369 524 313 522 c 0
 295 522 267 539 258 546 c 2
 204 584 l 1
 168 584 171 555 170 522 c 1
 121 522 l 1
 121 575 144 636 200 636 c 0
 223 636 242 625 255 612 c 2
 310 574 l 1
 342 574 343 606 344 636 c 1
 393 636 l 1x1b
346 178 m 2xe480
 346 186 l 1
 336 208 294 230 252 230 c 0
 198 230 112 218 110 137 c 0
 110 77 155 51 210 51 c 0
 286 52 346 86 346 178 c 2xe480
472 68 m 1
 470 28 444 -8 400 -12 c 1
 368 -10 346 16 346 59 c 1
 311 14 253 -12 189 -12 c 0
 97 -12 44 40 42 132 c 0
 42 249 136 285 242 285 c 0
 272 285 316 274 346 255 c 1
 346 284 l 2
 344 372 295 400 218 400 c 0
 156 400 114 382 73 342 c 1
 73 416 l 1
 112 444 176 462 225 462 c 0
 360 462 415 396 415 285 c 2
 415 86 l 2
 415 85 415 84 415 83 c 0
 415 65 425 54 438 51 c 2
 441 51 l 2
 452 51 461 55 472 68 c 1
EndSplineSet
EndChar

StartChar: adieresis
Encoding: 228 228 164
Width: 500
GlyphClass: 2
Flags: MW
HStem: -12 63<182.5 210 182.5 221> 230 55<225 257 189 273> 400 62<200.5 256.5> 522 96<162 187 327 352>
VStem: 42 68<132 137 107 190.5> 130 90<556.5 583.5> 294 90<556.5 583.5> 346 69<37.5 83.5 178 186 186 186 255 284 284 284>
LayerCount: 2
Fore
SplineSet
340 618 m 0x16
 364 618 384 597 384 570 c 0
 384 543 364 522 340 522 c 0
 314 522 294 543 294 570 c 0
 294 597 314 618 340 618 c 0x16
174 618 m 0
 200 618 220 597 220 570 c 0
 220 543 200 522 174 522 c 0
 150 522 130 543 130 570 c 0
 130 597 150 618 174 618 c 0
346 178 m 2xe9
 346 186 l 1
 336 208 294 230 252 230 c 0
 198 230 112 218 110 137 c 0
 110 77 155 51 210 51 c 0
 286 52 346 86 346 178 c 2xe9
472 68 m 1
 470 28 444 -8 400 -12 c 1
 368 -10 346 16 346 59 c 1
 311 14 253 -12 189 -12 c 0
 97 -12 44 40 42 132 c 0
 42 249 136 285 242 285 c 0
 272 285 316 274 346 255 c 1
 346 284 l 2
 344 372 295 400 218 400 c 0
 156 400 114 382 73 342 c 1
 73 416 l 1
 112 444 176 462 225 462 c 0
 360 462 415 396 415 285 c 2
 415 86 l 2
 415 85 415 84 415 83 c 0
 415 65 425 54 438 51 c 2
 441 51 l 2
 452 51 461 55 472 68 c 1
EndSplineSet
EndChar

StartChar: aring
Encoding: 229 229 165
Width: 500
GlyphClass: 2
Flags: MW
HStem: -12 63<182.5 210 182.5 221> 230 55<225 257 189 273> 400 62<200.5 256.5> 522 49<240 274 240 288> 695 51<240 274>
VStem: 42 68<132 137 107 190.5> 145 51<616 650 616 665> 318 51<616 650> 346 69<37.5 83.5 178 186 186 186 255 284 284 284>
LayerCount: 2
Fore
SplineSet
257 695 m 0x1b
 223 695 196 667 196 633 c 0
 196 599 223 571 257 571 c 0
 291 571 318 599 318 633 c 0
 318 667 291 695 257 695 c 0x1b
257 746 m 0
 319 746 369 696 369 634 c 0
 369 572 319 522 257 522 c 0
 195 522 145 572 145 634 c 0
 145 696 195 746 257 746 c 0
346 178 m 2xe480
 346 186 l 1
 336 208 294 230 252 230 c 0
 198 230 112 218 110 137 c 0
 110 77 155 51 210 51 c 0
 286 52 346 86 346 178 c 2xe480
472 68 m 1
 470 28 444 -8 400 -12 c 1
 368 -10 346 16 346 59 c 1
 311 14 253 -12 189 -12 c 0
 97 -12 44 40 42 132 c 0
 42 249 136 285 242 285 c 0
 272 285 316 274 346 255 c 1
 346 284 l 2
 344 372 295 400 218 400 c 0
 156 400 114 382 73 342 c 1
 73 416 l 1
 112 444 176 462 225 462 c 0
 360 462 415 396 415 285 c 2
 415 86 l 2
 415 85 415 84 415 83 c 0
 415 65 425 54 438 51 c 2
 441 51 l 2
 452 51 461 55 472 68 c 1
EndSplineSet
EndChar

StartChar: ae
Encoding: 230 230 166
Width: 788
GlyphClass: 3
Flags: MW
HStem: -12 63<182.5 210 182.5 221> 226 61<418 675 418 748 415 675> 398 64<512.5 546>
VStem: 42 68<132 137 107 190.5> 675 73
LayerCount: 2
Fore
SplineSet
675 287 m 1
 675 349 624 398 546 398 c 0
 470 398 427 347 418 287 c 1
 675 287 l 1
345 156 m 1
 342 169 340 183 339 196 c 1
 323 214 287 230 252 230 c 0
 198 230 112 218 110 137 c 0
 110 77 155 51 210 51 c 0
 280 52 336 81 345 156 c 1
378 80 m 1
 343 35 253 -12 189 -12 c 0
 97 -12 44 40 42 132 c 0
 42 249 136 285 242 285 c 0
 270 285 311 275 340 258 c 1
 342 269 343 280 346 290 c 0
 342 373 293 400 218 400 c 0
 156 400 114 382 73 342 c 1
 73 416 l 1
 112 444 176 462 225 462 c 0
 310 462 364 436 392 388 c 1
 427 433 479 462 546 462 c 0
 695 459 748 364 748 233 c 2
 748 226 l 1
 415 226 l 1
 415 218 l 2
 415 111 471 55 564 55 c 0
 650 55 698 79 748 123 c 1
 748 48 l 1
 707 8 621 -12 559 -12 c 0
 518 -12 414 0 378 80 c 1
EndSplineSet
Ligature2: "'rlig' Required Ligatures in Latin lookup 19 subtable" a e
EndChar

StartChar: ccedilla
Encoding: 231 231 167
Width: 442
GlyphClass: 2
Flags: MW
HStem: -202 47<224.5 238> 398 64<229.5 283>
VStem: 46 75<225 277.5 171 297> 240 53<-43 -10 -43 -10> 285 57<-129.5 -106.5 -149 -102>
LayerCount: 2
Fore
SplineSet
342 -121 m 0xe8
 342 -177 293 -200 238 -202 c 0
 192 -202 180 -193 152 -168 c 1
 180 -132 l 1
 200 -149 214 -155 235 -155 c 0
 262 -155 285 -144 285 -115 c 0xe8
 285 -89 240 -68 240 -43 c 2
 240 -10 l 1
 116 4 48 95 46 225 c 0
 46 369 132 462 279 462 c 0
 331 462 365 449 406 435 c 1
 406 360 l 1
 355 385 344 395 283 398 c 0
 176 398 121 330 121 225 c 0
 121 117 174 54 283 52 c 0
 346 52 357 65 406 90 c 1
 406 16 l 1
 372 4 335 -9 292 -11 c 1
 293 -43 l 2xf0
 294 -65 342 -92 342 -121 c 0xe8
EndSplineSet
EndChar

StartChar: egrave
Encoding: 232 232 168
Width: 496
GlyphClass: 2
Flags: MW
HStem: -12 67<225.5 298> 226 61<126 383 126 456 123 383> 398 64<216 254 187 293> 522 152<122 336 122 270>
VStem: 46 77<164.5 218 218 226 164.5 283.5> 122 214<522 674> 383 73
LayerCount: 2
Fore
SplineSet
336 522 m 1x14
 270 522 l 1
 122 674 l 1
 209 674 l 1
 336 522 l 1x14
383 287 m 1xea
 383 349 332 398 254 398 c 0
 178 398 135 347 126 287 c 1
 383 287 l 1xea
456 226 m 1
 123 226 l 1
 123 218 l 2
 123 111 179 55 272 55 c 0
 358 55 406 79 456 123 c 1
 456 48 l 1
 415 8 329 -12 267 -12 c 0
 129 -12 46 85 46 221 c 0
 46 346 120 462 254 462 c 0
 403 459 456 364 456 233 c 2
 456 226 l 1
EndSplineSet
EndChar

StartChar: eacute
Encoding: 233 233 169
Width: 496
GlyphClass: 2
Flags: MW
HStem: -12 67<225.5 298> 226 61<126 383 126 456 123 383> 398 64<216 254 187 293> 522 152<172 384 172 384>
VStem: 46 77<164.5 218 218 226 164.5 283.5> 172 213 383 73
LayerCount: 2
Fore
SplineSet
384 674 m 1x14
 238 522 l 1
 172 522 l 1
 296 674 l 1
 384 674 l 1x14
383 287 m 1xea
 383 349 332 398 254 398 c 0
 178 398 135 347 126 287 c 1
 383 287 l 1xea
456 226 m 1
 123 226 l 1
 123 218 l 2
 123 111 179 55 272 55 c 0
 358 55 406 79 456 123 c 1
 456 48 l 1
 415 8 329 -12 267 -12 c 0
 129 -12 46 85 46 221 c 0
 46 346 120 462 254 462 c 0
 403 459 456 364 456 233 c 2
 456 226 l 1
EndSplineSet
EndChar

StartChar: ecircumflex
Encoding: 234 234 170
Width: 496
GlyphClass: 2
Flags: MW
HStem: -12 67<225.5 298> 226 61<126 383 126 456 123 383> 398 64<216 254 187 293> 522 152<113 281 113 281 221 389 221 331>
VStem: 46 77<164.5 218 218 226 164.5 283.5> 113 276<522 522> 383 73
LayerCount: 2
Fore
SplineSet
389 522 m 1x14
 331 522 l 1
 251 618 l 1
 171 522 l 1
 113 522 l 1
 221 674 l 1
 281 674 l 1
 389 522 l 1x14
383 287 m 1xea
 383 349 332 398 254 398 c 0
 178 398 135 347 126 287 c 1
 383 287 l 1xea
456 226 m 1
 123 226 l 1
 123 218 l 2
 123 111 179 55 272 55 c 0
 358 55 406 79 456 123 c 1
 456 48 l 1
 415 8 329 -12 267 -12 c 0
 129 -12 46 85 46 221 c 0
 46 346 120 462 254 462 c 0
 403 459 456 364 456 233 c 2
 456 226 l 1
EndSplineSet
EndChar

StartChar: edieresis
Encoding: 235 235 171
Width: 496
GlyphClass: 2
Flags: MW
HStem: -12 67<225.5 298> 226 61<126 383 126 456 123 383> 398 64<216 254 187 293> 522 96<156 181 321 346>
VStem: 46 77<164.5 218 218 226 164.5 283.5> 124 90<556.5 583.5> 288 90<556.5 583.5> 383 73
LayerCount: 2
Fore
SplineSet
334 618 m 0
 358 618 378 597 378 570 c 0
 378 543 358 522 334 522 c 0
 308 522 288 543 288 570 c 0
 288 597 308 618 334 618 c 0
168 618 m 0
 194 618 214 597 214 570 c 0
 214 543 194 522 168 522 c 0
 144 522 124 543 124 570 c 0
 124 597 144 618 168 618 c 0
383 287 m 1
 383 349 332 398 254 398 c 0
 178 398 135 347 126 287 c 1
 383 287 l 1
456 226 m 1
 123 226 l 1
 123 218 l 2
 123 111 179 55 272 55 c 0
 358 55 406 79 456 123 c 1
 456 48 l 1
 415 8 329 -12 267 -12 c 0
 129 -12 46 85 46 221 c 0
 46 346 120 462 254 462 c 0
 403 459 456 364 456 233 c 2
 456 226 l 1
EndSplineSet
EndChar

StartChar: igrave
Encoding: 236 236 172
Width: 212
GlyphClass: 2
Flags: MW
HStem: 0 21<69 143 69 69> 431 20<69 143 143 143> 522 152<-1 213 -1 147>
VStem: -1 214<522 674> 69 74<0 451>
LayerCount: 2
Fore
SplineSet
213 522 m 1x30
 147 522 l 1
 -1 674 l 1
 86 674 l 1
 213 522 l 1x30
143 0 m 1xc8
 69 0 l 1
 69 451 l 1
 143 451 l 1
 143 0 l 1xc8
EndSplineSet
EndChar

StartChar: iacute
Encoding: 237 237 173
Width: 212
GlyphClass: 2
Flags: MW
HStem: 0 21<69 143 69 69> 431 20<69 143 143 143> 522 152<0 212 0 212>
VStem: 0 213 69 74<0 451>
LayerCount: 2
Fore
SplineSet
212 674 m 1x30
 66 522 l 1
 0 522 l 1
 124 674 l 1
 212 674 l 1x30
143 0 m 1xc8
 69 0 l 1
 69 451 l 1
 143 451 l 1
 143 0 l 1xc8
EndSplineSet
EndChar

StartChar: icircumflex
Encoding: 238 238 174
Width: 212
GlyphClass: 2
Flags: MW
HStem: 0 21<69 143 69 69> 431 20<69 143 143 143> 522 152<-32 136 -32 136 76 244 76 186>
VStem: -32 276<522 522> 69 74<0 451>
LayerCount: 2
Fore
SplineSet
244 522 m 1x30
 186 522 l 1
 106 618 l 1
 26 522 l 1
 -32 522 l 1
 76 674 l 1
 136 674 l 1
 244 522 l 1x30
143 0 m 1xc8
 69 0 l 1
 69 451 l 1
 143 451 l 1
 143 0 l 1xc8
EndSplineSet
EndChar

StartChar: idieresis
Encoding: 239 239 175
Width: 212
GlyphClass: 2
Flags: MW
HStem: 0 21<69 143 69 69> 431 20<69 143 143 143> 522 96<11 36 176 201>
VStem: -22 90<556.5 583.5> 69 74<0 451> 144 90<556.5 583.5>
CounterMasks: 1 1c
LayerCount: 2
Fore
SplineSet
188 618 m 0
 214 618 234 597 234 570 c 0
 234 543 214 522 188 522 c 0
 164 522 144 543 144 570 c 0
 144 597 164 618 188 618 c 0
24 618 m 0
 48 618 68 597 68 570 c 0
 68 543 48 522 24 522 c 0
 -2 522 -22 543 -22 570 c 0
 -22 597 -2 618 24 618 c 0
143 0 m 1
 69 0 l 1
 69 451 l 1
 143 451 l 1
 143 0 l 1
EndSplineSet
EndChar

StartChar: eth
Encoding: 240 240 176
Width: 520
GlyphClass: 2
Flags: MW
HStem: -12 68<209.5 306 209.5 326.5> 381 60<218.5 258 187 271>
VStem: 44 76<168 265.5 168 276.5> 396 75<168.5 245.5>
LayerCount: 2
Fore
SplineSet
396 215 m 0
 396 276 382 328 349 367 c 1
 322 374 294 378 271 381 c 0
 166 381 120 316 120 215 c 0
 120 121 161 56 258 56 c 0
 354 56 396 122 396 215 c 0
471 215 m 0
 471 80 395 -12 258 -12 c 0
 123 -12 44 83 44 215 c 0
 44 338 124 441 250 441 c 0
 266 441 266 440 295 440 c 1
 232 507 l 1
 97 465 l 1
 84 508 l 1
 200 545 l 1
 121 627 l 1
 219 627 l 1
 273 568 l 1
 414 615 l 1
 428 571 l 1
 304 531 l 1
 370 460 l 2
 436 388 471 312 471 215 c 0
EndSplineSet
EndChar

StartChar: ntilde
Encoding: 241 241 177
Width: 521
GlyphClass: 2
Flags: MW
HStem: 0 21<69 143 69 69 385 458 385 385> 396 66<267.5 318.5> 432 20<69 143 143 143> 522 52<316 320> 584 52<192 210>
VStem: 69 74<0 255 390 452> 128 49 350 49 385 73<0 270 270 272>
LayerCount: 2
Fore
SplineSet
400 636 m 1x1b
 400 582 376 524 320 522 c 0
 302 522 274 539 264 546 c 2
 210 584 l 1
 174 584 178 555 176 522 c 1
 128 522 l 1
 128 575 150 636 206 636 c 0
 230 636 248 625 262 612 c 2
 316 574 l 1
 348 574 350 606 350 636 c 1
 400 636 l 1x1b
458 0 m 1xc480
 385 0 l 1
 385 270 l 2
 385 350 358 396 279 396 c 0xc480
 199 396 145 341 143 255 c 2
 143 0 l 1
 69 0 l 1
 69 452 l 1
 143 452 l 1xa480
 143 390 l 1
 179 440 238 462 297 462 c 0
 412 462 458 379 458 272 c 2
 458 0 l 1xc480
EndSplineSet
EndChar

StartChar: ograve
Encoding: 242 242 178
Width: 519
GlyphClass: 2
Flags: MW
HStem: -12 68<258 258> 395 67<258 258> 522 152<151 365 151 299>
VStem: 45 76 151 214<522 674> 397 74<225 225>
LayerCount: 2
Fore
SplineSet
365 522 m 1
 299 522 l 1
 151 674 l 1
 238 674 l 1
 365 522 l 1
397 225 m 0
 396 312 346 394 258 395 c 0
 165 394 121 318 121 228 c 0
 121 159 146 58 258 56 c 0
 342 56 396 136 397 225 c 0
471 225 m 0
 470 98 394 -10 258 -12 c 0
 126 -10 46 102 45 225 c 0
 46 358 122 462 258 462 c 0
 409 462 471 340 471 225 c 0
EndSplineSet
EndChar

StartChar: oacute
Encoding: 243 243 179
Width: 519
GlyphClass: 2
Flags: MW
HStem: -12 68<258 258> 395 67<258 258> 522 152<152 364 152 364>
VStem: 45 76 152 213 397 74<225 225>
LayerCount: 2
Fore
SplineSet
364 674 m 1
 218 522 l 1
 152 522 l 1
 276 674 l 1
 364 674 l 1
397 225 m 0
 396 312 346 394 258 395 c 0
 165 394 121 318 121 228 c 0
 121 159 146 58 258 56 c 0
 342 56 396 136 397 225 c 0
471 225 m 0
 470 98 394 -10 258 -12 c 0
 126 -10 46 102 45 225 c 0
 46 358 122 462 258 462 c 0
 409 462 471 340 471 225 c 0
EndSplineSet
EndChar

StartChar: ocircumflex
Encoding: 244 244 180
Width: 519
GlyphClass: 2
Flags: MW
HStem: -12 68<258 258> 395 67<258 258> 522 152<120 288 120 288 228 396 228 338>
VStem: 45 76 120 276<522 522> 397 74<225 225>
LayerCount: 2
Fore
SplineSet
396 522 m 1x28
 338 522 l 1
 258 618 l 1
 178 522 l 1
 120 522 l 1
 228 674 l 1
 288 674 l 1
 396 522 l 1x28
397 225 m 0xd4
 396 312 346 394 258 395 c 0
 165 394 121 318 121 228 c 0
 121 159 146 58 258 56 c 0
 342 56 396 136 397 225 c 0xd4
471 225 m 0
 470 98 394 -10 258 -12 c 0
 126 -10 46 102 45 225 c 0
 46 358 122 462 258 462 c 0
 409 462 471 340 471 225 c 0
EndSplineSet
EndChar

StartChar: otilde
Encoding: 245 245 181
Width: 519
GlyphClass: 2
Flags: MW
HStem: -12 68<258 258> 395 67<258 258> 522 52<311 314> 584 52<187 205>
VStem: 45 76 122 49<522 548.5> 345 49<609 636> 397 74<225 225>
LayerCount: 2
Fore
SplineSet
394 636 m 1
 394 582 370 524 314 522 c 0
 296 522 268 539 259 546 c 2
 205 584 l 1
 169 584 172 555 171 522 c 1
 122 522 l 1
 122 575 145 636 201 636 c 0
 224 636 243 625 256 612 c 2
 311 574 l 1
 343 574 344 606 345 636 c 1
 394 636 l 1
397 225 m 0
 396 312 346 394 258 395 c 0
 165 394 121 318 121 228 c 0
 121 159 146 58 258 56 c 0
 342 56 396 136 397 225 c 0
471 225 m 0
 470 98 394 -10 258 -12 c 0
 126 -10 46 102 45 225 c 0
 46 358 122 462 258 462 c 0
 409 462 471 340 471 225 c 0
EndSplineSet
EndChar

StartChar: odieresis
Encoding: 246 246 182
Width: 519
GlyphClass: 2
Flags: MW
HStem: -12 68<258 258> 395 67<258 258> 522 96<163 188 328 353>
VStem: 45 76 130 90<556.5 583.5> 296 90<556.5 583.5> 397 74<225 225>
LayerCount: 2
Fore
SplineSet
340 618 m 0
 366 618 386 597 386 570 c 0
 386 543 366 522 340 522 c 0
 316 522 296 543 296 570 c 0
 296 597 316 618 340 618 c 0
176 618 m 0
 200 618 220 597 220 570 c 0
 220 543 200 522 176 522 c 0
 150 522 130 543 130 570 c 0
 130 597 150 618 176 618 c 0
397 225 m 0
 396 312 346 394 258 395 c 0
 165 394 121 318 121 228 c 0
 121 159 146 58 258 56 c 0
 342 56 396 136 397 225 c 0
471 225 m 0
 470 98 394 -10 258 -12 c 0
 126 -10 46 102 45 225 c 0
 46 358 122 462 258 462 c 0
 409 462 471 340 471 225 c 0
EndSplineSet
EndChar

StartChar: divide
Encoding: 247 247 183
Width: 471
GlyphClass: 2
Flags: MW
HStem: 44 116<222.5 255.5> 224 70<22 449 22 449> 342 116<222.5 255.5>
VStem: 180 118<86 118 384 416>
LayerCount: 2
Fore
SplineSet
180 102 m 0
 180 134 206 160 239 160 c 0
 272 160 298 134 298 102 c 0
 298 70 272 44 239 44 c 0
 206 44 180 70 180 102 c 0
180 400 m 0
 180 432 206 458 239 458 c 0
 272 458 298 432 298 400 c 0
 298 368 272 342 239 342 c 0
 206 342 180 368 180 400 c 0
449 224 m 1
 22 224 l 1
 22 294 l 1
 449 294 l 1
 449 224 l 1
EndSplineSet
EndChar

StartChar: oslash
Encoding: 248 248 184
Width: 537
GlyphClass: 2
Flags: MW
HStem: -11 68<272 316 272 341> 394 66<223.5 263 263 272>
VStem: 51 76<216.5 237.5 216.5 296> 406 73<225 231 231 245>
LayerCount: 2
Fore
SplineSet
406 225 m 2
 406 231 l 2
 406 259 400 290 387 314 c 1
 182 86 l 1
 212 59 223 60 272 57 c 0
 360 57 405 148 406 225 c 2
357 356 m 1
 337 378 301 394 272 394 c 2
 263 394 l 2
 184 394 152 345 129 264 c 0
 128 254 127 243 127 232 c 0
 127 201 132 165 147 128 c 1
 357 356 l 1
502 454 m 1
 435 378 l 1
 465 328 479 288 479 226 c 0
 479 98 410 -11 272 -11 c 0
 222 -11 171 10 137 32 c 1
 79 -38 l 1
 40 -3 l 1
 103 69 l 1
 74 110 51 163 51 225 c 0
 51 367 134 460 272 460 c 0
 342 460 352 444 403 414 c 1
 465 488 l 1
 502 454 l 1
EndSplineSet
EndChar

StartChar: ugrave
Encoding: 249 249 185
Width: 524
GlyphClass: 2
Flags: MW
HStem: -12 66<204 256.5> 0 21<378 455 378 378> 431 20<64 137 137 137 378 455 455 455> 522 152<152 366 152 300>
VStem: 64 73<178 180 180 451> 152 214<522 674> 378 77<0 59 59 59 196 451>
LayerCount: 2
Fore
SplineSet
366 522 m 1x14
 300 522 l 1
 152 674 l 1
 240 674 l 1
 366 522 l 1x14
455 0 m 1x6a
 378 0 l 1x6a
 378 59 l 1
 345 20 286 -12 227 -12 c 0
 114 -12 64 72 64 178 c 2
 64 451 l 1
 137 451 l 1
 137 180 l 2
 137 103 164 54 244 54 c 0xaa
 335 54 378 111 378 196 c 2
 378 451 l 1
 455 451 l 1
 455 0 l 1x6a
EndSplineSet
EndChar

StartChar: uacute
Encoding: 250 250 186
Width: 524
GlyphClass: 2
Flags: MW
HStem: -12 66<204 256.5> 0 21<378 455 378 378> 431 20<64 137 137 137 378 455 455 455> 522 152<153 366 153 366>
VStem: 64 73<178 180 180 451> 153 213<522 674> 378 77<0 59 59 59 196 451>
LayerCount: 2
Fore
SplineSet
366 674 m 1x14
 219 522 l 1
 153 522 l 1
 278 674 l 1
 366 674 l 1x14
455 0 m 1x6a
 378 0 l 1x6a
 378 59 l 1
 345 20 286 -12 227 -12 c 0
 114 -12 64 72 64 178 c 2
 64 451 l 1
 137 451 l 1
 137 180 l 2
 137 103 164 54 244 54 c 0xaa
 335 54 378 111 378 196 c 2
 378 451 l 1
 455 451 l 1
 455 0 l 1x6a
EndSplineSet
EndChar

StartChar: ucircumflex
Encoding: 251 251 187
Width: 524
GlyphClass: 2
Flags: MW
HStem: -12 66<204 256.5> 0 21<378 455 378 378> 431 20<64 137 137 137 378 455 455 455> 522 152<122 290 122 290 230 398 230 340>
VStem: 64 73<178 180 180 451> 122 276<522 522> 378 77<0 59 59 59 196 451>
LayerCount: 2
Fore
SplineSet
398 522 m 1x14
 340 522 l 1
 260 618 l 1
 180 522 l 1
 122 522 l 1
 230 674 l 1
 290 674 l 1
 398 522 l 1x14
455 0 m 1x6a
 378 0 l 1x6a
 378 59 l 1
 345 20 286 -12 227 -12 c 0
 114 -12 64 72 64 178 c 2
 64 451 l 1
 137 451 l 1
 137 180 l 2
 137 103 164 54 244 54 c 0xaa
 335 54 378 111 378 196 c 2
 378 451 l 1
 455 451 l 1
 455 0 l 1x6a
EndSplineSet
EndChar

StartChar: udieresis
Encoding: 252 252 188
Width: 524
GlyphClass: 2
Flags: MW
HStem: -12 66<204 256.5> 0 21<378 455 378 378> 431 20<64 137 137 137 378 455 455 455> 522 96<164.5 189.5 329.5 354.5>
VStem: 64 73<178 180 180 451> 132 90<556.5 583.5> 297 90<556.5 583.5> 378 77<0 59 59 59 196 451>
LayerCount: 2
Fore
SplineSet
342 618 m 0x16
 367 618 387 597 387 570 c 0
 387 543 367 522 342 522 c 0
 317 522 297 543 297 570 c 0
 297 597 317 618 342 618 c 0x16
177 618 m 0
 202 618 222 597 222 570 c 0
 222 543 202 522 177 522 c 0
 152 522 132 543 132 570 c 0
 132 597 152 618 177 618 c 0
455 0 m 1x69
 378 0 l 1x69
 378 59 l 1
 345 20 286 -12 227 -12 c 0
 114 -12 64 72 64 178 c 2
 64 451 l 1
 137 451 l 1
 137 180 l 2
 137 103 164 54 244 54 c 0xa9
 335 54 378 111 378 196 c 2
 378 451 l 1
 455 451 l 1
 455 0 l 1x69
EndSplineSet
EndChar

StartChar: yacute
Encoding: 253 253 189
Width: 474
GlyphClass: 2
Flags: MW
HStem: -241 51<60 85> 431 20<15 86 86 86 388 457 457 457> 522 152<166 378 166 378>
VStem: 166 213
LayerCount: 2
Fore
SplineSet
378 674 m 1
 232 522 l 1
 166 522 l 1
 290 674 l 1
 378 674 l 1
457 451 m 1
 186 -173 l 1
 162 -212 123 -239 85 -241 c 1
 60 -190 l 1
 80 -190 122 -166 135 -135 c 2
 212 47 l 1
 15 451 l 1
 86 451 l 1
 249 121 l 1
 388 451 l 1
 457 451 l 1
EndSplineSet
EndChar

StartChar: thorn
Encoding: 254 254 190
Width: 557
GlyphClass: 2
Flags: MW
HStem: -241 21G<69 142 69 69> -12 64<232 243 220 329> 398 64<243 302> 672 20G<69 144 144 144>
VStem: 69 75<69 380 69 449 449 692> 421 75<225 277.5>
LayerCount: 2
Fore
SplineSet
144 380 m 1
 144 69 l 1
 171 58 197 52 243 52 c 0
 363 54 421 117 421 225 c 0
 421 330 361 398 243 398 c 0
 198 396 173 391 144 380 c 1
69 692 m 1
 144 692 l 1
 144 449 l 1
 175 457 208 462 245 462 c 0
 403 462 496 369 496 225 c 0
 494 84 407 -12 251 -12 c 0
 213 -12 178 -9 142 -1 c 1
 142 -241 l 1
 69 -241 l 1
 69 692 l 1
EndSplineSet
EndChar

StartChar: ydieresis
Encoding: 255 255 191
Width: 474
GlyphClass: 2
Flags: MW
HStem: -241 51<60 85> 431 20<15 86 86 86 388 457 457 457> 522 96<141 166 306 331>
VStem: 108 90<556.5 583.5> 274 90<556.5 583.5>
LayerCount: 2
Fore
SplineSet
318 618 m 0
 344 618 364 597 364 570 c 0
 364 543 344 522 318 522 c 0
 294 522 274 543 274 570 c 0
 274 597 294 618 318 618 c 0
154 618 m 0
 178 618 198 597 198 570 c 0
 198 543 178 522 154 522 c 0
 128 522 108 543 108 570 c 0
 108 597 128 618 154 618 c 0
457 451 m 1
 186 -173 l 1
 162 -212 123 -239 85 -241 c 1
 60 -190 l 1
 80 -190 122 -166 135 -135 c 2
 212 47 l 1
 15 451 l 1
 86 451 l 1
 249 121 l 1
 388 451 l 1
 457 451 l 1
EndSplineSet
EndChar

StartChar: Idotaccent
Encoding: 304 304 192
Width: 213
GlyphClass: 2
Flags: MW
HStem: 0 21<69 144 69 69> 672 20<69 144 144 144> 764 94<94 118>
VStem: 62 88<799 823> 69 75<0 692>
LayerCount: 2
Fore
SplineSet
106 858 m 0x30
 130 858 150 835 150 811 c 0
 150 787 130 764 106 764 c 0
 82 764 62 787 62 811 c 0
 62 835 82 858 106 858 c 0x30
144 0 m 1xc8
 69 0 l 1
 69 692 l 1
 144 692 l 1
 144 0 l 1xc8
EndSplineSet
EndChar

StartChar: dotlessi
Encoding: 305 305 193
Width: 212
GlyphClass: 2
Flags: MW
HStem: 0 21G<69 143 69 69> 431 20G<69 143 143 143>
VStem: 69 74<0 451>
LayerCount: 2
Fore
SplineSet
143 0 m 1
 69 0 l 1
 69 451 l 1
 143 451 l 1
 143 0 l 1
EndSplineSet
EndChar

StartChar: Lslash
Encoding: 321 321 194
Width: 548
GlyphClass: 2
Flags: MW
HStem: 0 72<192 542 192 542> 672 20G<115 192 192 192>
VStem: 115 77<72 268 268 268 402 692>
LayerCount: 2
Fore
SplineSet
542 0 m 1
 115 0 l 1
 115 268 l 1
 42 218 l 1
 12 266 l 1
 115 337 l 1
 115 692 l 1
 192 692 l 1
 192 402 l 1
 348 505 l 1
 378 459 l 1
 192 333 l 1
 192 72 l 1
 542 72 l 1
 542 0 l 1
EndSplineSet
Position2: "'cpsp' Capital Spacing in Latin lookup 0 subtable" dx=5 dy=0 dh=10 dv=0
EndChar

StartChar: lslash
Encoding: 322 322 195
Width: 282
GlyphClass: 2
Flags: MW
HStem: 0 21G<104 178 104 104> 672 20G<104 178 178 178>
VStem: 104 74<0 351 351 351 466 692>
LayerCount: 2
Fore
SplineSet
178 0 m 1
 104 0 l 1
 104 351 l 1
 28 300 l 1
 28 366 l 1
 104 417 l 1
 104 692 l 1
 178 692 l 1
 178 466 l 1
 256 518 l 1
 256 452 l 1
 178 400 l 1
 178 0 l 1
EndSplineSet
EndChar

StartChar: OE
Encoding: 338 338 196
Width: 957
GlyphClass: 3
Flags: MW
HStem: 0 72<429 440 440 497 571 935> 332 72<571 909 571 909> 620 72<326 924 440 497 571 571 571 924>
VStem: 39 75<250 465.5> 497 74<72 332 404 620>
LayerCount: 2
Fore
SplineSet
497 72 m 1
 497 620 l 1
 429 620 l 2
 223 620 116 540 114 346 c 0
 114 154 223 72 429 72 c 2
 497 72 l 1
935 0 m 1
 440 0 l 2
 189 0 41 108 39 346 c 0
 39 585 193 692 440 692 c 2
 924 692 l 1
 924 620 l 1
 571 620 l 1
 571 404 l 1
 909 404 l 1
 909 332 l 1
 571 332 l 1
 571 72 l 1
 935 72 l 1
 935 0 l 1
EndSplineSet
Ligature2: "'rlig' Required Ligatures in Latin lookup 19 subtable" O e
Ligature2: "'rlig' Required Ligatures in Latin lookup 19 subtable" O E
Position2: "'cpsp' Capital Spacing in Latin lookup 0 subtable" dx=5 dy=0 dh=10 dv=0
EndChar

StartChar: oe
Encoding: 339 339 197
Width: 846
GlyphClass: 3
Flags: MW
HStem: -12 68<258 258> 226 61<476 733 476 806 473 733> 395 67<258 258>
VStem: 45 76 396 77<209 218 218 221 221 226 164.5 238 164.5 238> 733 73
LayerCount: 2
Fore
SplineSet
806 226 m 1
 473 226 l 1
 473 218 l 2
 473 111 529 55 622 55 c 0
 708 55 756 79 806 123 c 1
 806 48 l 1
 765 8 679 -12 617 -12 c 0
 533 -12 469 24 432 83 c 1
 397 27 338 -11 258 -12 c 0
 126 -10 46 102 45 225 c 0
 46 358 122 462 258 462 c 0
 344 462 401 422 435 367 c 1
 469 423 527 462 604 462 c 0
 753 459 806 364 806 233 c 2
 806 226 l 1
733 287 m 1
 733 349 682 398 604 398 c 0
 528 398 485 347 476 287 c 1
 733 287 l 1
396 209 m 0
 396 213 396 217 396 221 c 0
 396 227 396 232 396 238 c 0
 391 320 342 394 258 395 c 0
 165 394 121 318 121 228 c 0
 121 159 146 58 258 56 c 0
 337 56 389 127 396 209 c 0
EndSplineSet
Ligature2: "'rlig' Required Ligatures in Latin lookup 19 subtable" o e
EndChar

StartChar: Scaron
Encoding: 352 352 198
Width: 444
GlyphClass: 2
Flags: MW
HStem: -14 67<180 234.5 171 265> 636 68<204.5 245.5 170 267> 764 152<88 256 88 196>
VStem: 42 71<475 515 475 576> 88 277 336 75<134 224.5>
LayerCount: 2
Fore
SplineSet
364 916 m 1x28
 256 764 l 1
 196 764 l 1
 88 916 l 1
 146 916 l 1
 228 820 l 1
 306 916 l 1
 364 916 l 1x28
411 188 m 0xd4
 411 37 321 -14 209 -14 c 0
 151 -14 94 8 41 29 c 1
 41 120 l 1
 90 80 140 53 202 53 c 0
 267 53 336 87 336 181 c 0
 336 268 294 292 236 312 c 1
 196 322 l 2
 101 347 42 387 42 508 c 0
 42 644 118 704 222 704 c 0
 269 704 333 690 373 668 c 1
 373 586 l 1
 324 618 297 636 237 636 c 0
 172 636 115 607 113 515 c 0
 113 435 157 417 211 402 c 2
 253 392 l 2
 347 366 411 312 411 188 c 0xd4
EndSplineSet
Position2: "'cpsp' Capital Spacing in Latin lookup 0 subtable" dx=5 dy=0 dh=10 dv=0
EndChar

StartChar: scaron
Encoding: 353 353 199
Width: 388
GlyphClass: 2
Flags: MW
HStem: -12 63<186 204.5 186 222.5> 399 63<186 207> 522 152<56 226 56 166>
VStem: 49 67<328 333 308.5 378> 56 277 275 72<117 146>
LayerCount: 2
Fore
SplineSet
334 674 m 1x28
 226 522 l 1
 166 522 l 1
 56 674 l 1
 116 674 l 1
 196 578 l 1
 276 674 l 1
 334 674 l 1x28
347 124 m 0xd4
 347 19 261 -12 184 -12 c 0
 141 -12 79 4 43 16 c 1
 43 96 l 1
 100 66 118 54 186 51 c 0
 223 51 273 64 275 117 c 0
 275 175 226 182 186 194 c 2
 165 200 l 2
 95 217 51 244 49 328 c 0
 49 428 123 462 199 462 c 0
 246 462 285 453 325 437 c 1
 325 363 l 1
 274 390 269 396 207 399 c 0
 165 399 118 387 116 333 c 0
 116 284 165 273 198 265 c 2
 217 259 l 1
 290 241 347 215 347 124 c 0xd4
EndSplineSet
EndChar

StartChar: Ydieresis
Encoding: 376 376 200
Width: 579
GlyphClass: 2
Flags: MW
HStem: 0 21<252 327 252 252> 672 20<0 90 90 90 490 580 580 580> 764 96<195 220 360 385>
VStem: 162 90<798.5 825.5> 252 75<0 330 0 330> 328 90<798.5 825.5>
LayerCount: 2
Fore
SplineSet
372 860 m 0x34
 398 860 418 839 418 812 c 0
 418 785 398 764 372 764 c 0
 348 764 328 785 328 812 c 0
 328 839 348 860 372 860 c 0x34
208 860 m 0
 232 860 252 839 252 812 c 0
 252 785 232 764 208 764 c 0
 182 764 162 785 162 812 c 0
 162 839 182 860 208 860 c 0
580 692 m 1xc8
 327 330 l 1
 327 0 l 1
 252 0 l 1
 252 330 l 1
 0 692 l 1
 90 692 l 1
 290 401 l 1
 490 692 l 1
 580 692 l 1xc8
EndSplineSet
Position2: "'cpsp' Capital Spacing in Latin lookup 0 subtable" dx=5 dy=0 dh=10 dv=0
EndChar

StartChar: Zcaron
Encoding: 381 381 201
Width: 616
GlyphClass: 2
Flags: MW
HStem: 0 72<128 595 128 595> 618 74<35 478 35 583> 764 152<172 340 172 280>
VStem: 172 277
LayerCount: 2
Fore
SplineSet
448 916 m 1
 340 764 l 1
 280 764 l 1
 172 916 l 1
 230 916 l 1
 312 820 l 1
 390 916 l 1
 448 916 l 1
595 0 m 1
 25 0 l 1
 25 67 l 1
 478 618 l 1
 35 618 l 1
 35 692 l 1
 583 692 l 1
 582 626 l 1
 128 72 l 1
 595 72 l 1
 595 0 l 1
EndSplineSet
Position2: "'cpsp' Capital Spacing in Latin lookup 0 subtable" dx=5 dy=0 dh=10 dv=0
EndChar

StartChar: zcaron
Encoding: 382 382 202
Width: 450
GlyphClass: 2
Flags: MW
HStem: 0 66<147 410 147 410> 385 66<46 296 46 410> 522 152<84 254 84 194>
VStem: 84 277
LayerCount: 2
Fore
SplineSet
362 674 m 1
 254 522 l 1
 194 522 l 1
 84 674 l 1
 144 674 l 1
 224 578 l 1
 304 674 l 1
 362 674 l 1
410 0 m 1
 36 0 l 1
 36 29 l 1
 296 385 l 1
 46 385 l 1
 46 451 l 1
 410 451 l 1
 410 425 l 1
 147 66 l 1
 410 66 l 1
 410 0 l 1
EndSplineSet
EndChar

StartChar: longs
Encoding: 383 383 203
Width: 250
GlyphClass: 2
Flags: MW
HStem: 0 21G<100 175 100 100> 391 60<53 100 53 100 27 100> 628 64<210 274 225 274 225 274>
VStem: 100 75<0 391 391 391 451 513 513 513>
LayerCount: 2
Fore
SplineSet
175 521 m 2
 175 0 l 1
 100 0 l 1
 100 391 l 1
 27 391 l 1
 53 451 l 1
 100 451 l 1
 100 513 l 2
 103 644 154 691 225 692 c 2
 274 692 l 1
 274 628 l 1
 224 628 l 2
 196 628 175 608 175 521 c 2
EndSplineSet
EndChar

StartChar: florin
Encoding: 402 402 204
Width: 554
GlyphClass: 2
Flags: MW
HStem: -198 67<85 104 81.5 120> 324 69<147 253 147 268 347 472 147 335> 654 67<463 468 461 477>
LayerCount: 2
Fore
SplineSet
547 618 m 1
 530 636 522 644 515 648 c 0
 504 653 491 653 477 654 c 0
 449 654 426 645 409 626 c 0
 391 609 378 577 371 537 c 2
 347 393 l 1
 472 393 l 1
 472 324 l 1
 335 324 l 1
 276 32 l 2
 261 -57 239 -116 213 -148 c 0
 187 -179 147 -198 93 -198 c 0
 77 -198 61 -196 47 -193 c 0
 33 -189 21 -186 6 -178 c 1
 6 -94 l 1
 26 -111 34 -119 46 -123 c 0
 61 -127 74 -131 89 -131 c 0
 119 -131 142 -120 158 -98 c 0
 174 -80 186 -42 198 10 c 2
 253 324 l 1
 147 324 l 1
 147 393 l 1
 268 393 l 1
 299 544 l 2
 309 601 328 645 355 674 c 0
 383 704 417 720 461 721 c 0
 475 721 492 719 505 716 c 0
 518 713 531 711 547 704 c 1
 547 618 l 1
EndSplineSet
EndChar

StartChar: circumflex
Encoding: 710 710 205
Width: 345
GlyphClass: 2
Flags: MW
HStem: 508 152<34 202 34 202 142 310 142 252>
VStem: 34 276<508 508>
LayerCount: 2
Fore
SplineSet
310 508 m 1
 252 508 l 1
 172 604 l 1
 92 508 l 1
 34 508 l 1
 142 660 l 1
 202 660 l 1
 310 508 l 1
EndSplineSet
EndChar

StartChar: caron
Encoding: 711 711 206
Width: 356
GlyphClass: 2
Flags: MW
HStem: 508 152<40 209 40 149>
VStem: 40 277<660 660>
LayerCount: 2
Fore
SplineSet
317 660 m 1
 209 508 l 1
 149 508 l 1
 40 660 l 1
 99 660 l 1
 180 564 l 1
 259 660 l 1
 317 660 l 1
EndSplineSet
EndChar

StartChar: breve
Encoding: 728 728 207
Width: 370
GlyphClass: 2
Flags: MW
HStem: 532 55<159 211.5 159 222>
VStem: 53 48<647 647> 270 47<647 647>
LayerCount: 2
Fore
SplineSet
317 647 m 1
 313 570 259 532 185 532 c 0
 106 532 62 571 53 647 c 1
 101 647 l 1
 109 603 133 587 185 587 c 0
 238 587 260 602 270 647 c 1
 317 647 l 1
EndSplineSet
EndChar

StartChar: dotaccent
Encoding: 729 729 208
Width: 203
GlyphClass: 2
Flags: MW
HStem: 598 94<86 110>
VStem: 54 88<633 657>
LayerCount: 2
Fore
SplineSet
98 692 m 0
 122 692 142 669 142 645 c 0
 142 621 122 598 98 598 c 0
 74 598 54 621 54 645 c 0
 54 669 74 692 98 692 c 0
EndSplineSet
EndChar

StartChar: ring
Encoding: 730 730 209
Width: 334
GlyphClass: 2
Flags: MW
HStem: 502 49<147 181 147 195> 675 51<147 181>
VStem: 52 51<596 630 596 645> 225 51<596 630>
LayerCount: 2
Fore
SplineSet
164 675 m 0
 130 675 103 647 103 613 c 0
 103 579 130 551 164 551 c 0
 198 551 225 579 225 613 c 0
 225 647 198 675 164 675 c 0
164 726 m 0
 226 726 276 676 276 614 c 0
 276 552 226 502 164 502 c 0
 102 502 52 552 52 614 c 0
 52 676 102 726 164 726 c 0
EndSplineSet
EndChar

StartChar: ogonek
Encoding: 731 731 210
Width: 253
GlyphClass: 2
Flags: MW
HStem: -160 50<158 167.5> -20 20G<94 149 149 149>
VStem: 49 53<-89 -70.5>
LayerCount: 2
Fore
SplineSet
209 -151 m 1
 193 -155 175 -160 160 -160 c 0
 156 -160 153 -160 150 -159 c 0
 94 -159 49 -145 49 -87 c 0
 49 -54 77 -20 94 0 c 1
 149 0 l 1
 133 -17 102 -43 102 -74 c 0
 102 -104 132 -109 155 -110 c 0
 181 -110 193 -104 209 -88 c 1
 209 -151 l 1
EndSplineSet
EndChar

StartChar: tilde
Encoding: 732 732 211
Width: 378
GlyphClass: 2
Flags: MW
HStem: 526 52<236 239> 588 52<112 130>
VStem: 47 49<526 552.5> 270 49<613 640>
LayerCount: 2
Fore
SplineSet
319 640 m 1
 319 586 295 528 239 526 c 0
 221 526 193 543 184 550 c 2
 130 588 l 1
 94 588 97 559 96 526 c 1
 47 526 l 1
 47 579 70 640 126 640 c 0
 149 640 168 629 181 616 c 2
 236 578 l 1
 268 578 269 610 270 640 c 1
 319 640 l 1
EndSplineSet
EndChar

StartChar: hungarumlaut
Encoding: 733 733 212
Width: 380
GlyphClass: 2
Flags: MW
HStem: 508 152<39 195 39 195 177 177 177 195 124 233>
VStem: 39 301<508 660>
LayerCount: 2
Fore
SplineSet
195 660 m 1
 96 508 l 1
 39 508 l 1
 124 660 l 1
 195 660 l 1
340 660 m 1
 233 508 l 1
 177 508 l 1
 266 660 l 1
 340 660 l 1
EndSplineSet
EndChar

StartChar: pi
Encoding: 960 960 213
Width: 538
GlyphClass: 2
Flags: MW
HStem: -7 52<391 426.5> -7 52<391 426.5> 374 58<127.5 521 158 160 223 371 223 223 432 509 432 432>
VStem: 26 53<318 318> 317 55<60 93>
LayerCount: 2
Fore
SplineSet
521 432 m 1xb8
 509 374 l 1
 432 374 l 1
 386 172 l 2
 381 151 378 135 376 122 c 0
 374 110 373 100 372 93 c 0
 372 77 376 64 384 56 c 0
 392 49 407 45 424 45 c 0
 429 45 436 45 441 46 c 0
 445 47 450 48 460 51 c 1
 448 -2 l 1
 439 -3 433 -4 428 -5 c 0
 420 -6 413 -6 406 -7 c 0
 376 -7 352 0 337 14 c 0
 324 27 317 47 317 73 c 0
 317 84 318 100 321 119 c 0
 325 140 330 171 339 214 c 2
 371 374 l 1
 223 374 l 1
 143 -2 l 1
 80 -2 l 1
 160 374 l 1
 136 374 l 2
 119 374 106 370 95 359 c 0
 86 351 81 339 79 318 c 1
 26 318 l 1
 34 362 48 390 65 404 c 0
 85 423 116 432 158 432 c 2
 521 432 l 1xb8
EndSplineSet
EndChar

StartChar: uni2010
Encoding: 8208 8208 226
Width: 366
GlyphClass: 2
Flags: MW
HStem: 193 66<69 297 69 297>
VStem: 69 228<193 259 193 259>
LayerCount: 2
Fore
SplineSet
69 193 m 1
 69 259 l 1
 297 259 l 1
 297 193 l 1
 69 193 l 1
EndSplineSet
EndChar

StartChar: uni2011
Encoding: 8209 8209 227
Width: 366
GlyphClass: 2
Flags: MW
HStem: 193 66<69 297 69 297>
VStem: 69 228<193 259 193 259>
LayerCount: 2
Fore
SplineSet
69 193 m 1
 69 259 l 1
 297 259 l 1
 297 193 l 1
 69 193 l 1
EndSplineSet
EndChar

StartChar: figuredash
Encoding: 8210 8210 228
Width: 550
GlyphClass: 2
Flags: MW
HStem: 193 66<69 481 69 481>
LayerCount: 2
Fore
SplineSet
69 193 m 1
 69 259 l 1
 481 259 l 1
 481 193 l 1
 69 193 l 1
EndSplineSet
EndChar

StartChar: endash
Encoding: 8211 8211 229
Width: 500
GlyphClass: 2
Flags: MW
HStem: 193 66<69 431 69 431>
LayerCount: 2
Fore
SplineSet
69 193 m 1
 69 259 l 1
 431 259 l 1
 431 193 l 1
 69 193 l 1
EndSplineSet
EndChar

StartChar: emdash
Encoding: 8212 8212 230
Width: 1000
GlyphClass: 2
Flags: MW
HStem: 193 66<69 931 69 931>
LayerCount: 2
Fore
SplineSet
69 193 m 1
 69 259 l 1
 931 259 l 1
 931 193 l 1
 69 193 l 1
EndSplineSet
EndChar

StartChar: afii00208
Encoding: 8213 8213 231
Width: 2000
GlyphClass: 2
Flags: MW
HStem: 193 66<69 1931 69 1931>
LayerCount: 2
Fore
SplineSet
69 193 m 1
 69 259 l 1
 1931 259 l 1
 1931 193 l 1
 69 193 l 1
EndSplineSet
EndChar

StartChar: uni2016
Encoding: 8214 8214 232
Width: 420
GlyphClass: 2
Flags: MW
VStem: 69 72<-224 724> 279 72<-224 724>
LayerCount: 2
Fore
SplineSet
351 -224 m 1
 279 -224 l 1
 279 724 l 1
 351 724 l 1
 351 -224 l 1
141 -224 m 1
 69 -224 l 1
 69 724 l 1
 141 724 l 1
 141 -224 l 1
EndSplineSet
EndChar

StartChar: quoteleft
Encoding: 8216 8216 233
Width: 220
GlyphClass: 2
Flags: MW
HStem: 498 198
VStem: 53 83<498 623 568 623> 53 90<498 567 498 568 498 568>
LayerCount: 2
Fore
SplineSet
53 498 m 1xa0
 53 568 l 2xa0
 54 618 130 694 182 696 c 1
 154 678 136 641 136 605 c 0xc0
 136 592 138 579 143 567 c 1
 143 498 l 1
 53 498 l 1xa0
EndSplineSet
EndChar

StartChar: quoteright
Encoding: 8217 8217 234
Width: 220
GlyphClass: 2
Flags: MW
HStem: 494 198
VStem: 75 90<623 692 622 692> 82 83<567 692>
LayerCount: 2
Fore
SplineSet
165 692 m 1xc0
 165 622 l 2xc0
 164 572 88 496 36 494 c 1
 64 512 82 549 82 585 c 0xa0
 82 598 80 611 75 623 c 1
 75 692 l 1
 165 692 l 1xc0
EndSplineSet
EndChar

StartChar: quotesinglbase
Encoding: 8218 8218 235
Width: 220
GlyphClass: 2
Flags: MW
HStem: -109 198
VStem: 74 90<20 89 19 89> 81 83<-36 89>
LayerCount: 2
Fore
SplineSet
164 89 m 1xc0
 164 19 l 2xc0
 163 -31 87 -107 35 -109 c 1
 63 -91 81 -54 81 -18 c 0xa0
 81 -5 79 8 74 20 c 1
 74 89 l 1
 164 89 l 1xc0
EndSplineSet
EndChar

StartChar: quotereversed
Encoding: 8219 8219 236
Width: 220
GlyphClass: 2
Flags: MW
HStem: 494 198
VStem: 36 90<623 692 623 692 623 692>
LayerCount: 2
Fore
SplineSet
36 692 m 1
 126 692 l 1
 126 623 l 1
 121 611 119 598 119 585 c 0
 119 549 137 512 165 494 c 1
 113 496 37 572 36 622 c 2
 36 692 l 1
EndSplineSet
EndChar

StartChar: quotedblleft
Encoding: 8220 8220 237
Width: 387
GlyphClass: 2
Flags: MW
HStem: 498 198
VStem: 53 83<498 623 568 623> 53 90<498 567 498 568 498 568> 220 83<498 623 568 623> 220 90<498 567 498 568 498 568>
LayerCount: 2
Fore
SplineSet
220 498 m 1x88
 220 568 l 2x88
 221 618 297 694 349 696 c 1
 321 678 303 641 303 605 c 0x90
 303 592 305 579 310 567 c 1
 310 498 l 1
 220 498 l 1x88
53 498 m 1xa0
 53 568 l 2xa0
 54 618 130 694 182 696 c 1
 154 678 136 641 136 605 c 0xc0
 136 592 138 579 143 567 c 1
 143 498 l 1
 53 498 l 1xa0
EndSplineSet
EndChar

StartChar: quotedblright
Encoding: 8221 8221 238
Width: 388
GlyphClass: 2
Flags: MW
HStem: 494 198
VStem: 75 90<623 692 622 692> 82 83<567 692> 243 90<623 692 622 692> 250 83<567 692>
LayerCount: 2
Fore
SplineSet
333 692 m 1x90
 333 622 l 2x90
 332 572 256 496 204 494 c 1
 232 512 250 549 250 585 c 0x88
 250 598 248 611 243 623 c 1
 243 692 l 1
 333 692 l 1x90
165 692 m 1xc0
 165 622 l 2xc0
 164 572 88 496 36 494 c 1
 64 512 82 549 82 585 c 0xa0
 82 598 80 611 75 623 c 1
 75 692 l 1
 165 692 l 1xc0
EndSplineSet
EndChar

StartChar: quotedblbase
Encoding: 8222 8222 239
Width: 388
GlyphClass: 2
Flags: MW
HStem: -109 198
VStem: 74 90<20 89 19 89> 81 83<-36 89> 242 90<20 89 19 89> 249 83<-36 89>
LayerCount: 2
Fore
SplineSet
332 89 m 1x90
 332 19 l 2x90
 331 -31 255 -107 203 -109 c 1
 231 -91 249 -54 249 -18 c 0x88
 249 -5 247 8 242 20 c 1
 242 89 l 1
 332 89 l 1x90
164 89 m 1xc0
 164 19 l 2xc0
 163 -31 87 -107 35 -109 c 1
 63 -91 81 -54 81 -18 c 0xa0
 81 -5 79 8 74 20 c 1
 74 89 l 1
 164 89 l 1xc0
EndSplineSet
EndChar

StartChar: uni201F
Encoding: 8223 8223 240
Width: 388
GlyphClass: 2
Flags: MW
HStem: 494 198
VStem: 36 90<623 692 623 692 623 692> 204 90<623 692 623 692 623 692>
LayerCount: 2
Fore
SplineSet
36 692 m 1
 126 692 l 1
 126 623 l 1
 121 611 119 598 119 585 c 0
 119 549 137 512 165 494 c 1
 113 496 37 572 36 622 c 2
 36 692 l 1
204 692 m 1
 294 692 l 1
 294 623 l 1
 289 611 287 598 287 585 c 0
 287 549 305 512 333 494 c 1
 281 496 205 572 204 622 c 2
 204 692 l 1
EndSplineSet
EndChar

StartChar: dagger
Encoding: 8224 8224 241
Width: 408
GlyphClass: 2
Flags: MW
HStem: 424 74<6 166 6 166 241 402> 672 20G<166 241 241 241>
VStem: 166 75<-91 424 -91 424 498 692>
LayerCount: 2
Fore
SplineSet
402 424 m 1
 241 424 l 1
 241 -91 l 1
 166 -91 l 1
 166 424 l 1
 6 424 l 1
 6 498 l 1
 166 498 l 1
 166 692 l 1
 241 692 l 1
 241 498 l 1
 402 498 l 1
 402 424 l 1
EndSplineSet
EndChar

StartChar: daggerdbl
Encoding: 8225 8225 242
Width: 435
GlyphClass: 2
Flags: MW
HStem: 103 74<19 179 19 179 254 416> 424 74<19 179 19 179 254 416> 672 20G<179 254 254 254>
VStem: 179 75<-91 103 -91 103 177 424 498 692>
LayerCount: 2
Fore
SplineSet
416 103 m 1
 254 103 l 1
 254 -91 l 1
 179 -91 l 1
 179 103 l 1
 19 103 l 1
 19 177 l 1
 179 177 l 1
 179 424 l 1
 19 424 l 1
 19 498 l 1
 179 498 l 1
 179 692 l 1
 254 692 l 1
 254 498 l 1
 416 498 l 1
 416 424 l 1
 254 424 l 1
 254 177 l 1
 416 177 l 1
 416 103 l 1
EndSplineSet
EndChar

StartChar: bullet
Encoding: 8226 8226 243
Width: 334
GlyphClass: 2
Flags: MW
HStem: 210 240<131.5 196.5>
VStem: 47 234<297 363>
LayerCount: 2
Fore
SplineSet
164 450 m 0
 229 450 281 396 281 330 c 0
 281 264 229 210 164 210 c 0
 99 210 47 264 47 330 c 0
 47 396 99 450 164 450 c 0
EndSplineSet
EndChar

StartChar: uni2023
Encoding: 8227 8227 244
Width: 398
GlyphClass: 2
Flags: MW
VStem: 100 266<300 300 300 500 300 500>
LayerCount: 2
Fore
SplineSet
100 500 m 1
 366 300 l 1
 100 102 l 1
 100 500 l 1
EndSplineSet
EndChar

StartChar: onedotenleader
Encoding: 8228 8228 245
Width: 233
GlyphClass: 2
Flags: MW
HStem: -13 116<97.5 130.5>
VStem: 55 118<29 61>
LayerCount: 2
Fore
SplineSet
55 45 m 0
 55 77 81 103 114 103 c 0
 147 103 173 77 173 45 c 0
 173 13 147 -13 114 -13 c 0
 81 -13 55 13 55 45 c 0
EndSplineSet
EndChar

StartChar: twodotenleader
Encoding: 8229 8229 246
Width: 466
GlyphClass: 2
Flags: MW
HStem: -13 116<97.5 130.5 330.5 363.5>
VStem: 55 118<29 61> 288 118<29 61>
LayerCount: 2
Fore
SplineSet
288 45 m 0
 288 77 314 103 347 103 c 0
 380 103 406 77 406 45 c 0
 406 13 380 -13 347 -13 c 0
 314 -13 288 13 288 45 c 0
55 45 m 0
 55 77 81 103 114 103 c 0
 147 103 173 77 173 45 c 0
 173 13 147 -13 114 -13 c 0
 81 -13 55 13 55 45 c 0
EndSplineSet
EndChar

StartChar: ellipsis
Encoding: 8230 8230 247
Width: 699
GlyphClass: 2
Flags: MW
HStem: -13 116<97.5 130.5 330.5 363.5 563.5 596.5>
VStem: 55 118<29 61> 288 118<29 61> 521 118<29 61>
CounterMasks: 1 70
LayerCount: 2
Fore
SplineSet
521 45 m 0
 521 77 547 103 580 103 c 0
 613 103 639 77 639 45 c 0
 639 13 613 -13 580 -13 c 0
 547 -13 521 13 521 45 c 0
288 45 m 0
 288 77 314 103 347 103 c 0
 380 103 406 77 406 45 c 0
 406 13 380 -13 347 -13 c 0
 314 -13 288 13 288 45 c 0
55 45 m 0
 55 77 81 103 114 103 c 0
 147 103 173 77 173 45 c 0
 173 13 147 -13 114 -13 c 0
 81 -13 55 13 55 45 c 0
EndSplineSet
EndChar

StartChar: perthousand
Encoding: 8240 8240 248
Width: 1139
GlyphClass: 3
Flags: MW
HStem: -14 60<587 650.5 587 671 934 997.5> 304 59<620 651 966 998.5> 328 57<174 206 174 226.5> 644 60<143.5 206.5>
VStem: 29 60<516 546 486 561> 259 60<516 543> 473 62<146 175 146 221> 702 63<144.5 206> 820 63<146 204 146 220.5> 1051 60<145 203.5>
LayerCount: 2
Fore
SplineSet
259 516 m 0xbfc0
 259 570 239 644 174 644 c 0
 113 644 89 576 89 516 c 0
 89 456 110 387 174 385 c 0
 238 385 258 457 259 516 c 0xbfc0
702 175 m 0
 702 237 682 304 620 304 c 0xdfc0
 550 304 537 238 535 175 c 0
 535 117 554 46 620 46 c 0
 681 46 702 114 702 175 c 0
1051 175 m 0
 1051 232 1031 304 966 304 c 0
 899 304 883 233 883 175 c 0
 883 117 902 46 966 46 c 0
 1029 46 1051 115 1051 175 c 0
319 516 m 0
 319 421 279 328 174 328 c 0xbfc0
 67 328 31 419 29 516 c 0
 29 606 72 704 174 704 c 0
 276 704 319 606 319 516 c 0
632 704 m 1
 227 -14 l 1
 160 -14 l 1
 568 704 l 1
 632 704 l 1
765 175 m 0
 765 85 722 -14 620 -14 c 0
 516 -14 473 84 473 175 c 0
 473 267 519 361 620 363 c 0xdfc0
 721 363 765 263 765 175 c 0
1111 175 m 0
 1111 84 1070 -14 966 -14 c 0
 864 -14 820 83 820 175 c 0
 820 266 866 361 966 363 c 0
 1069 363 1111 265 1111 175 c 0
EndSplineSet
Ligature2: "Ligature Substitution lookup 9 subtable" zero fraction zero zero
Ligature2: "Ligature Substitution lookup 9 subtable" zero slash zero zero
EndChar

StartChar: guilsinglleft
Encoding: 8249 8249 249
Width: 279
GlyphClass: 2
Flags: MW
VStem: 25 200<57 257>
LayerCount: 2
Fore
SplineSet
225 57 m 1
 25 225 l 1
 25 257 l 1
 225 426 l 1
 225 346 l 1
 93 242 l 1
 225 137 l 1
 225 57 l 1
EndSplineSet
EndChar

StartChar: guilsinglright
Encoding: 8250 8250 250
Width: 276
GlyphClass: 2
Flags: MW
VStem: 52 199<57 225 137 225 225 426>
LayerCount: 2
Fore
SplineSet
251 225 m 1
 52 57 l 1
 52 137 l 1
 182 242 l 1
 52 346 l 1
 52 426 l 1
 251 257 l 1
 251 225 l 1
EndSplineSet
EndChar

StartChar: fraction
Encoding: 8260 8260 251
Width: 407
GlyphClass: 2
Flags: MW
HStem: -14 21G<-69 -1 -69 -69> 684 20G<344 412 412 412>
LayerCount: 2
Fore
SplineSet
412 704 m 1
 -1 -14 l 1
 -69 -14 l 1
 344 704 l 1
 412 704 l 1
EndSplineSet
EndChar

StartChar: four.superior
Encoding: 8308 8308 252
Width: 277
GlyphClass: 2
Flags: MW
HStem: 426 57<70 160 70 160 220 266> 676 20G<189 220 220 220>
VStem: 160 60<350 426 350 426 483 605 605 605>
LayerCount: 2
Fore
SplineSet
160 483 m 1
 160 605 l 1
 70 483 l 1
 160 483 l 1
266 426 m 1
 220 426 l 1
 220 350 l 1
 160 350 l 1
 160 426 l 1
 12 426 l 1
 12 450 l 1
 189 696 l 1
 220 696 l 1
 220 483 l 1
 266 483 l 1
 266 426 l 1
EndSplineSet
EndChar

StartChar: Euro
Encoding: 8364 8364 253
Width: 546
GlyphClass: 2
Flags: MW
HStem: -14 66<303 384.5> 243 50<37 102 37 105 15 102 181 181 181 347> 397 50<37 102 15 105 181 411> 639 65<303.5 384 283 395>
VStem: 105 76<243 243>
LayerCount: 2
Fore
SplineSet
511 51 m 1
 473 17 413 -14 356 -14 c 0
 206 -14 129 98 105 243 c 1
 15 243 l 1
 37 293 l 1
 102 293 l 1
 102 397 l 1
 15 397 l 1
 37 447 l 1
 105 447 l 1
 127 589 210 704 356 704 c 0
 412 704 473 674 511 640 c 1
 511 547 l 1
 468 602 431 639 359 639 c 0
 248 639 197 555 181 447 c 1
 441 447 l 1
 411 397 l 1
 172 397 l 1
 172 293 l 1
 368 293 l 1
 347 243 l 1
 181 243 l 1
 196 132 247 52 359 52 c 0
 432 52 467 85 511 142 c 1
 511 51 l 1
EndSplineSet
EndChar

StartChar: trademark
Encoding: 8482 8482 254
Width: 639
GlyphClass: 2
Flags: MW
HStem: 369 232<113 158 113 113 30 290 290 338 524 524 524 570> 562 39<30 113 30 242 158 242 158 158>
VStem: 113 45<369 562 369 562> 290 48<369 552 369 601> 524 46<369 551 551 551>
LayerCount: 2
Fore
SplineSet
242 562 m 1x78
 158 562 l 1x78
 158 369 l 1
 113 369 l 1xb8
 113 562 l 1
 30 562 l 1
 30 601 l 1
 242 601 l 1
 242 562 l 1x78
570 369 m 1xb8
 524 369 l 1
 524 551 l 1
 442 440 l 1
 423 440 l 1
 338 552 l 1
 338 369 l 1
 290 369 l 1
 290 601 l 1xb8
 359 601 l 1
 433 501 l 1
 502 601 l 1x78
 570 601 l 1
 570 369 l 1xb8
EndSplineSet
EndChar

StartChar: uni2126
Encoding: 8486 8486 255
Width: 653
GlyphClass: 2
Flags: MW
HStem: 0 67<41 174 41 276 41 174 479 611> 547 61<260 408>
VStem: 51 68<269.5 391 269.5 408.5> 532 69<275 392>
LayerCount: 2
Fore
SplineSet
611 0 m 1
 376 0 l 1
 376 67 l 1
 478 120 532 215 532 327 c 0
 532 457 455 545 326 547 c 0
 194 547 119 455 119 327 c 0
 119 212 173 121 276 67 c 1
 276 0 l 1
 41 0 l 1
 41 67 l 1
 174 67 l 1
 90 149 51 217 51 322 c 0
 51 495 156 606 326 608 c 0
 490 608 601 495 601 327 c 0
 601 223 563 149 479 67 c 1
 611 67 l 1
 611 0 l 1
EndSplineSet
EndChar

StartChar: partialdiff
Encoding: 8706 8706 256
Width: 427
GlyphClass: 2
Flags: MW
HStem: -10 14<173 190.5 173 203> 301 21<164 214.5 137 237.5> 446 68<152 152> 493 41<243.5 244.5 220 263.5>
VStem: 33 62<100 143 76.5 186.5> 322 57<258 394.5>
LayerCount: 2
Fore
SplineSet
288 198 m 0xcc
 288 259 266 301 209 301 c 0
 119 301 95 179 95 107 c 0
 95 46 116 6 173 4 c 0
 208 4 235 23 258 61 c 0
 278 97 288 142 288 198 c 0xcc
379 304 m 0
 379 212 359 139 319 80 c 0
 280 19 232 -10 174 -10 c 0
 88 -10 33 59 33 141 c 0
 33 232 88 322 186 322 c 0
 243 322 275 294 302 246 c 1
 311 278 316 300 320 319 c 0
 321 337 322 357 322 378 c 0
 322 411 319 443 306 465 c 0
 294 483 275 493 252 493 c 0xdc
 235 493 216 486 192 470 c 0
 179 458 166 446 152 446 c 0
 146 446 139 448 132 455 c 0
 127 460 125 465 125 471 c 0
 125 488 143 508 152 514 c 0xec
 172 527 193 533 220 534 c 0xdc
 269 534 307 514 335 471 c 0
 365 431 379 374 379 304 c 0
EndSplineSet
EndChar

StartChar: increment
Encoding: 8710 8710 257
Width: 579
GlyphClass: 2
Flags: MW
HStem: 0 68<109 468 109 569>
LayerCount: 2
Fore
SplineSet
468 68 m 1
 290 517 l 1
 109 68 l 1
 468 68 l 1
569 0 m 1
 9 0 l 1
 248 593 l 1
 330 593 l 1
 569 0 l 1
EndSplineSet
EndChar

StartChar: product
Encoding: 8719 8719 258
Width: 637
GlyphClass: 2
Flags: MW
HStem: 517 76<156 481 156 156>
VStem: 69 87<-158 517 -158 593 -158 593> 481 87<-158 517 517 517>
LayerCount: 2
Fore
SplineSet
568 -158 m 1
 481 -158 l 1
 481 517 l 1
 156 517 l 1
 156 -158 l 1
 69 -158 l 1
 69 593 l 1
 568 593 l 1
 568 -158 l 1
EndSplineSet
EndChar

StartChar: summation
Encoding: 8721 8721 259
Width: 566
GlyphClass: 2
Flags: MW
HStem: -158 72<133 552 133 552> 521 72<142 541 142 142>
LayerCount: 2
Fore
SplineSet
552 -158 m 1
 21 -158 l 1
 21 -102 l 1
 322 225 l 1
 33 528 l 1
 33 593 l 1
 541 593 l 1
 541 521 l 1
 142 521 l 1
 420 228 l 1
 133 -86 l 1
 552 -86 l 1
 552 -158 l 1
EndSplineSet
EndChar

StartChar: minus
Encoding: 8722 8722 260
Width: 366
GlyphClass: 2
Flags: MW
HStem: 193 66<69 297 69 297>
VStem: 69 228<193 259 193 259>
LayerCount: 2
Fore
SplineSet
297 193 m 1
 69 193 l 1
 69 259 l 1
 297 259 l 1
 297 193 l 1
EndSplineSet
EndChar

StartChar: radical
Encoding: 8730 8730 261
Width: 506
GlyphClass: 2
Flags: MW
HStem: 637 31<454 501 454 454>
LayerCount: 2
Fore
SplineSet
501 637 m 1
 454 637 l 1
 207 -16 l 1
 190 -16 l 1
 56 344 l 1
 4 325 l 1
 -2 351 l 1
 105 389 l 1
 214 101 l 1
 433 668 l 1
 501 668 l 1
 501 637 l 1
EndSplineSet
EndChar

StartChar: infinity
Encoding: 8734 8734 262
Width: 612
GlyphClass: 2
Flags: MW
HStem: 89 52<158 191.5 158 203.5> 346 58<136.5 193 125.5 197.5>
VStem: 48 15<214.5 273.5 214.5 283> 546 15<250 279.5>
LayerCount: 2
Fore
SplineSet
287 269 m 1
 268 311 227 346 168 346 c 0
 105 346 63 304 63 243 c 0
 63 186 101 143 158 141 c 0
 225 141 259 208 287 269 c 1
546 250 m 0
 546 309 510 349 451 351 c 0
 383 351 348 284 323 224 c 1
 348 178 383 146 441 146 c 0
 501 146 544 185 546 250 c 0
561 247 m 0
 561 172 523 91 443 91 c 0
 383 91 345 141 311 197 c 1
 276 145 233 89 174 89 c 0
 95 89 48 169 48 245 c 0
 48 321 85 404 166 404 c 0
 220 404 270 343 300 293 c 1
 331 348 377 404 434 404 c 0
 511 404 561 322 561 247 c 0
EndSplineSet
EndChar

StartChar: integral
Encoding: 8747 8747 263
Width: 402
GlyphClass: 2
Flags: MW
HStem: -149 35<59 123.5> 591 33<276 338.5>
VStem: 164 67 315 81
LayerCount: 2
Fore
SplineSet
396 568 m 0
 396 555 392 545 384 538 c 0
 377 530 366 525 354 525 c 0
 343 525 335 526 330 531 c 0
 323 537 318 542 315 552 c 0
 314 556 314 562 312 571 c 0
 311 585 305 591 294 591 c 0
 258 591 239 504 234 333 c 0
 233 281 232 240 231 210 c 0
 227 80 211 -11 184 -68 c 0
 160 -122 122 -149 70 -149 c 0
 48 -149 33 -144 21 -134 c 0
 9 -123 3 -109 3 -93 c 0
 3 -80 6 -70 15 -62 c 0
 22 -54 33 -50 47 -50 c 0
 55 -50 62 -52 67 -55 c 0
 72 -58 76 -63 80 -70 c 0
 82 -75 84 -82 86 -92 c 0
 90 -107 96 -114 106 -114 c 0
 141 -114 160 -19 164 171 c 0
 165 201 165 223 166 239 c 0
 169 376 184 475 211 536 c 0
 236 596 273 624 328 624 c 0
 349 624 364 619 378 607 c 0
 389 598 396 585 396 568 c 0
EndSplineSet
EndChar

StartChar: approxequal
Encoding: 8776 8776 264
Width: 623
GlyphClass: 2
Flags: MW
HStem: 119 59<413 416> 176 59<173 192> 281 60<394.5 458.5 413 458.5>
LayerCount: 2
Fore
SplineSet
568 178 m 1xa0
 524 145 473 121 416 119 c 0xa0
 387 119 352 127 314 144 c 1
 278 154 244 174 192 176 c 0
 136 176 89 149 50 110 c 1
 50 176 l 1
 92 211 144 235 202 235 c 0x60
 247 235 297 211 319 204 c 0
 362 188 400 178 426 178 c 0
 489 178 521 202 568 244 c 1
 568 178 l 1xa0
568 340 m 1
 521 305 479 281 416 281 c 2
 413 281 l 2
 376 281 331 298 298 312 c 0
 254 328 218 338 192 338 c 0
 135 338 90 312 50 272 c 1
 50 338 l 1
 91 371 148 395 202 397 c 0
 232 397 265 389 304 372 c 0
 314 368 411 341 426 341 c 0
 491 341 523 364 568 407 c 1
 568 340 l 1
EndSplineSet
EndChar

StartChar: notequal
Encoding: 8800 8800 265
Width: 579
GlyphClass: 2
Flags: MW
HStem: 143 62<31 157 31 210 284 548 31 232> 310 62<31 294 31 347 31 369 422 548>
LayerCount: 2
Fore
SplineSet
548 143 m 1
 232 143 l 1
 127 16 l 1
 85 54 l 1
 157 143 l 1
 31 143 l 1
 31 205 l 1
 210 205 l 1
 294 310 l 1
 31 310 l 1
 31 372 l 1
 347 372 l 1
 452 501 l 1
 494 464 l 1
 422 372 l 1
 548 372 l 1
 548 310 l 1
 369 310 l 1
 284 205 l 1
 548 205 l 1
 548 143 l 1
EndSplineSet
EndChar

StartChar: lessequal
Encoding: 8804 8804 266
Width: 600
GlyphClass: 2
Flags: MW
HStem: 0 63<33 551 33 551>
LayerCount: 2
Fore
SplineSet
551 0 m 1
 33 0 l 1
 33 63 l 1
 551 63 l 1
 551 0 l 1
551 118 m 1
 33 267 l 1
 33 332 l 1
 551 480 l 1
 551 414 l 1
 152 301 l 1
 551 184 l 1
 551 118 l 1
EndSplineSet
EndChar

StartChar: greaterequal
Encoding: 8805 8805 267
Width: 601
GlyphClass: 2
Flags: MW
HStem: 0 63<49 568 49 568>
LayerCount: 2
Fore
SplineSet
568 0 m 1
 49 0 l 1
 49 63 l 1
 568 63 l 1
 568 0 l 1
568 267 m 1
 49 118 l 1
 49 184 l 1
 452 301 l 1
 49 414 l 1
 49 480 l 1
 568 332 l 1
 568 267 l 1
EndSplineSet
EndChar

StartChar: lozenge
Encoding: 9674 9674 268
Width: 433
GlyphClass: 2
Flags: W
LayerCount: 2
Fore
SplineSet
379 239 m 1
 217 573 l 1
 54 239 l 1
 217 -102 l 1
 379 239 l 1
419 240 m 1
 216 -192 l 1
 14 240 l 1
 217 665 l 1
 419 240 l 1
EndSplineSet
EndChar

StartChar: c_t
Encoding: 59044 59044 269
Width: 794
GlyphClass: 3
Flags: MW
HStem: -14 64<656.5 692> 392 59<609 742 609 742> 640 64<436 486>
VStem: 46 75<225 277.5 171 292> 535 74<148 392>
LayerCount: 2
Fore
SplineSet
577 580 m 1
 609 580 l 1
 609 451 l 1
 742 451 l 1
 742 392 l 1
 609 392 l 1
 609 148 l 2
 609 81 621 50 692 50 c 0
 712 50 743 56 771 69 c 1
 771 5 l 1
 747 -6 714 -13 692 -14 c 0
 580 -14 535 35 535 148 c 2
 535 392 l 1
 482 392 l 1
 482 405 l 1
 577 580 l 1
406 16 m 1
 367 2 325 -12 274 -12 c 0
 129 -12 48 84 46 225 c 0
 46 359 121 449 250 461 c 1
 258 598 343 704 482 704 c 0
 534 704 568 691 609 677 c 1
 609 602 l 1
 558 627 547 637 486 640 c 0
 386 640 331 558 325 458 c 1
 354 453 378 444 406 435 c 1
 406 360 l 1
 355 385 344 395 283 398 c 0
 176 398 121 330 121 225 c 0
 121 117 174 54 283 52 c 0
 346 52 357 65 406 90 c 1
 406 16 l 1
EndSplineSet
Ligature2: "'dlig' Discretionary Ligatures in Latin lookup 16 subtable" c t
EndChar

StartChar: s_p
Encoding: 59045 59045 270
Width: 885
GlyphClass: 3
Flags: MW
HStem: -241 21G<449 449 449 524> -11 64<614 667.5 614 691.5> 399 64<593 614> 640 64<373.5 425>
VStem: 49 67<328 333 308.5 375.5> 188 75 275 72<117 146> 449 75<-241 2 -241 71 71 382> 776 75<173.5 226 154 280>
LayerCount: 2
Fore
SplineSet
524 71 m 1
 550 60 573 55 614 53 c 0
 721 53 776 121 776 226 c 0
 776 334 723 397 614 399 c 0
 572 399 549 393 524 382 c 1
 524 71 l 1
449 -241 m 1
 449 426 l 1
 510 455 563 463 623 463 c 0
 768 463 849 367 851 226 c 0
 851 82 765 -11 618 -11 c 0
 584 -11 553 -6 524 2 c 1
 524 -241 l 1
 449 -241 l 1
263 456 m 1
 284 452 305 445 325 437 c 1
 325 363 l 1
 274 390 269 396 207 399 c 0
 165 399 118 387 116 333 c 0
 116 284 165 273 198 265 c 2
 217 259 l 1
 290 241 347 215 347 124 c 0
 347 19 261 -12 184 -12 c 0
 141 -12 79 4 43 16 c 1
 43 96 l 1
 100 66 118 54 186 51 c 0
 223 51 273 64 275 117 c 0
 275 175 226 182 186 194 c 2
 165 200 l 2
 95 217 51 244 49 328 c 0
 49 423 116 459 188 462 c 1
 195 598 280 704 421 704 c 0
 473 704 507 691 548 677 c 1
 548 602 l 1
 497 627 486 637 425 640 c 0
 322 640 267 556 263 456 c 1
EndSplineSet
Ligature2: "'dlig' Discretionary Ligatures in Latin lookup 16 subtable" s p
EndChar

StartChar: uniF6C3
Encoding: 63171 63171 271
Width: 216
GlyphClass: 2
Flags: MW
HStem: -298 198
VStem: 67 83<-169 -100 -170 -100> 74 76<-225 -100>
LayerCount: 2
Fore
SplineSet
150 -100 m 1xc0
 150 -170 l 2xc0
 149 -220 80 -296 28 -298 c 1
 56 -280 74 -243 74 -207 c 0xa0
 74 -194 72 -181 67 -169 c 1
 67 -100 l 1
 150 -100 l 1xc0
EndSplineSet
EndChar

StartChar: f_f
Encoding: 64256 64256 272
Width: 548
GlyphClass: 3
Flags: MW
HStem: 0 21G<100 175 100 100 374 374 374 449> 391 60<27 100 27 100 175 374 449 528> 628 64<210 274 225 274 225 274 499 548>
VStem: 100 75<0 391 0 391 451 513 513 513> 374 75<0 391 0 391 451 513 513 513>
LayerCount: 2
Fore
SplineSet
374 391 m 1
 175 391 l 1
 175 0 l 1
 100 0 l 1
 100 391 l 1
 27 391 l 1
 27 451 l 1
 100 451 l 1
 100 513 l 2
 103 644 154 691 225 692 c 2
 274 692 l 1
 274 628 l 1
 224 628 l 2
 196 628 175 608 175 521 c 2
 175 451 l 1
 374 451 l 1
 374 513 l 2
 377 644 428 691 499 692 c 2
 548 692 l 1
 548 628 l 1
 498 628 l 2
 470 628 449 608 449 521 c 2
 449 451 l 1
 528 451 l 1
 528 391 l 1
 449 391 l 1
 449 0 l 1
 374 0 l 1
 374 391 l 1
EndSplineSet
Ligature2: "'liga' Standard Ligatures in Latin lookup 15 subtable" f f
EndChar

StartChar: f_i
Encoding: 64257 64257 273
Width: 487
GlyphClass: 3
Flags: MW
HStem: 0 21G<100 175 100 100 343 418 343 343> 391 60<27 100 27 100> 598 94<369 393> 628 64<210 274 225 274 225 274>
VStem: 100 75<0 391 0 391 451 513 513 513> 337 88<633 657> 343 75<0 390 390 390>
LayerCount: 2
Fore
SplineSet
418 451 m 1xda
 418 0 l 1
 343 0 l 1
 343 390 l 1
 175 391 l 1
 175 0 l 1
 100 0 l 1
 100 391 l 1
 27 391 l 1
 27 451 l 1
 100 451 l 1
 100 513 l 2
 103 644 154 691 225 692 c 2
 274 692 l 1
 274 628 l 1
 224 628 l 2
 196 628 175 608 175 521 c 2
 175 451 l 1
 418 451 l 1xda
381 692 m 0xec
 405 692 425 669 425 645 c 0
 425 621 405 598 381 598 c 0
 357 598 337 621 337 645 c 0
 337 669 357 692 381 692 c 0xec
EndSplineSet
Ligature2: "'liga' Standard Ligatures in Latin lookup 14 subtable" f i
EndChar

StartChar: f_l
Encoding: 64258 64258 274
Width: 474
GlyphClass: 3
Flags: MW
HStem: 0 21G<100 175 100 100 332 406 332 332> 391 60<27 100 27 100 175 254> 628 64<210 406 225 332>
VStem: 100 75<0 391 0 391 451 513 513 513> 332 74<0 628 628 628>
LayerCount: 2
Fore
SplineSet
406 692 m 1
 406 0 l 1
 332 0 l 1
 332 628 l 1
 224 628 l 2
 196 628 175 608 175 521 c 2
 175 451 l 1
 254 451 l 1
 254 391 l 1
 175 391 l 1
 175 0 l 1
 100 0 l 1
 100 391 l 1
 27 391 l 1
 27 451 l 1
 100 451 l 1
 100 513 l 2
 103 644 154 691 225 692 c 2
 406 692 l 1
EndSplineSet
Ligature2: "'liga' Standard Ligatures in Latin lookup 15 subtable" f l
EndChar

StartChar: f_f_i
Encoding: 64259 64259 275
Width: 761
GlyphClass: 3
Flags: MW
HStem: 0 21G<100 175 100 100 374 449 374 374 617 692 617 617> 391 60<27 100 27 100 175 374> 598 94<643 667> 628 64<210 274 225 274 225 274 499 548>
VStem: 100 75<0 391 0 391 451 513 513 513> 374 75<0 391 0 391 451 513 513 513> 611 88<633 657> 617 75<0 390 390 390>
LayerCount: 2
Fore
SplineSet
692 451 m 1xdd
 692 0 l 1
 617 0 l 1
 617 390 l 1
 449 391 l 1
 449 0 l 1
 374 0 l 1
 374 391 l 1
 175 391 l 1
 175 0 l 1
 100 0 l 1
 100 391 l 1
 27 391 l 1
 27 451 l 1
 100 451 l 1
 100 513 l 2
 103 644 154 691 225 692 c 2
 274 692 l 1
 274 628 l 1
 224 628 l 2
 196 628 175 608 175 521 c 2
 175 451 l 1
 374 451 l 1
 374 513 l 2
 377 644 428 691 499 692 c 2
 548 692 l 1
 548 628 l 1
 498 628 l 2
 470 628 449 608 449 521 c 2
 449 451 l 1
 692 451 l 1xdd
655 692 m 0xee
 679 692 699 669 699 645 c 0
 699 621 679 598 655 598 c 0
 631 598 611 621 611 645 c 0
 611 669 631 692 655 692 c 0xee
EndSplineSet
Ligature2: "'liga' Standard Ligatures in Latin lookup 14 subtable" f f i
EndChar

StartChar: f_f_l
Encoding: 64260 64260 276
Width: 748
GlyphClass: 3
Flags: MW
HStem: 0 21G<100 175 100 100 374 449 374 374 606 680 606 606> 391 60<27 100 27 100 175 374 449 528> 628 64<210 274 225 274 225 274 499 606>
VStem: 100 75<0 391 0 391 451 513 513 513> 374 75<0 391 0 391 451 513 513 513> 606 74<0 628 628 628>
LayerCount: 2
Fore
SplineSet
680 692 m 1
 680 0 l 1
 606 0 l 1
 606 628 l 1
 498 628 l 2
 470 628 449 608 449 521 c 2
 449 451 l 1
 528 451 l 1
 528 391 l 1
 449 391 l 1
 449 0 l 1
 374 0 l 1
 374 391 l 1
 175 391 l 1
 175 0 l 1
 100 0 l 1
 100 391 l 1
 27 391 l 1
 27 451 l 1
 100 451 l 1
 100 513 l 2
 103 644 154 691 225 692 c 2
 274 692 l 1
 274 628 l 1
 224 628 l 2
 196 628 175 608 175 521 c 2
 175 451 l 1
 374 451 l 1
 374 513 l 2
 377 644 428 691 499 692 c 2
 680 692 l 1
EndSplineSet
Ligature2: "'liga' Standard Ligatures in Latin lookup 15 subtable" f f l
EndChar

StartChar: longs_t
Encoding: 64261 64261 277
Width: 619
GlyphClass: 3
Flags: MW
HStem: -14 64<481.5 517> 0 21<100 175 100 100> 391 60<53 100 53 100 27 100> 392 59<434 567> 628 64<210 274 225 274 225 274>
VStem: 100 75<0 391 391 391 451 513 513 513> 360 74<148 392>
LayerCount: 2
Fore
SplineSet
402 580 m 1x92
 434 580 l 1
 434 451 l 1
 567 451 l 1
 567 392 l 1
 434 392 l 1
 434 148 l 2
 434 81 446 50 517 50 c 0
 537 50 568 56 596 69 c 1
 596 5 l 1
 572 -6 539 -13 517 -14 c 0
 405 -14 360 35 360 148 c 2
 360 392 l 1
 307 392 l 1
 307 405 l 1
 402 580 l 1x92
175 521 m 2x6c
 175 0 l 1
 100 0 l 1
 100 391 l 1
 27 391 l 1
 53 451 l 1
 100 451 l 1
 100 513 l 2
 103 644 154 691 225 692 c 2
 274 692 l 1
 274 628 l 1
 224 628 l 2
 196 628 175 608 175 521 c 2x6c
EndSplineSet
Ligature2: "'hlig' Historic Ligatures in Latin lookup 18 subtable" longs t
EndChar

StartChar: s_t
Encoding: 64262 64262 278
Width: 733
GlyphClass: 3
Flags: MW
HStem: -14 64<595.5 631> 392 59<548 681 548 681> 640 64<373.5 425>
VStem: 49 67<328 333 308.5 375.5> 275 72<117 146> 474 74<148 392>
LayerCount: 2
Fore
SplineSet
516 580 m 1
 548 580 l 1
 548 451 l 1
 681 451 l 1
 681 392 l 1
 548 392 l 1
 548 148 l 2
 548 81 560 50 631 50 c 0
 651 50 682 56 710 69 c 1
 710 5 l 1
 686 -6 653 -13 631 -14 c 0
 519 -14 474 35 474 148 c 2
 474 392 l 1
 421 392 l 1
 421 405 l 1
 516 580 l 1
263 456 m 1
 284 452 305 445 325 437 c 1
 325 363 l 1
 274 390 269 396 207 399 c 0
 165 399 118 387 116 333 c 0
 116 284 165 273 198 265 c 2
 217 259 l 1
 290 241 347 215 347 124 c 0
 347 19 261 -12 184 -12 c 0
 141 -12 79 4 43 16 c 1
 43 96 l 1
 100 66 118 54 186 51 c 0
 223 51 273 64 275 117 c 0
 275 175 226 182 186 194 c 2
 165 200 l 2
 95 217 51 244 49 328 c 0
 49 423 116 459 188 462 c 1
 195 598 280 704 421 704 c 0
 473 704 507 691 548 677 c 1
 548 602 l 1
 497 627 486 637 425 640 c 0
 322 640 267 556 263 456 c 1
EndSplineSet
Ligature2: "'dlig' Discretionary Ligatures in Latin lookup 16 subtable" s t
EndChar
